<?xml version="1.0" encoding="UTF-8"?>
<svg width="274.34pt" height="156.57pt" version="1.1" viewBox="0 0 274.34 156.57" xmlns="http://www.w3.org/2000/svg" xmlns:xlink="http://www.w3.org/1999/xlink">
 <defs>
  <g id="e">
   <path d="m2.9062-1.4844c0-0.21875 0-0.73438-0.26562-1.1406-0.29688-0.4375-0.71875-0.51562-0.98438-0.51562-0.79688 0-1.4219 0.73438-1.4219 1.5938 0 0.90625 0.67188 1.625 1.5156 1.625 0.32812 0 0.73438-0.078125 1.125-0.34375l-0.046875-0.46875c-0.42188 0.3125-0.82812 0.35938-1.0625 0.35938-0.5625 0-1-0.48438-1.0156-1.1094zm-2.125-0.40625c0.10938-0.4375 0.4375-0.8125 0.875-0.8125 0.25 0 0.71875 0.125 0.84375 0.8125z"/>
  </g>
  <g id="i">
   <path d="m2.875-0.73438c-0.32812 0.21875-0.6875 0.34375-1.1094 0.34375-0.57812 0-0.95312-0.48438-0.95312-1.125 0-0.53125 0.25-1.1562 0.98438-1.1562 0.4375 0 0.65625 0.078125 0.98438 0.3125l0.09375-0.48438c-0.375-0.21875-0.59375-0.29688-1.0781-0.29688-0.96875 0-1.5469 0.8125-1.5469 1.625 0 0.84375 0.625 1.5938 1.5156 1.5938 0.46875 0 0.84375-0.14062 1.1406-0.32812z"/>
  </g>
  <g id="j">
   <path d="m1.25-2.6094h0.75v-0.42188h-0.78125v-0.78125c0-0.5 0.45312-0.54688 0.64062-0.54688 0.0625 0 0.28125 0 0.5625 0.10938v-0.48438c-0.078125-0.015625-0.29688-0.0625-0.5625-0.0625-0.65625 0-1.1562 0.48438-1.1562 1.1719v0.59375h-0.51562v0.42188h0.51562v2.6094h0.54688z"/>
  </g>
  <g id="a">
   <path d="m3.2969-1.5c0-0.89062-0.6875-1.6406-1.5469-1.6406-0.84375 0-1.5469 0.73438-1.5469 1.6406s0.71875 1.5781 1.5469 1.5781c0.84375 0 1.5469-0.6875 1.5469-1.5781zm-1.5469 1.1094c-0.53125 0-0.98438-0.40625-0.98438-1.1719 0-0.79688 0.51562-1.1406 0.98438-1.1406 0.48438 0 0.96875 0.35938 0.96875 1.1406s-0.46875 1.1719-0.96875 1.1719z"/>
  </g>
  <g id="u">
   <path d="m1.2656-3.0312h-0.59375v0.59375h0.59375zm-0.59375 2.4531v0.57812h0.59375v-0.57812z"/>
  </g>
  <g id="r">
   <path d="m3.6094-2.2344v-0.4375h-2.3125v-1.5781h0.26562c0.54688 0 1.1094 0.015625 1.6562 0.015625h0.59375v-0.46875h-3.1719v4.7031h3.2656v-0.51562h-0.6875c-0.64062 0-1.2812 0.015625-1.9219 0.015625v-1.7344z"/>
  </g>
  <g id="v">
   <path d="m5-2.0156c0-0.51562-0.14062-1.0781-0.95312-1.0781-0.57812 0-0.90625 0.34375-1.0625 0.54688-0.046875-0.125-0.1875-0.54688-0.89062-0.54688-0.53125 0-0.85938 0.3125-1.0156 0.51562v-0.48438h-0.53125v3.0625h0.57812v-1.6562c0-0.45312 0.17188-1 0.6875-1 0.6875 0 0.6875 0.48438 0.6875 0.6875v1.9688h0.5625v-1.6562c0-0.45312 0.17188-1 0.6875-1 0.6875 0 0.6875 0.48438 0.6875 0.6875v1.9688h0.5625z"/>
  </g>
  <g id="c">
   <path d="m1.1562-4.6562h-0.65625v0.65625h0.65625zm-0.046875 1.625h-0.54688v3.0312h0.54688z"/>
  </g>
  <g id="d">
   <path d="m2.4062-2.9219c-0.42188-0.1875-0.73438-0.21875-1.0156-0.21875-0.15625 0-1.1562 0-1.1562 0.90625 0 0.3125 0.1875 0.53125 0.26562 0.59375 0.26562 0.23438 0.4375 0.26562 0.90625 0.35938 0.21875 0.03125 0.60938 0.10938 0.60938 0.45312 0 0.45312-0.5625 0.45312-0.64062 0.45312-0.40625 0-0.79688-0.14062-1.0938-0.34375l-0.078125 0.5c0.40625 0.21875 0.8125 0.29688 1.1719 0.29688 0.4375 0 1.1406-0.14062 1.1406-0.95312 0-0.25-0.09375-0.48438-0.32812-0.6875-0.23438-0.1875-0.4375-0.23438-0.85938-0.3125-0.25-0.046875-0.57812-0.10938-0.57812-0.4375 0-0.40625 0.46875-0.40625 0.57812-0.40625 0.5 0 0.79688 0.15625 0.98438 0.26562z"/>
  </g>
  <g id="h">
   <path d="m3.0625-2.0156c0-0.51562-0.14062-1.0781-0.96875-1.0781-0.53125 0-0.85938 0.3125-1.0156 0.51562v-0.48438h-0.53125v3.0625h0.57812v-1.6562c0-0.45312 0.17188-1 0.6875-1 0.6875 0 0.6875 0.48438 0.6875 0.6875v1.9688h0.5625z"/>
  </g>
  <g id="k">
   <path d="m4.0781-0.8125c-0.40625 0.3125-0.78125 0.42188-1.3594 0.42188-1.0156 0-1.6094-1.0469-1.6094-1.9531 0-1.0156 0.625-2 1.6094-2 0.46875 0 0.89062 0.125 1.2188 0.375l0.10938-0.60938c-0.35938-0.14062-0.79688-0.21875-1.2656-0.21875-1.3438 0-2.3281 1.0938-2.3281 2.4375 0 1.2969 0.95312 2.4375 2.3125 2.4375 0.64062 0 0.89062-0.10938 1.3594-0.39062z"/>
  </g>
  <g id="p">
   <path d="m3.125-3.0312h-0.53125l-0.54688 1.3906c-0.125 0.35938-0.39062 1.0156-0.42188 1.2656h-0.015625c-0.015625-0.10938-0.03125-0.25-0.40625-1.2188-0.20312-0.5625-0.53125-1.3906-0.54688-1.4375h-0.5625l1.2031 3.0312h0.625z"/>
  </g>
  <g id="o">
   <path d="m1.1094-1.4531c0-0.71875 0.5625-1.1562 1.1719-1.1562v-0.48438c-0.48438 0-0.9375 0.25-1.2188 0.64062v-0.60938h-0.5v3.0625h0.54688z"/>
  </g>
  <g id="s">
   <path d="m3.4219-2.125v-0.45312h-2.125v-1.6719h0.23438c0.54688 0 1.0781 0.015625 1.6094 0.015625h0.57812v-0.46875h-3.0781v4.7031h0.65625v-2.125z"/>
  </g>
  <g id="b">
   <path d="m2.8125-1.9688c0-0.67188-0.5-1.1719-1.1719-1.1719-0.45312 0-0.78125 0.10938-1.1094 0.29688l0.046875 0.48438c0.34375-0.25 0.67188-0.35938 1.0469-0.35938 0.39062 0 0.60938 0.3125 0.60938 0.75v0.29688c-1.1719 0.015625-1.9375 0.32812-1.9375 0.875 0 0.32812 0.21875 0.875 0.8125 0.875 0.125 0 0.71875-0.015625 1.1562-0.34375v0.26562h0.54688zm-0.57812 1.0156c0 0.14062 0 0.3125-0.23438 0.45312-0.17188 0.10938-0.40625 0.125-0.53125 0.125-0.34375 0-0.64062-0.15625-0.64062-0.42188 0-0.48438 1.3281-0.51562 1.4062-0.51562z"/>
  </g>
  <g id="f">
   <path d="m1.2344-2.6094h0.98438v-0.42188h-0.98438v-0.85938h-0.5v0.85938h-0.60938v0.42188h0.57812v1.75c0 0.40625 0.09375 0.9375 0.59375 0.9375 0.29688 0 0.65625-0.0625 1.0312-0.25l-0.10938-0.4375c-0.1875 0.14062-0.42188 0.21875-0.625 0.21875-0.26562 0-0.35938-0.23438-0.35938-0.59375z"/>
  </g>
  <g id="m">
   <path d="m3.0625-2.0156c0-0.51562-0.14062-1.0781-0.96875-1.0781-0.39062 0-0.75 0.17188-1 0.48438v-2.125h-0.54688v4.7344h0.57812v-1.6562c0-0.45312 0.17188-1 0.6875-1 0.6875 0 0.6875 0.48438 0.6875 0.6875v1.9688h0.5625z"/>
  </g>
  <g id="t">
   <path d="m1.1094-4.7344h-0.54688v4.7344h0.54688z"/>
  </g>
  <g id="n">
   <path d="m1.125-0.3125c0.26562 0.23438 0.59375 0.39062 0.95312 0.39062 0.6875 0 1.2812-0.67188 1.2812-1.5938 0-0.82812-0.42188-1.5781-1.0781-1.5781-0.20312 0-0.70312 0.03125-1.1719 0.39062v-0.32812h-0.54688v4.3594h0.5625zm0-1.9531c0.09375-0.125 0.34375-0.375 0.73438-0.375 0.51562 0 0.9375 0.48438 0.9375 1.125 0 0.65625-0.46875 1.1406-1 1.1406-0.21875 0-0.46875-0.078125-0.67188-0.42188z"/>
  </g>
  <g id="z">
   <path d="m3.0625-3.0312h-0.5625v1.9688c0 0.54688-0.4375 0.73438-0.84375 0.73438-0.48438 0-0.53125-0.15625-0.53125-0.45312v-2.25h-0.57812v2.2812c0 0.59375 0.23438 0.82812 0.71875 0.82812 0.39062 0 0.92188-0.125 1.25-0.40625v0.32812h0.54688z"/>
  </g>
  <g id="g">
   <path d="m3.0469-4.7344h-0.54688v2.0156c-0.375-0.32812-0.8125-0.375-1.0312-0.375-0.6875 0-1.2188 0.70312-1.2188 1.5781s0.51562 1.5938 1.1875 1.5938c0.20312 0 0.64062-0.046875 1.0469-0.4375v0.35938h0.5625zm-0.5625 3.7812c0 0.125 0 0.14062-0.078125 0.23438-0.1875 0.23438-0.42188 0.34375-0.65625 0.34375-0.45312 0-0.9375-0.3125-0.9375-1.125 0-0.875 0.57812-1.1562 1-1.1562 0.3125 0 0.53125 0.17188 0.67188 0.35938z"/>
  </g>
  <g id="y">
   <path d="m3.3125-3.0938c-0.125 0-0.57812 0-1.0781 0.21875-0.10938-0.078125-0.35938-0.21875-0.6875-0.21875-0.625 0-1.125 0.5-1.125 1.1094 0 0.17188 0.046875 0.42188 0.23438 0.6875-0.125 0.17188-0.1875 0.375-0.1875 0.5625s0.0625 0.375 0.17188 0.51562c-0.35938 0.21875-0.4375 0.51562-0.4375 0.70312 0 0.5 0.65625 0.92188 1.5469 0.92188 0.875 0 1.5469-0.42188 1.5469-0.92188 0-0.95312-1.125-0.96875-1.4375-0.96875h-0.625c-0.078125 0-0.39062 0-0.39062-0.35938 0-0.125 0.03125-0.17188 0.0625-0.21875 0.1875 0.10938 0.42188 0.1875 0.64062 0.1875 0.64062 0 1.125-0.51562 1.125-1.1094 0-0.23438-0.0625-0.42188-0.17188-0.60938-0.03125-0.03125-0.03125-0.03125-0.03125-0.046875 0-0.03125 0.34375-0.03125 0.42188-0.03125 0.0625 0 0.3125 0 0.51562 0.03125zm-1.7656 1.8125c-0.3125 0-0.60938-0.20312-0.60938-0.70312 0-0.54688 0.34375-0.70312 0.60938-0.70312 0.3125 0 0.625 0.1875 0.625 0.70312 0 0.54688-0.34375 0.70312-0.625 0.70312zm0.3125 1.3125c0.15625 0 0.9375 0 0.9375 0.45312 0 0.29688-0.5 0.51562-1.0469 0.51562-0.53125 0-1.0469-0.20312-1.0469-0.51562 0-0.015625 0-0.45312 0.51562-0.45312z"/>
  </g>
  <g id="w">
   <path d="m1.2969-4.7344h-0.65625v4.7344h2.875v-0.48438h-0.29688c-0.5625 0-1.1094 0.015625-1.6562 0.015625h-0.26562z"/>
  </g>
  <g id="x">
   <path d="m1.6562-2.8594c-0.34375-0.078125-0.6875-0.35938-0.6875-0.75s0.375-0.78125 1-0.78125c0.48438 0 0.82812 0.14062 1.1719 0.4375l0.10938-0.59375c-0.32812-0.17188-0.65625-0.32812-1.2812-0.32812-0.96875 0-1.5781 0.67188-1.5781 1.3594 0 0.15625 0.03125 0.4375 0.26562 0.75 0.3125 0.40625 0.75 0.51562 1.0312 0.57812 0.09375 0.03125 0.51562 0.125 0.57812 0.14062 0.3125 0.09375 0.65625 0.39062 0.65625 0.82812s-0.39062 0.85938-1 0.85938c-0.54688 0-1.0625-0.20312-1.5-0.54688l-0.10938 0.59375c0.67188 0.40625 1.2812 0.46875 1.6094 0.46875 0.9375 0 1.5781-0.70312 1.5781-1.4531 0-0.78125-0.64062-1.2812-1.1562-1.4062z"/>
  </g>
  <g id="l">
   <path d="m2.7188-4.2188c0.46875 0 0.9375 0.015625 1.3906 0.015625h0.42188v-0.48438h-4.2812v0.48438h0.42188c0.45312 0 0.92188-0.015625 1.3906-0.015625v4.2188h0.65625z"/>
  </g>
  <g id="ba">
   <path d="m3.0469-3.0938h-0.54688v0.45312c-0.125-0.125-0.42188-0.45312-0.96875-0.45312-0.6875 0-1.2812 0.67188-1.2812 1.5938 0 0.84375 0.48438 1.5781 1.1562 1.5781 0.45312 0 0.84375-0.20312 1.0781-0.40625v1.6562h0.5625zm-0.54688 2.1406c0 0.09375 0 0.20312-0.23438 0.39062-0.14062 0.125-0.32812 0.1875-0.51562 0.1875-0.51562 0-0.9375-0.5-0.9375-1.125 0-0.6875 0.48438-1.1406 1-1.1406 0.45312 0 0.6875 0.45312 0.6875 0.73438z"/>
  </g>
  <g id="az">
   <path d="m4.1562-4.7344h-0.5625v3.1406c0 0.92188-0.59375 1.3438-1.1562 1.3438-0.57812 0-1.1406-0.42188-1.1406-1.3281v-3.1562h-0.65625v3.1406c0 1.0156 0.84375 1.75 1.7812 1.75s1.7344-0.75 1.7344-1.75z"/>
  </g>
  <g id="ay">
   <path d="m3.125-3.0312h-0.53125c-0.51562 1.25-0.89062 2.1562-0.9375 2.625-0.015625-0.3125-0.29688-1.0156-0.375-1.2031-0.28125-0.70312-0.40625-0.9375-0.60938-1.4219h-0.57812l1.3594 3.0312-0.25 0.60938c-0.17188 0.375-0.29688 0.375-0.40625 0.375s-0.34375-0.03125-0.54688-0.10938l0.046875 0.46875c0.015625 0 0.26562 0.046875 0.5 0.046875 0.1875 0 0.48438 0 0.8125-0.8125z"/>
  </g>
  <g id="ax">
   <path d="m4.6875-3.0312h-0.53125c-0.15625 0.5-0.71875 2.2344-0.76562 2.6562-0.046875-0.29688-0.1875-0.75-0.29688-1.1406l-0.48438-1.5156h-0.5c-0.21875 0.67188-0.70312 2.2031-0.71875 2.625h-0.015625c-0.015625-0.25-0.20312-0.875-0.32812-1.2969l-0.40625-1.3281h-0.54688l0.96875 3.0312h0.5625c0.10938-0.375 0.35938-1.1562 0.40625-1.3125 0.14062-0.48438 0.3125-1.0312 0.32812-1.3281 0.015625 0.14062 0.078125 0.40625 0.09375 0.46875 0.078125 0.29688 0.078125 0.3125 0.125 0.48438l0.51562 1.6875h0.625z"/>
  </g>
  <g id="q">
   <path d="m1.1094-4.7344h-0.54688v4.7344h0.5625v-0.3125c0.09375 0.09375 0.4375 0.39062 0.95312 0.39062 0.70312 0 1.2812-0.6875 1.2812-1.5938 0-0.82812-0.4375-1.5781-1.1094-1.5781-0.1875 0-0.67188 0.03125-1.1406 0.39062zm0.015625 2.4531c0.10938-0.14062 0.35938-0.375 0.73438-0.375 0.42188 0 0.9375 0.28125 0.9375 1.1406 0 0.875-0.57812 1.1406-1 1.1406-0.4375 0-0.625-0.35938-0.67188-0.42188z"/>
  </g>
  <g id="aw">
   <path d="m1.8281-1.5625 1.2812-1.4688h-0.59375l-0.92188 1.1094-0.95312-1.1094h-0.59375l1.3125 1.4688-1.3594 1.5625h0.59375l1-1.2812 1.0312 1.2812h0.59375z"/>
  </g>
 </defs>
 <path d="m187.75 78.263c0-6.9141-25.48-12.52-56.918-12.52-31.434 0-56.914 5.6055-56.914 12.52 0 6.9141 25.48 12.52 56.914 12.52 31.437 0 56.918-5.6055 56.918-12.52z" fill="none" stroke="#000" stroke-miterlimit="10" stroke-width=".60492"/>
 <g transform="translate(-169.34 -115.88)" fill="#7f7f7f">
  <use x="293.27213" y="192.34151" xlink:href="#e"/>
  <use x="296.38083" y="192.34151" xlink:href="#i"/>
  <use x="299.48956" y="192.34151" xlink:href="#j"/>
  <use x="301.62643" y="192.34151" xlink:href="#a"/>
  <use x="305.12375" y="192.34151" xlink:href="#u"/>
 </g>
 <g transform="translate(-169.34 -115.88)">
  <use x="262.25525" y="200.65929" xlink:href="#r"/>
  <use x="266.45621" y="200.65929" xlink:href="#v"/>
  <use x="272.01147" y="200.65929" xlink:href="#c"/>
  <use x="273.68152" y="200.65929" xlink:href="#d"/>
  <use x="276.36285" y="200.65929" xlink:href="#d"/>
  <use x="279.04419" y="200.65929" xlink:href="#c"/>
  <use x="280.71423" y="200.65929" xlink:href="#a"/>
  <use x="284.21152" y="200.65929" xlink:href="#h"/>
  <use x="287.82452" y="200.65929" xlink:href="#k"/>
  <use x="292.29294" y="200.65929" xlink:href="#a"/>
  <use x="295.79025" y="200.65929" xlink:href="#h"/>
  <use x="299.40323" y="200.65929" xlink:href="#p"/>
  <use x="302.62766" y="200.65929" xlink:href="#e"/>
  <use x="305.73636" y="200.65929" xlink:href="#o"/>
  <use x="308.12573" y="200.65929" xlink:href="#d"/>
  <use x="310.80707" y="200.65929" xlink:href="#c"/>
  <use x="312.47711" y="200.65929" xlink:href="#a"/>
  <use x="315.9744" y="200.65929" xlink:href="#h"/>
  <use x="319.5874" y="200.65929" xlink:href="#s"/>
  <use x="323.39639" y="200.65929" xlink:href="#b"/>
  <use x="326.7569" y="200.65929" xlink:href="#i"/>
  <use x="329.8656" y="200.65929" xlink:href="#f"/>
  <use x="332.39108" y="200.65929" xlink:href="#a"/>
  <use x="335.69785" y="200.65929" xlink:href="#o"/>
 </g>
 <path d="m89.232 142.81c0-7.4336-19.906-13.457-44.465-13.457-24.555 0-44.465 6.0234-44.465 13.457 0 7.4297 19.91 13.453 44.465 13.453 24.559 0 44.465-6.0234 44.465-13.453z" fill="none" stroke="#000" stroke-miterlimit="10" stroke-width=".60492"/>
 <g transform="translate(-169.34 -115.88)" fill="#7f7f7f">
  <use x="207.21329" y="256.22418" xlink:href="#e"/>
  <use x="210.32199" y="256.22418" xlink:href="#i"/>
  <use x="213.43071" y="256.22418" xlink:href="#j"/>
  <use x="215.56761" y="256.22418" xlink:href="#a"/>
  <use x="219.06491" y="256.22418" xlink:href="#u"/>
 </g>
 <g transform="translate(-169.34 -115.88)">
  <use x="185.00145" y="264.54196" xlink:href="#k"/>
  <use x="189.46988" y="264.54196" xlink:href="#m"/>
  <use x="193.08287" y="264.54196" xlink:href="#e"/>
  <use x="196.19157" y="264.54196" xlink:href="#v"/>
  <use x="201.74683" y="264.54196" xlink:href="#c"/>
  <use x="203.41689" y="264.54196" xlink:href="#i"/>
  <use x="206.52559" y="264.54196" xlink:href="#b"/>
  <use x="209.88609" y="264.54196" xlink:href="#t"/>
  <use x="211.55615" y="264.54196" xlink:href="#k"/>
  <use x="216.02458" y="264.54196" xlink:href="#a"/>
  <use x="219.52188" y="264.54196" xlink:href="#v"/>
  <use x="225.07713" y="264.54196" xlink:href="#n"/>
  <use x="228.88748" y="264.54196" xlink:href="#a"/>
  <use x="232.38478" y="264.54196" xlink:href="#z"/>
  <use x="235.99777" y="264.54196" xlink:href="#h"/>
  <use x="239.60396" y="264.54196" xlink:href="#g"/>
 </g>
 <path d="m12.736 40.548h21.039v-10.629h-21.039z" fill="none" stroke="#000" stroke-dasharray="2.98883, 2.98883" stroke-miterlimit="10" stroke-width=".60492"/>
 <g transform="translate(-169.34 -115.88)">
  <use x="184.40791" y="152.77005" xlink:href="#d"/>
  <use x="187.08925" y="152.77005" xlink:href="#f"/>
  <use x="189.61473" y="152.77005" xlink:href="#o"/>
  <use x="192.0041" y="152.77005" xlink:href="#c"/>
  <use x="193.67416" y="152.77005" xlink:href="#h"/>
  <use x="197.28716" y="152.77005" xlink:href="#y"/>
 </g>
 <path d="m259.58 13.72c0-6.25-9.4805-11.32-21.172-11.32-11.695 0-21.172 5.0703-21.172 11.32 0 6.25 9.4766 11.316 21.172 11.316 11.691 0 21.172-5.0664 21.172-11.316z" fill="none" stroke="#000" stroke-dasharray="2.98883, 2.98883" stroke-miterlimit="10" stroke-width=".60492"/>
 <g transform="translate(-169.34 -115.88)" fill="#7f7f7f">
  <use x="400.50677" y="126.94693" xlink:href="#n"/>
  <use x="403.92242" y="126.94693" xlink:href="#o"/>
  <use x="406.3118" y="126.94693" xlink:href="#a"/>
  <use x="409.80911" y="126.94693" xlink:href="#p"/>
  <use x="413.03351" y="126.94693" xlink:href="#u"/>
 </g>
 <g transform="translate(-169.34 -115.88)">
  <use x="395.10355" y="135.26469" xlink:href="#w"/>
  <use x="398.91592" y="135.26469" xlink:href="#a"/>
  <use x="402.6106" y="135.26469" xlink:href="#i"/>
  <use x="405.7193" y="135.26469" xlink:href="#b"/>
  <use x="409.0798" y="135.26469" xlink:href="#f"/>
  <use x="411.60529" y="135.26469" xlink:href="#c"/>
  <use x="413.27533" y="135.26469" xlink:href="#a"/>
  <use x="416.77264" y="135.26469" xlink:href="#h"/>
 </g>
 <path d="m146.44 142.81c0-7.4336-6.9883-13.457-15.609-13.457-8.6172 0-15.605 6.0234-15.605 13.457 0 7.4297 6.9883 13.453 15.605 13.453 8.6211 0 15.609-6.0234 15.609-13.453z" fill="none" stroke="#000" stroke-miterlimit="10" stroke-width=".60492"/>
 <g transform="translate(-169.34 -115.88)" fill="#7f7f7f">
  <use x="293.27213" y="256.22418" xlink:href="#e"/>
  <use x="296.38083" y="256.22418" xlink:href="#i"/>
  <use x="299.48956" y="256.22418" xlink:href="#j"/>
  <use x="301.62643" y="256.22418" xlink:href="#a"/>
  <use x="305.12375" y="256.22418" xlink:href="#u"/>
 </g>
 <g transform="translate(-169.34 -115.88)">
  <use x="291.46573" y="264.54196" xlink:href="#x"/>
  <use x="295.35162" y="264.54196" xlink:href="#i"/>
  <use x="298.46033" y="264.54196" xlink:href="#a"/>
  <use x="301.95764" y="264.54196" xlink:href="#n"/>
  <use x="305.76117" y="264.54196" xlink:href="#e"/>
 </g>
 <path d="m36.306 78.263c0-7.4297-5.8398-13.457-13.051-13.457-7.207 0-13.051 6.0273-13.051 13.457 0 7.4336 5.8437 13.457 13.051 13.457 7.2109 0 13.051-6.0234 13.051-13.457z" fill="none" stroke="#000" stroke-miterlimit="10" stroke-width=".60492"/>
 <g transform="translate(-169.34 -115.88)" fill="#7f7f7f">
  <use x="185.69896" y="191.67967" xlink:href="#e"/>
  <use x="188.80766" y="191.67967" xlink:href="#i"/>
  <use x="191.91638" y="191.67967" xlink:href="#j"/>
  <use x="194.05327" y="191.67967" xlink:href="#a"/>
  <use x="197.55057" y="191.67967" xlink:href="#u"/>
 </g>
 <g transform="translate(-169.34 -115.88)">
  <use x="187.06969" y="199.99744" xlink:href="#l"/>
  <use x="191.26318" y="199.99744" xlink:href="#b"/>
  <use x="194.6237" y="199.99744" xlink:href="#y"/>
 </g>
 <path d="m274.04 78.263c0-6.9141-6.3203-12.52-14.121-12.52-7.7969 0-14.117 5.6055-14.117 12.52 0 6.9141 6.3203 12.52 14.117 12.52 7.8008 0 14.121-5.6055 14.121-12.52z" fill="none" stroke="#000" stroke-dasharray="2.98883, 2.98883" stroke-miterlimit="10" stroke-width=".60492"/>
 <g transform="translate(-169.34 -115.88)" fill="#7f7f7f">
  <use x="421.60443" y="192.34151" xlink:href="#ba"/>
  <use x="425.21744" y="192.34151" xlink:href="#z"/>
  <use x="428.83041" y="192.34151" xlink:href="#g"/>
  <use x="432.44342" y="192.34151" xlink:href="#f"/>
  <use x="434.9689" y="192.34151" xlink:href="#u"/>
 </g>
 <g transform="translate(-169.34 -115.88)">
  <use x="422.94861" y="200.65929" xlink:href="#az"/>
  <use x="427.75867" y="200.65929" xlink:href="#h"/>
  <use x="431.37167" y="200.65929" xlink:href="#c"/>
  <use x="433.04172" y="200.65929" xlink:href="#f"/>
 </g>
 <path d="m273.49 142.81c0-7.4024-15.707-13.402-35.082-13.402-19.379 0-35.086 6-35.086 13.402 0 7.3984 15.707 13.398 35.086 13.398 19.375 0 35.082-6 35.082-13.398z" fill="none" stroke="#000" stroke-dasharray="2.98883, 2.98883" stroke-miterlimit="10" stroke-width=".60492"/>
 <g transform="translate(-169.34 -115.88)" fill="#7f7f7f">
  <use x="400.34134" y="256.18396" xlink:href="#f"/>
  <use x="402.86682" y="256.18396" xlink:href="#c"/>
  <use x="404.53687" y="256.18396" xlink:href="#v"/>
  <use x="410.09213" y="256.18396" xlink:href="#e"/>
  <use x="413.20084" y="256.18396" xlink:href="#u"/>
 </g>
 <g transform="translate(-169.34 -115.88)">
  <use x="385.2655" y="264.50171" xlink:href="#l"/>
  <use x="389.45901" y="264.50171" xlink:href="#e"/>
  <use x="392.56772" y="264.50171" xlink:href="#v"/>
  <use x="398.12296" y="264.50171" xlink:href="#n"/>
  <use x="401.93332" y="264.50171" xlink:href="#a"/>
  <use x="405.23325" y="264.50171" xlink:href="#o"/>
  <use x="407.62265" y="264.50171" xlink:href="#b"/>
  <use x="410.98315" y="264.50171" xlink:href="#t"/>
  <use x="412.6532" y="264.50171" xlink:href="#r"/>
  <use x="416.85419" y="264.50171" xlink:href="#h"/>
  <use x="420.46716" y="264.50171" xlink:href="#f"/>
  <use x="422.99265" y="264.50171" xlink:href="#c"/>
  <use x="424.66269" y="264.50171" xlink:href="#f"/>
  <use x="426.99762" y="264.50171" xlink:href="#ay"/>
 </g>
 <path d="m146.27 13.72c0-7.4336-6.9141-13.457-15.441-13.457-8.5234 0-15.438 6.0234-15.438 13.457 0 7.4297 6.9141 13.453 15.438 13.453 8.5273 0 15.441-6.0234 15.441-13.453z" fill="none" stroke="#000" stroke-dasharray="2.98883, 2.98883" stroke-miterlimit="10" stroke-width=".60492"/>
 <g transform="translate(-169.34 -115.88)" fill="#7f7f7f">
  <use x="294.32257" y="127.13592" xlink:href="#a"/>
  <use x="297.62253" y="127.13592" xlink:href="#ax"/>
  <use x="302.40128" y="127.13592" xlink:href="#t"/>
  <use x="304.07132" y="127.13592" xlink:href="#u"/>
 </g>
 <g transform="translate(-169.34 -115.88)">
  <use x="291.58414" y="135.45369" xlink:href="#l"/>
  <use x="296.36288" y="135.45369" xlink:href="#m"/>
  <use x="299.97589" y="135.45369" xlink:href="#c"/>
  <use x="301.64594" y="135.45369" xlink:href="#h"/>
  <use x="305.25891" y="135.45369" xlink:href="#y"/>
 </g>
 <path d="m172.17 53.814h-1.1748l-20.297 12.179 0.31055 0.51709 21.161-12.696z" color="#000000" stroke-miterlimit="10" style="-inkscape-stroke:none"/>
 <path d="m220.66 24.013-17.956 10.774h1.1763l17.09-10.254-0.31054-0.52002z" color="#000000" stroke-miterlimit="10" style="-inkscape-stroke:none"/>
 <g transform="translate(-34.308 -.036029)">
  <path d="m258.07 22.537c-0.41796 0.12891-2.3164 0.57422-3.6445 0.61719l1.3828 2.3086c0.66406-1.1523 1.9531-2.6172 2.2617-2.9258z" stroke="#000" stroke-linejoin="round" stroke-miterlimit="10" stroke-width=".60491"/>
  <g transform="translate(-135.03,-115.84)">
   <use x="351.94736" y="157.71638" xlink:href="#m"/>
   <use x="355.56036" y="157.71638" xlink:href="#b"/>
   <use x="358.92087" y="157.71638" xlink:href="#d"/>
   <use x="329.64749" y="166.03415" xlink:href="#b"/>
   <use x="333.008" y="166.03415" xlink:href="#n"/>
   <use x="336.62097" y="166.03415" xlink:href="#n"/>
   <use x="340.23398" y="166.03415" xlink:href="#t"/>
   <use x="341.90402" y="166.03415" xlink:href="#c"/>
   <use x="343.57407" y="166.03415" xlink:href="#i"/>
   <use x="346.68277" y="166.03415" xlink:href="#b"/>
   <use x="350.0433" y="166.03415" xlink:href="#q"/>
   <use x="353.65628" y="166.03415" xlink:href="#t"/>
   <use x="355.32632" y="166.03415" xlink:href="#e"/>
   <use x="360.76248" y="166.03415" xlink:href="#t"/>
   <use x="362.43253" y="166.03415" xlink:href="#a"/>
   <use x="366.1272" y="166.03415" xlink:href="#i"/>
   <use x="369.2359" y="166.03415" xlink:href="#b"/>
   <use x="372.59641" y="166.03415" xlink:href="#f"/>
   <use x="375.12189" y="166.03415" xlink:href="#c"/>
   <use x="376.79193" y="166.03415" xlink:href="#a"/>
   <use x="380.28925" y="166.03415" xlink:href="#h"/>
  </g>
 </g>
 <path d="m131.13 119.58h-0.60498v5.7232h0.60498v-5.7232z" color="#000000" stroke-miterlimit="10" style="-inkscape-stroke:none"/>
 <path d="m130.53 91.088v9.4644h0.60498v-9.4644h-0.60498z" color="#000000" stroke-miterlimit="10" style="-inkscape-stroke:none"/>
 <g transform="translate(-34.308 -.036029)">
  <path d="m165.14 128.78c0.10546-0.42187 0.69921-2.2812 1.3476-3.4414h-2.6914c0.64843 1.1602 1.2422 3.0195 1.3438 3.4414z" stroke="#000" stroke-linejoin="round" stroke-miterlimit="10" stroke-width=".60492"/>
  <g transform="translate(-135.03,-115.84)">
   <use x="295.34189" y="223.48439" xlink:href="#m"/>
   <use x="298.9549" y="223.48439" xlink:href="#b"/>
   <use x="302.3154" y="223.48439" xlink:href="#d"/>
   <use x="292.06836" y="231.80139" xlink:href="#d"/>
   <use x="294.74969" y="231.80139" xlink:href="#i"/>
   <use x="297.8584" y="231.80139" xlink:href="#a"/>
   <use x="301.35571" y="231.80139" xlink:href="#n"/>
   <use x="305.15924" y="231.80139" xlink:href="#e"/>
  </g>
 </g>
 <path d="m62.271 78.567h11.341v-0.60645h-11.341v0.60645z" color="#000000" stroke-miterlimit="10" style="-inkscape-stroke:none"/>
 <path d="m47.955 77.96h-7.6011v0.60645h7.6011v-0.60645z" color="#000000" stroke-miterlimit="10" style="-inkscape-stroke:none"/>
 <g transform="translate(-34.308 -.036029)">
  <path d="m71.219 78.299c0.42188 0.10547 2.2812 0.69922 3.4414 1.3438v-2.6875c-1.1602 0.64453-3.0195 1.2383-3.4414 1.3438z" stroke="#000" stroke-linejoin="round" stroke-miterlimit="10" stroke-width=".60492"/>
  <g transform="translate(-135.03,-115.84)">
   <g transform="translate(219.62 191.68)">
    <path d="m3.0625-2.0156c0-0.51562-0.14062-1.0781-0.96875-1.0781-0.39062 0-0.75 0.17188-1 0.48438v-2.125h-0.54688v4.7344h0.57812v-1.6562c0-0.45312 0.17188-1 0.6875-1 0.6875 0 0.6875 0.48438 0.6875 0.6875v1.9688h0.5625z"/>
   </g>
   <g transform="translate(223.24 191.68)">
    <path d="m2.8125-1.9688c0-0.67188-0.5-1.1719-1.1719-1.1719-0.45312 0-0.78125 0.10938-1.1094 0.29688l0.046875 0.48438c0.34375-0.25 0.67188-0.35938 1.0469-0.35938 0.39062 0 0.60938 0.3125 0.60938 0.75v0.29688c-1.1719 0.015625-1.9375 0.32812-1.9375 0.875 0 0.32812 0.21875 0.875 0.8125 0.875 0.125 0 0.71875-0.015625 1.1562-0.34375v0.26562h0.54688zm-0.57812 1.0156c0 0.14062 0 0.3125-0.23438 0.45312-0.17188 0.10938-0.40625 0.125-0.53125 0.125-0.34375 0-0.64062-0.15625-0.64062-0.42188 0-0.48438 1.3281-0.51562 1.4062-0.51562z"/>
   </g>
   <g transform="translate(226.6 191.68)">
    <path d="m2.4062-2.9219c-0.42188-0.1875-0.73438-0.21875-1.0156-0.21875-0.15625 0-1.1562 0-1.1562 0.90625 0 0.3125 0.1875 0.53125 0.26562 0.59375 0.26562 0.23438 0.4375 0.26562 0.90625 0.35938 0.21875 0.03125 0.60938 0.10938 0.60938 0.45312 0 0.45312-0.5625 0.45312-0.64062 0.45312-0.40625 0-0.79688-0.14062-1.0938-0.34375l-0.078125 0.5c0.40625 0.21875 0.8125 0.29688 1.1719 0.29688 0.4375 0 1.1406-0.14062 1.1406-0.95312 0-0.25-0.09375-0.48438-0.32812-0.6875-0.23438-0.1875-0.4375-0.23438-0.85938-0.3125-0.25-0.046875-0.57812-0.10938-0.57812-0.4375 0-0.40625 0.46875-0.40625 0.57812-0.40625 0.5 0 0.79688 0.15625 0.98438 0.26562z"/>
   </g>
   <g transform="translate(219.76 200)">
    <path d="m1.2344-2.6094h0.98438v-0.42188h-0.98438v-0.85938h-0.5v0.85938h-0.60938v0.42188h0.57812v1.75c0 0.40625 0.09375 0.9375 0.59375 0.9375 0.29688 0 0.65625-0.0625 1.0312-0.25l-0.10938-0.4375c-0.1875 0.14062-0.42188 0.21875-0.625 0.21875-0.26562 0-0.35938-0.23438-0.35938-0.59375z"/>
   </g>
   <g transform="translate(222.28 200)">
    <path d="m2.8125-1.9688c0-0.67188-0.5-1.1719-1.1719-1.1719-0.45312 0-0.78125 0.10938-1.1094 0.29688l0.046875 0.48438c0.34375-0.25 0.67188-0.35938 1.0469-0.35938 0.39062 0 0.60938 0.3125 0.60938 0.75v0.29688c-1.1719 0.015625-1.9375 0.32812-1.9375 0.875 0 0.32812 0.21875 0.875 0.8125 0.875 0.125 0 0.71875-0.015625 1.1562-0.34375v0.26562h0.54688zm-0.57812 1.0156c0 0.14062 0 0.3125-0.23438 0.45312-0.17188 0.10938-0.40625 0.125-0.53125 0.125-0.34375 0-0.64062-0.15625-0.64062-0.42188 0-0.48438 1.3281-0.51562 1.4062-0.51562z"/>
   </g>
   <g transform="translate(225.64 200)">
    <path d="m3.3125-3.0938c-0.125 0-0.57812 0-1.0781 0.21875-0.10938-0.078125-0.35938-0.21875-0.6875-0.21875-0.625 0-1.125 0.5-1.125 1.1094 0 0.17188 0.046875 0.42188 0.23438 0.6875-0.125 0.17188-0.1875 0.375-0.1875 0.5625s0.0625 0.375 0.17188 0.51562c-0.35938 0.21875-0.4375 0.51562-0.4375 0.70312 0 0.5 0.65625 0.92188 1.5469 0.92188 0.875 0 1.5469-0.42188 1.5469-0.92188 0-0.95312-1.125-0.96875-1.4375-0.96875h-0.625c-0.078125 0-0.39062 0-0.39062-0.35938 0-0.125 0.03125-0.17188 0.0625-0.21875 0.1875 0.10938 0.42188 0.1875 0.64062 0.1875 0.64062 0 1.125-0.51562 1.125-1.1094 0-0.23438-0.0625-0.42188-0.17188-0.60938-0.03125-0.03125-0.03125-0.03125-0.03125-0.046875 0-0.03125 0.34375-0.03125 0.42188-0.03125 0.0625 0 0.3125 0 0.51562 0.03125zm-1.7656 1.8125c-0.3125 0-0.60938-0.20312-0.60938-0.70312 0-0.54688 0.34375-0.70312 0.60938-0.70312 0.3125 0 0.625 0.1875 0.625 0.70312 0 0.54688-0.34375 0.70312-0.625 0.70312zm0.3125 1.3125c0.15625 0 0.9375 0 0.9375 0.45312 0 0.29688-0.5 0.51562-1.0469 0.51562-0.53125 0-1.0469-0.20312-1.0469-0.51562 0-0.015625 0-0.45312 0.51562-0.45312z"/>
   </g>
  </g>
 </g>
 <path d="m235.32 67.444c2.9331 0.67454 5.9033 1.5766 8.9194 2.7158l0.21387-0.56689c-3.0856-1.1655-6.1284-2.0852-9.1333-2.7671v0.61816z" color="#000000" stroke-miterlimit="10" style="-inkscape-stroke:none"/>
 <path d="m198.51 71.377c-3.5758 1.8052-7.12 4.0183-10.644 6.6416l0.36182 0.48633c3.4096-2.5385 6.8326-4.6856 10.282-6.4512v-0.67676z" color="#000000" stroke-miterlimit="10" style="-inkscape-stroke:none"/>
 <g transform="translate(-34.308 -.036029)">
  <path d="m281.86 71.197c-0.34766-0.26172-1.8516-1.5156-2.7227-2.543-0.31641 0.83594-0.63282 1.6758-0.94922 2.5156 1.3047-0.1875 3.2461-0.03906 3.6719 0.02734z" stroke="#000" stroke-linejoin="round" stroke-miterlimit="10" stroke-width=".60492"/>
  <g transform="translate(-135.03,-115.84)">
   <g transform="translate(381.43 180.1)">
    <path d="m3.0625-2.0156c0-0.51562-0.14062-1.0781-0.96875-1.0781-0.39062 0-0.75 0.17188-1 0.48438v-2.125h-0.54688v4.7344h0.57812v-1.6562c0-0.45312 0.17188-1 0.6875-1 0.6875 0 0.6875 0.48438 0.6875 0.6875v1.9688h0.5625z"/>
   </g>
   <g transform="translate(385.04 180.1)">
    <path d="m2.8125-1.9688c0-0.67188-0.5-1.1719-1.1719-1.1719-0.45312 0-0.78125 0.10938-1.1094 0.29688l0.046875 0.48438c0.34375-0.25 0.67188-0.35938 1.0469-0.35938 0.39062 0 0.60938 0.3125 0.60938 0.75v0.29688c-1.1719 0.015625-1.9375 0.32812-1.9375 0.875 0 0.32812 0.21875 0.875 0.8125 0.875 0.125 0 0.71875-0.015625 1.1562-0.34375v0.26562h0.54688zm-0.57812 1.0156c0 0.14062 0 0.3125-0.23438 0.45312-0.17188 0.10938-0.40625 0.125-0.53125 0.125-0.34375 0-0.64062-0.15625-0.64062-0.42188 0-0.48438 1.3281-0.51562 1.4062-0.51562z"/>
   </g>
   <g transform="translate(388.4 180.1)">
    <path d="m2.4062-2.9219c-0.42188-0.1875-0.73438-0.21875-1.0156-0.21875-0.15625 0-1.1562 0-1.1562 0.90625 0 0.3125 0.1875 0.53125 0.26562 0.59375 0.26562 0.23438 0.4375 0.26562 0.90625 0.35938 0.21875 0.03125 0.60938 0.10938 0.60938 0.45312 0 0.45312-0.5625 0.45312-0.64062 0.45312-0.40625 0-0.79688-0.14062-1.0938-0.34375l-0.078125 0.5c0.40625 0.21875 0.8125 0.29688 1.1719 0.29688 0.4375 0 1.1406-0.14062 1.1406-0.95312 0-0.25-0.09375-0.48438-0.32812-0.6875-0.23438-0.1875-0.4375-0.23438-0.85938-0.3125-0.25-0.046875-0.57812-0.10938-0.57812-0.4375 0-0.40625 0.46875-0.40625 0.57812-0.40625 0.5 0 0.79688 0.15625 0.98438 0.26562z"/>
   </g>
   <g transform="translate(370.18 188.42)">
    <path d="m2.4062-2.9219c-0.42188-0.1875-0.73438-0.21875-1.0156-0.21875-0.15625 0-1.1562 0-1.1562 0.90625 0 0.3125 0.1875 0.53125 0.26562 0.59375 0.26562 0.23438 0.4375 0.26562 0.90625 0.35938 0.21875 0.03125 0.60938 0.10938 0.60938 0.45312 0 0.45312-0.5625 0.45312-0.64062 0.45312-0.40625 0-0.79688-0.14062-1.0938-0.34375l-0.078125 0.5c0.40625 0.21875 0.8125 0.29688 1.1719 0.29688 0.4375 0 1.1406-0.14062 1.1406-0.95312 0-0.25-0.09375-0.48438-0.32812-0.6875-0.23438-0.1875-0.4375-0.23438-0.85938-0.3125-0.25-0.046875-0.57812-0.10938-0.57812-0.4375 0-0.40625 0.46875-0.40625 0.57812-0.40625 0.5 0 0.79688 0.15625 0.98438 0.26562z"/>
   </g>
   <g transform="translate(372.86 188.42)">
    <path d="m3.2969-1.5c0-0.89062-0.6875-1.6406-1.5469-1.6406-0.84375 0-1.5469 0.73438-1.5469 1.6406s0.71875 1.5781 1.5469 1.5781c0.84375 0 1.5469-0.6875 1.5469-1.5781zm-1.5469 1.1094c-0.53125 0-0.98438-0.40625-0.98438-1.1719 0-0.79688 0.51562-1.1406 0.98438-1.1406 0.48438 0 0.96875 0.35938 0.96875 1.1406s-0.46875 1.1719-0.96875 1.1719z"/>
   </g>
   <g transform="translate(376.36 188.42)">
    <path d="m3.0625-3.0312h-0.5625v1.9688c0 0.54688-0.4375 0.73438-0.84375 0.73438-0.48438 0-0.53125-0.15625-0.53125-0.45312v-2.25h-0.57812v2.2812c0 0.59375 0.23438 0.82812 0.71875 0.82812 0.39062 0 0.92188-0.125 1.25-0.40625v0.32812h0.54688z"/>
   </g>
   <g transform="translate(379.97 188.42)">
    <path d="m1.1094-1.4531c0-0.71875 0.5625-1.1562 1.1719-1.1562v-0.48438c-0.48438 0-0.9375 0.25-1.2188 0.64062v-0.60938h-0.5v3.0625h0.54688z"/>
   </g>
   <g transform="translate(382.36 188.42)">
    <path d="m2.875-0.73438c-0.32812 0.21875-0.6875 0.34375-1.1094 0.34375-0.57812 0-0.95312-0.48438-0.95312-1.125 0-0.53125 0.25-1.1562 0.98438-1.1562 0.4375 0 0.65625 0.078125 0.98438 0.3125l0.09375-0.48438c-0.375-0.21875-0.59375-0.29688-1.0781-0.29688-0.96875 0-1.5469 0.8125-1.5469 1.625 0 0.84375 0.625 1.5938 1.5156 1.5938 0.46875 0 0.84375-0.14062 1.1406-0.32812z"/>
   </g>
   <g transform="translate(385.47 188.42)">
    <path d="m2.9062-1.4844c0-0.21875 0-0.73438-0.26562-1.1406-0.29688-0.4375-0.71875-0.51562-0.98438-0.51562-0.79688 0-1.4219 0.73438-1.4219 1.5938 0 0.90625 0.67188 1.625 1.5156 1.625 0.32812 0 0.73438-0.078125 1.125-0.34375l-0.046875-0.46875c-0.42188 0.3125-0.82812 0.35938-1.0625 0.35938-0.5625 0-1-0.48438-1.0156-1.1094zm-2.125-0.40625c0.10938-0.4375 0.4375-0.8125 0.875-0.8125 0.25 0 0.71875 0.125 0.84375 0.8125z"/>
   </g>
   <g transform="translate(390.9 188.42)">
    <path d="m3.0625-3.0312h-0.5625v1.9688c0 0.54688-0.4375 0.73438-0.84375 0.73438-0.48438 0-0.53125-0.15625-0.53125-0.45312v-2.25h-0.57812v2.2812c0 0.59375 0.23438 0.82812 0.71875 0.82812 0.39062 0 0.92188-0.125 1.25-0.40625v0.32812h0.54688z"/>
   </g>
   <g transform="translate(394.52 188.42)">
    <path d="m3.0625-2.0156c0-0.51562-0.14062-1.0781-0.96875-1.0781-0.53125 0-0.85938 0.3125-1.0156 0.51562v-0.48438h-0.53125v3.0625h0.57812v-1.6562c0-0.45312 0.17188-1 0.6875-1 0.6875 0 0.6875 0.48438 0.6875 0.6875v1.9688h0.5625z"/>
   </g>
   <g transform="translate(398.13 188.42)">
    <path d="m1.1562-4.6562h-0.65625v0.65625h0.65625zm-0.046875 1.625h-0.54688v3.0312h0.54688z"/>
   </g>
   <g transform="translate(399.8 188.42)">
    <path d="m1.2344-2.6094h0.98438v-0.42188h-0.98438v-0.85938h-0.5v0.85938h-0.60938v0.42188h0.57812v1.75c0 0.40625 0.09375 0.9375 0.59375 0.9375 0.29688 0 0.65625-0.0625 1.0312-0.25l-0.10938-0.4375c-0.1875 0.14062-0.42188 0.21875-0.625 0.21875-0.26562 0-0.35938-0.23438-0.35938-0.59375z"/>
   </g>
  </g>
 </g>
 <path d="m234.73 89.222v0.61377c3.1992-0.69247 6.4406-1.6567 9.731-2.8989l-0.21387-0.56543c-3.2212 1.2161-6.3902 2.1645-9.5171 2.8506z" color="#000000" stroke-miterlimit="10" style="-inkscape-stroke:none"/>
 <path d="m188.23 78.019-0.36182 0.48633c3.7166 2.767 7.4571 5.0715 11.232 6.9287v-0.66943c-3.6482-1.8197-7.2672-4.0628-10.871-6.7456z" color="#000000" stroke-miterlimit="10" style="-inkscape-stroke:none"/>
 <g transform="translate(-34.308 -.036029)">
  <path d="m281.86 85.4c-0.42579 0.06641-2.3672 0.21875-3.6719 0.03125 0.3164 0.83594 0.63281 1.6758 0.94922 2.5156 0.87109-1.0312 2.375-2.2852 2.7227-2.5469z" stroke="#000" stroke-linejoin="round" stroke-miterlimit="10" stroke-width=".60492"/>
  <g transform="translate(-135.03,-115.84)">
   <g transform="translate(381.43 203.92)">
    <path d="m3.0625-2.0156c0-0.51562-0.14062-1.0781-0.96875-1.0781-0.39062 0-0.75 0.17188-1 0.48438v-2.125h-0.54688v4.7344h0.57812v-1.6562c0-0.45312 0.17188-1 0.6875-1 0.6875 0 0.6875 0.48438 0.6875 0.6875v1.9688h0.5625z"/>
   </g>
   <g transform="translate(385.04 203.92)">
    <path d="m2.8125-1.9688c0-0.67188-0.5-1.1719-1.1719-1.1719-0.45312 0-0.78125 0.10938-1.1094 0.29688l0.046875 0.48438c0.34375-0.25 0.67188-0.35938 1.0469-0.35938 0.39062 0 0.60938 0.3125 0.60938 0.75v0.29688c-1.1719 0.015625-1.9375 0.32812-1.9375 0.875 0 0.32812 0.21875 0.875 0.8125 0.875 0.125 0 0.71875-0.015625 1.1562-0.34375v0.26562h0.54688zm-0.57812 1.0156c0 0.14062 0 0.3125-0.23438 0.45312-0.17188 0.10938-0.40625 0.125-0.53125 0.125-0.34375 0-0.64062-0.15625-0.64062-0.42188 0-0.48438 1.3281-0.51562 1.4062-0.51562z"/>
   </g>
   <g transform="translate(388.4 203.92)">
    <path d="m2.4062-2.9219c-0.42188-0.1875-0.73438-0.21875-1.0156-0.21875-0.15625 0-1.1562 0-1.1562 0.90625 0 0.3125 0.1875 0.53125 0.26562 0.59375 0.26562 0.23438 0.4375 0.26562 0.90625 0.35938 0.21875 0.03125 0.60938 0.10938 0.60938 0.45312 0 0.45312-0.5625 0.45312-0.64062 0.45312-0.40625 0-0.79688-0.14062-1.0938-0.34375l-0.078125 0.5c0.40625 0.21875 0.8125 0.29688 1.1719 0.29688 0.4375 0 1.1406-0.14062 1.1406-0.95312 0-0.25-0.09375-0.48438-0.32812-0.6875-0.23438-0.1875-0.4375-0.23438-0.85938-0.3125-0.25-0.046875-0.57812-0.10938-0.57812-0.4375 0-0.40625 0.46875-0.40625 0.57812-0.40625 0.5 0 0.79688 0.15625 0.98438 0.26562z"/>
   </g>
   <g transform="translate(370.77 212.24)">
    <path d="m1.2344-2.6094h0.98438v-0.42188h-0.98438v-0.85938h-0.5v0.85938h-0.60938v0.42188h0.57812v1.75c0 0.40625 0.09375 0.9375 0.59375 0.9375 0.29688 0 0.65625-0.0625 1.0312-0.25l-0.10938-0.4375c-0.1875 0.14062-0.42188 0.21875-0.625 0.21875-0.26562 0-0.35938-0.23438-0.35938-0.59375z"/>
   </g>
   <g transform="translate(373.3 212.24)">
    <path d="m2.8125-1.9688c0-0.67188-0.5-1.1719-1.1719-1.1719-0.45312 0-0.78125 0.10938-1.1094 0.29688l0.046875 0.48438c0.34375-0.25 0.67188-0.35938 1.0469-0.35938 0.39062 0 0.60938 0.3125 0.60938 0.75v0.29688c-1.1719 0.015625-1.9375 0.32812-1.9375 0.875 0 0.32812 0.21875 0.875 0.8125 0.875 0.125 0 0.71875-0.015625 1.1562-0.34375v0.26562h0.54688zm-0.57812 1.0156c0 0.14062 0 0.3125-0.23438 0.45312-0.17188 0.10938-0.40625 0.125-0.53125 0.125-0.34375 0-0.64062-0.15625-0.64062-0.42188 0-0.48438 1.3281-0.51562 1.4062-0.51562z"/>
   </g>
   <g transform="translate(376.46 212.24)">
    <path d="m1.1094-1.4531c0-0.71875 0.5625-1.1562 1.1719-1.1562v-0.48438c-0.48438 0-0.9375 0.25-1.2188 0.64062v-0.60938h-0.5v3.0625h0.54688z"/>
   </g>
   <g transform="translate(378.85 212.24)">
    <path d="m3.3125-3.0938c-0.125 0-0.57812 0-1.0781 0.21875-0.10938-0.078125-0.35938-0.21875-0.6875-0.21875-0.625 0-1.125 0.5-1.125 1.1094 0 0.17188 0.046875 0.42188 0.23438 0.6875-0.125 0.17188-0.1875 0.375-0.1875 0.5625s0.0625 0.375 0.17188 0.51562c-0.35938 0.21875-0.4375 0.51562-0.4375 0.70312 0 0.5 0.65625 0.92188 1.5469 0.92188 0.875 0 1.5469-0.42188 1.5469-0.92188 0-0.95312-1.125-0.96875-1.4375-0.96875h-0.625c-0.078125 0-0.39062 0-0.39062-0.35938 0-0.125 0.03125-0.17188 0.0625-0.21875 0.1875 0.10938 0.42188 0.1875 0.64062 0.1875 0.64062 0 1.125-0.51562 1.125-1.1094 0-0.23438-0.0625-0.42188-0.17188-0.60938-0.03125-0.03125-0.03125-0.03125-0.03125-0.046875 0-0.03125 0.34375-0.03125 0.42188-0.03125 0.0625 0 0.3125 0 0.51562 0.03125zm-1.7656 1.8125c-0.3125 0-0.60938-0.20312-0.60938-0.70312 0-0.54688 0.34375-0.70312 0.60938-0.70312 0.3125 0 0.625 0.1875 0.625 0.70312 0 0.54688-0.34375 0.70312-0.625 0.70312zm0.3125 1.3125c0.15625 0 0.9375 0 0.9375 0.45312 0 0.29688-0.5 0.51562-1.0469 0.51562-0.53125 0-1.0469-0.20312-1.0469-0.51562 0-0.015625 0-0.45312 0.51562-0.45312z"/>
   </g>
   <g transform="translate(382.35 212.24)">
    <path d="m2.9062-1.4844c0-0.21875 0-0.73438-0.26562-1.1406-0.29688-0.4375-0.71875-0.51562-0.98438-0.51562-0.79688 0-1.4219 0.73438-1.4219 1.5938 0 0.90625 0.67188 1.625 1.5156 1.625 0.32812 0 0.73438-0.078125 1.125-0.34375l-0.046875-0.46875c-0.42188 0.3125-0.82812 0.35938-1.0625 0.35938-0.5625 0-1-0.48438-1.0156-1.1094zm-2.125-0.40625c0.10938-0.4375 0.4375-0.8125 0.875-0.8125 0.25 0 0.71875 0.125 0.84375 0.8125z"/>
   </g>
   <g transform="translate(385.45 212.24)">
    <path d="m1.2344-2.6094h0.98438v-0.42188h-0.98438v-0.85938h-0.5v0.85938h-0.60938v0.42188h0.57812v1.75c0 0.40625 0.09375 0.9375 0.59375 0.9375 0.29688 0 0.65625-0.0625 1.0312-0.25l-0.10938-0.4375c-0.1875 0.14062-0.42188 0.21875-0.625 0.21875-0.26562 0-0.35938-0.23438-0.35938-0.59375z"/>
   </g>
   <g transform="translate(390.31 212.24)">
    <path d="m3.0625-3.0312h-0.5625v1.9688c0 0.54688-0.4375 0.73438-0.84375 0.73438-0.48438 0-0.53125-0.15625-0.53125-0.45312v-2.25h-0.57812v2.2812c0 0.59375 0.23438 0.82812 0.71875 0.82812 0.39062 0 0.92188-0.125 1.25-0.40625v0.32812h0.54688z"/>
   </g>
   <g transform="translate(393.93 212.24)">
    <path d="m3.0625-2.0156c0-0.51562-0.14062-1.0781-0.96875-1.0781-0.53125 0-0.85938 0.3125-1.0156 0.51562v-0.48438h-0.53125v3.0625h0.57812v-1.6562c0-0.45312 0.17188-1 0.6875-1 0.6875 0 0.6875 0.48438 0.6875 0.6875v1.9688h0.5625z"/>
   </g>
   <g transform="translate(397.54 212.24)">
    <path d="m1.1562-4.6562h-0.65625v0.65625h0.65625zm-0.046875 1.625h-0.54688v3.0312h0.54688z"/>
   </g>
   <g transform="translate(399.21 212.24)">
    <path d="m1.2344-2.6094h0.98438v-0.42188h-0.98438v-0.85938h-0.5v0.85938h-0.60938v0.42188h0.57812v1.75c0 0.40625 0.09375 0.9375 0.59375 0.9375 0.29688 0 0.65625-0.0625 1.0312-0.25l-0.10938-0.4375c-0.1875 0.14062-0.42188 0.21875-0.625 0.21875-0.26562 0-0.35938-0.23438-0.35938-0.59375z"/>
   </g>
  </g>
 </g>
 <path d="m201.49 120.3h-1.1763l15.541 9.3237 0.31201-0.51856-14.676-8.8052z" color="#000000" stroke-miterlimit="10" style="-inkscape-stroke:none"/>
 <path d="m151.01 90.016-0.31055 0.51856 17.899 10.739h1.1748l-18.763-11.257z" color="#000000" stroke-miterlimit="10" style="-inkscape-stroke:none"/>
 <g transform="translate(-34.308 -.036029)">
  <path d="m253.27 131.18c-0.3086-0.3086-1.5938-1.7734-2.2578-2.9258l-1.3828 2.3086c1.3281 0.043 3.2266 0.48828 3.6406 0.61719z" stroke="#000" stroke-linejoin="round" stroke-miterlimit="10" stroke-width=".60491"/>
  <g transform="translate(-135.03,-115.84)">
   <use x="349.5444" y="224.20163" xlink:href="#m"/>
   <use x="353.15741" y="224.20163" xlink:href="#b"/>
   <use x="356.51791" y="224.20163" xlink:href="#d"/>
   <use x="329.67328" y="232.51941" xlink:href="#b"/>
   <use x="333.03381" y="232.51941" xlink:href="#n"/>
   <use x="336.64679" y="232.51941" xlink:href="#n"/>
   <use x="340.2598" y="232.51941" xlink:href="#t"/>
   <use x="341.92984" y="232.51941" xlink:href="#c"/>
   <use x="343.59988" y="232.51941" xlink:href="#i"/>
   <use x="346.70859" y="232.51941" xlink:href="#b"/>
   <use x="350.06909" y="232.51941" xlink:href="#q"/>
   <use x="353.6821" y="232.51941" xlink:href="#t"/>
   <use x="355.35214" y="232.51941" xlink:href="#e"/>
   <use x="360.7883" y="232.51941" xlink:href="#n"/>
   <use x="364.59863" y="232.51941" xlink:href="#e"/>
   <use x="367.70737" y="232.51941" xlink:href="#o"/>
   <use x="370.09674" y="232.51941" xlink:href="#c"/>
   <use x="371.76678" y="232.51941" xlink:href="#a"/>
   <use x="375.45462" y="232.51941" xlink:href="#g"/>
  </g>
 </g>
 <path d="m75.907 119.83h-1.0063l-10.343 7.7578 0.36328 0.48193 10.986-8.2398z" color="#000000" stroke-miterlimit="10" style="-inkscape-stroke:none"/>
 <path d="m114.27 90.306-13.995 10.497h1.0078l13.351-10.014-0.36328-0.4834z" color="#000000" stroke-miterlimit="10" style="-inkscape-stroke:none"/>
 <g transform="translate(-34.308 -.036029)">
  <path d="m96.294 129.93c0.40234-0.16797 2.2422-0.8086 3.5586-0.98828l-1.6133-2.1524c-0.53906 1.2148-1.668 2.8047-1.9453 3.1406z" stroke="#000" stroke-linejoin="round" stroke-miterlimit="10" stroke-width=".6049"/>
  <g transform="translate(-135.03,-115.84)">
   <use x="252.60924" y="223.72954" xlink:href="#m"/>
   <use x="256.22223" y="223.72954" xlink:href="#b"/>
   <use x="259.58273" y="223.72954" xlink:href="#d"/>
   <use x="235.42647" y="232.04732" xlink:href="#e"/>
   <use x="238.53517" y="232.04732" xlink:href="#v"/>
   <use x="244.09042" y="232.04732" xlink:href="#c"/>
   <use x="245.76048" y="232.04732" xlink:href="#d"/>
   <use x="248.4418" y="232.04732" xlink:href="#d"/>
   <use x="251.12314" y="232.04732" xlink:href="#c"/>
   <use x="252.79318" y="232.04732" xlink:href="#a"/>
   <use x="256.2905" y="232.04732" xlink:href="#h"/>
   <use x="262.23093" y="232.04732" xlink:href="#f"/>
   <use x="264.75641" y="232.04732" xlink:href="#b"/>
   <use x="267.92636" y="232.04732" xlink:href="#o"/>
   <use x="270.31573" y="232.04732" xlink:href="#y"/>
   <use x="273.81305" y="232.04732" xlink:href="#e"/>
   <use x="276.92175" y="232.04732" xlink:href="#f"/>
  </g>
 </g>
 <path d="m91.419 62.169h-1.6245l12.962 5.1855 0.22559-0.55957-11.563-4.626z" color="#000000" stroke-miterlimit="10" style="-inkscape-stroke:none"/>
 <path d="m37.666 40.666-0.22412 0.56104 8.0889 3.2358h1.626l-9.4907-3.7969z" color="#000000" stroke-miterlimit="10" style="-inkscape-stroke:none"/>
 <g transform="translate(-34.308 -.036029)">
  <path d="m68.669 39.705c0.35156 0.25391 1.8555 1.4961 2.6953 2.5273l0.9961-2.5c-1.3164 0.17187-3.2617 0.03125-3.6914-0.02735z" stroke="#000" stroke-linejoin="round" stroke-miterlimit="10" stroke-width=".60489"/>
  <g transform="translate(-135.03,-115.84)">
   <use x="232.98555" y="167.39502" xlink:href="#m"/>
   <use x="236.59854" y="167.39502" xlink:href="#b"/>
   <use x="239.95906" y="167.39502" xlink:href="#d"/>
   <use x="211.55016" y="175.71204" xlink:href="#b"/>
   <use x="214.91066" y="175.71204" xlink:href="#g"/>
   <use x="218.52365" y="175.71204" xlink:href="#g"/>
   <use x="222.13664" y="175.71204" xlink:href="#c"/>
   <use x="223.8067" y="175.71204" xlink:href="#f"/>
   <use x="226.33218" y="175.71204" xlink:href="#c"/>
   <use x="228.00223" y="175.71204" xlink:href="#a"/>
   <use x="231.49953" y="175.71204" xlink:href="#h"/>
   <use x="235.11252" y="175.71204" xlink:href="#b"/>
   <use x="238.47304" y="175.71204" xlink:href="#t"/>
   <use x="242.47054" y="175.71204" xlink:href="#i"/>
   <use x="245.57924" y="175.71204" xlink:href="#a"/>
   <use x="249.07654" y="175.71204" xlink:href="#h"/>
   <use x="252.68953" y="175.71204" xlink:href="#f"/>
   <use x="255.21501" y="175.71204" xlink:href="#e"/>
   <use x="258.32373" y="175.71204" xlink:href="#aw"/>
   <use x="261.54813" y="175.71204" xlink:href="#f"/>
  </g>
 </g>
 <path d="m131.13 55.314h-0.60498v10.129h0.60498v-10.129z" color="#000000" stroke-miterlimit="10" style="-inkscape-stroke:none"/>
 <path d="m130.53 31.22v6.3867h0.60498v-6.3867h-0.60498z" color="#000000" stroke-miterlimit="10" style="-inkscape-stroke:none"/>
 <g transform="translate(-34.308 -.036029)">
  <path d="m165.14 27.815c-0.10157 0.42188-0.69532 2.2812-1.3438 3.4414h2.6914c-0.64844-1.1602-1.2422-3.0195-1.3476-3.4414z" stroke="#000" stroke-linejoin="round" stroke-miterlimit="10" stroke-width=".60492"/>
  <g transform="translate(-135.03,-115.84)">
   <g transform="translate(295.34 160.54)">
    <path d="m3.0625-2.0156c0-0.51562-0.14062-1.0781-0.96875-1.0781-0.39062 0-0.75 0.17188-1 0.48438v-2.125h-0.54688v4.7344h0.57812v-1.6562c0-0.45312 0.17188-1 0.6875-1 0.6875 0 0.6875 0.48438 0.6875 0.6875v1.9688h0.5625z"/>
   </g>
   <g transform="translate(298.95 160.54)">
    <path d="m2.8125-1.9688c0-0.67188-0.5-1.1719-1.1719-1.1719-0.45312 0-0.78125 0.10938-1.1094 0.29688l0.046875 0.48438c0.34375-0.25 0.67188-0.35938 1.0469-0.35938 0.39062 0 0.60938 0.3125 0.60938 0.75v0.29688c-1.1719 0.015625-1.9375 0.32812-1.9375 0.875 0 0.32812 0.21875 0.875 0.8125 0.875 0.125 0 0.71875-0.015625 1.1562-0.34375v0.26562h0.54688zm-0.57812 1.0156c0 0.14062 0 0.3125-0.23438 0.45312-0.17188 0.10938-0.40625 0.125-0.53125 0.125-0.34375 0-0.64062-0.15625-0.64062-0.42188 0-0.48438 1.3281-0.51562 1.4062-0.51562z"/>
   </g>
   <g transform="translate(302.32 160.54)">
    <path d="m2.4062-2.9219c-0.42188-0.1875-0.73438-0.21875-1.0156-0.21875-0.15625 0-1.1562 0-1.1562 0.90625 0 0.3125 0.1875 0.53125 0.26562 0.59375 0.26562 0.23438 0.4375 0.26562 0.90625 0.35938 0.21875 0.03125 0.60938 0.10938 0.60938 0.45312 0 0.45312-0.5625 0.45312-0.64062 0.45312-0.40625 0-0.79688-0.14062-1.0938-0.34375l-0.078125 0.5c0.40625 0.21875 0.8125 0.29688 1.1719 0.29688 0.4375 0 1.1406-0.14062 1.1406-0.95312 0-0.25-0.09375-0.48438-0.32812-0.6875-0.23438-0.1875-0.4375-0.23438-0.85938-0.3125-0.25-0.046875-0.57812-0.10938-0.57812-0.4375 0-0.40625 0.46875-0.40625 0.57812-0.40625 0.5 0 0.79688 0.15625 0.98438 0.26562z"/>
   </g>
   <g transform="translate(277.57 168.86)">
    <path d="m2.9062-1.4844c0-0.21875 0-0.73438-0.26562-1.1406-0.29688-0.4375-0.71875-0.51562-0.98438-0.51562-0.79688 0-1.4219 0.73438-1.4219 1.5938 0 0.90625 0.67188 1.625 1.5156 1.625 0.32812 0 0.73438-0.078125 1.125-0.34375l-0.046875-0.46875c-0.42188 0.3125-0.82812 0.35938-1.0625 0.35938-0.5625 0-1-0.48438-1.0156-1.1094zm-2.125-0.40625c0.10938-0.4375 0.4375-0.8125 0.875-0.8125 0.25 0 0.71875 0.125 0.84375 0.8125z"/>
   </g>
   <g transform="translate(280.68 168.86)">
    <path d="m5-2.0156c0-0.51562-0.14062-1.0781-0.95312-1.0781-0.57812 0-0.90625 0.34375-1.0625 0.54688-0.046875-0.125-0.1875-0.54688-0.89062-0.54688-0.53125 0-0.85938 0.3125-1.0156 0.51562v-0.48438h-0.53125v3.0625h0.57812v-1.6562c0-0.45312 0.17188-1 0.6875-1 0.6875 0 0.6875 0.48438 0.6875 0.6875v1.9688h0.5625v-1.6562c0-0.45312 0.17188-1 0.6875-1 0.6875 0 0.6875 0.48438 0.6875 0.6875v1.9688h0.5625z"/>
   </g>
   <g transform="translate(286.23 168.86)">
    <path d="m1.1562-4.6562h-0.65625v0.65625h0.65625zm-0.046875 1.625h-0.54688v3.0312h0.54688z"/>
   </g>
   <g transform="translate(287.9 168.86)">
    <path d="m2.4062-2.9219c-0.42188-0.1875-0.73438-0.21875-1.0156-0.21875-0.15625 0-1.1562 0-1.1562 0.90625 0 0.3125 0.1875 0.53125 0.26562 0.59375 0.26562 0.23438 0.4375 0.26562 0.90625 0.35938 0.21875 0.03125 0.60938 0.10938 0.60938 0.45312 0 0.45312-0.5625 0.45312-0.64062 0.45312-0.40625 0-0.79688-0.14062-1.0938-0.34375l-0.078125 0.5c0.40625 0.21875 0.8125 0.29688 1.1719 0.29688 0.4375 0 1.1406-0.14062 1.1406-0.95312 0-0.25-0.09375-0.48438-0.32812-0.6875-0.23438-0.1875-0.4375-0.23438-0.85938-0.3125-0.25-0.046875-0.57812-0.10938-0.57812-0.4375 0-0.40625 0.46875-0.40625 0.57812-0.40625 0.5 0 0.79688 0.15625 0.98438 0.26562z"/>
   </g>
   <g transform="translate(290.58 168.86)">
    <path d="m2.4062-2.9219c-0.42188-0.1875-0.73438-0.21875-1.0156-0.21875-0.15625 0-1.1562 0-1.1562 0.90625 0 0.3125 0.1875 0.53125 0.26562 0.59375 0.26562 0.23438 0.4375 0.26562 0.90625 0.35938 0.21875 0.03125 0.60938 0.10938 0.60938 0.45312 0 0.45312-0.5625 0.45312-0.64062 0.45312-0.40625 0-0.79688-0.14062-1.0938-0.34375l-0.078125 0.5c0.40625 0.21875 0.8125 0.29688 1.1719 0.29688 0.4375 0 1.1406-0.14062 1.1406-0.95312 0-0.25-0.09375-0.48438-0.32812-0.6875-0.23438-0.1875-0.4375-0.23438-0.85938-0.3125-0.25-0.046875-0.57812-0.10938-0.57812-0.4375 0-0.40625 0.46875-0.40625 0.57812-0.40625 0.5 0 0.79688 0.15625 0.98438 0.26562z"/>
   </g>
   <g transform="translate(293.26 168.86)">
    <path d="m1.1562-4.6562h-0.65625v0.65625h0.65625zm-0.046875 1.625h-0.54688v3.0312h0.54688z"/>
   </g>
   <g transform="translate(294.93 168.86)">
    <path d="m3.2969-1.5c0-0.89062-0.6875-1.6406-1.5469-1.6406-0.84375 0-1.5469 0.73438-1.5469 1.6406s0.71875 1.5781 1.5469 1.5781c0.84375 0 1.5469-0.6875 1.5469-1.5781zm-1.5469 1.1094c-0.53125 0-0.98438-0.40625-0.98438-1.1719 0-0.79688 0.51562-1.1406 0.98438-1.1406 0.48438 0 0.96875 0.35938 0.96875 1.1406s-0.46875 1.1719-0.96875 1.1719z"/>
   </g>
   <g transform="translate(298.43 168.86)">
    <path d="m3.0625-2.0156c0-0.51562-0.14062-1.0781-0.96875-1.0781-0.53125 0-0.85938 0.3125-1.0156 0.51562v-0.48438h-0.53125v3.0625h0.57812v-1.6562c0-0.45312 0.17188-1 0.6875-1 0.6875 0 0.6875 0.48438 0.6875 0.6875v1.9688h0.5625z"/>
   </g>
   <g transform="translate(304.37 168.86)">
    <path d="m2.4062-2.9219c-0.42188-0.1875-0.73438-0.21875-1.0156-0.21875-0.15625 0-1.1562 0-1.1562 0.90625 0 0.3125 0.1875 0.53125 0.26562 0.59375 0.26562 0.23438 0.4375 0.26562 0.90625 0.35938 0.21875 0.03125 0.60938 0.10938 0.60938 0.45312 0 0.45312-0.5625 0.45312-0.64062 0.45312-0.40625 0-0.79688-0.14062-1.0938-0.34375l-0.078125 0.5c0.40625 0.21875 0.8125 0.29688 1.1719 0.29688 0.4375 0 1.1406-0.14062 1.1406-0.95312 0-0.25-0.09375-0.48438-0.32812-0.6875-0.23438-0.1875-0.4375-0.23438-0.85938-0.3125-0.25-0.046875-0.57812-0.10938-0.57812-0.4375 0-0.40625 0.46875-0.40625 0.57812-0.40625 0.5 0 0.79688 0.15625 0.98438 0.26562z"/>
   </g>
   <g transform="translate(307.05 168.86)">
    <path d="m3.2969-1.5c0-0.89062-0.6875-1.6406-1.5469-1.6406-0.84375 0-1.5469 0.73438-1.5469 1.6406s0.71875 1.5781 1.5469 1.5781c0.84375 0 1.5469-0.6875 1.5469-1.5781zm-1.5469 1.1094c-0.53125 0-0.98438-0.40625-0.98438-1.1719 0-0.79688 0.51562-1.1406 0.98438-1.1406 0.48438 0 0.96875 0.35938 0.96875 1.1406s-0.46875 1.1719-0.96875 1.1719z"/>
   </g>
   <g transform="translate(310.55 168.86)">
    <path d="m3.0625-3.0312h-0.5625v1.9688c0 0.54688-0.4375 0.73438-0.84375 0.73438-0.48438 0-0.53125-0.15625-0.53125-0.45312v-2.25h-0.57812v2.2812c0 0.59375 0.23438 0.82812 0.71875 0.82812 0.39062 0 0.92188-0.125 1.25-0.40625v0.32812h0.54688z"/>
   </g>
   <g transform="translate(314.16 168.86)">
    <path d="m1.1094-1.4531c0-0.71875 0.5625-1.1562 1.1719-1.1562v-0.48438c-0.48438 0-0.9375 0.25-1.2188 0.64062v-0.60938h-0.5v3.0625h0.54688z"/>
   </g>
   <g transform="translate(316.55 168.86)">
    <path d="m2.875-0.73438c-0.32812 0.21875-0.6875 0.34375-1.1094 0.34375-0.57812 0-0.95312-0.48438-0.95312-1.125 0-0.53125 0.25-1.1562 0.98438-1.1562 0.4375 0 0.65625 0.078125 0.98438 0.3125l0.09375-0.48438c-0.375-0.21875-0.59375-0.29688-1.0781-0.29688-0.96875 0-1.5469 0.8125-1.5469 1.625 0 0.84375 0.625 1.5938 1.5156 1.5938 0.46875 0 0.84375-0.14062 1.1406-0.32812z"/>
   </g>
   <g transform="translate(319.66 168.86)">
    <path d="m2.9062-1.4844c0-0.21875 0-0.73438-0.26562-1.1406-0.29688-0.4375-0.71875-0.51562-0.98438-0.51562-0.79688 0-1.4219 0.73438-1.4219 1.5938 0 0.90625 0.67188 1.625 1.5156 1.625 0.32812 0 0.73438-0.078125 1.125-0.34375l-0.046875-0.46875c-0.42188 0.3125-0.82812 0.35938-1.0625 0.35938-0.5625 0-1-0.48438-1.0156-1.1094zm-2.125-0.40625c0.10938-0.4375 0.4375-0.8125 0.875-0.8125 0.25 0 0.71875 0.125 0.84375 0.8125z"/>
   </g>
  </g>
 </g>
</svg>
