<?xml version="1.0" encoding="UTF-8"?>
<svg width="345.05pt" height="201.28pt" version="1.1" viewBox="0 0 345.05 201.28" xmlns="http://www.w3.org/2000/svg" xmlns:xlink="http://www.w3.org/1999/xlink">
 <defs>
  <g id="aq">
   <path d="m1.7656-0.48438c0-0.26562-0.21875-0.48438-0.48438-0.48438-0.28125 0-0.48438 0.21875-0.48438 0.48438s0.20312 0.48438 0.48438 0.48438c0.26562 0 0.48438-0.21875 0.48438-0.48438z"/>
  </g>
  <g id="q">
   <path d="m3.0625-0.64062c0.046875 0.375 0.3125 0.6875 0.70312 0.6875 0.21875 0 0.78125-0.125 0.78125-0.84375v-0.5h-0.25v0.48438c0 0.10938 0 0.54688-0.32812 0.54688-0.3125 0-0.3125-0.42188-0.3125-0.5625v-1.5781c0-0.51562 0-0.8125-0.40625-1.1875-0.32812-0.29688-0.76562-0.42188-1.2188-0.42188-0.75 0-1.375 0.375-1.375 0.95312 0 0.26562 0.1875 0.42188 0.42188 0.42188s0.40625-0.17188 0.40625-0.40625c0-0.39062-0.39062-0.4375-0.40625-0.4375 0.25-0.23438 0.6875-0.3125 0.9375-0.3125 0.45312 0 0.96875 0.34375 0.96875 1.1406v0.28125c-0.48438 0.03125-1.1562 0.0625-1.75 0.35938-0.65625 0.3125-0.84375 0.78125-0.84375 1.1406 0 0.73438 0.85938 0.96875 1.4688 0.96875 0.73438 0 1.0781-0.48438 1.2031-0.73438zm-0.078125-0.625c0 0.875-0.67188 1.1406-1.0625 1.1406-0.42188 0-0.8125-0.3125-0.8125-0.75 0-0.59375 0.5-1.2188 1.875-1.2812z"/>
  </g>
  <g id="w">
   <path d="m1.5938-2.0469c0-0.375 0.09375-1.6875 1.125-1.6875-0.015625 0.015625-0.15625 0.125-0.15625 0.32812 0 0.25 0.1875 0.40625 0.39062 0.40625 0.1875 0 0.39062-0.14062 0.39062-0.40625 0-0.28125-0.26562-0.5625-0.67188-0.5625-0.53125 0-0.90625 0.375-1.125 0.9375v-0.9375l-1.2812 0.10938v0.26562c0.60938 0 0.6875 0.0625 0.6875 0.51562v2.3906c0 0.40625-0.09375 0.40625-0.6875 0.40625v0.28125c0.48438-0.015625 0.59375-0.03125 1.0469-0.03125 0.35938 0 0.57812 0.015625 1.1406 0.03125v-0.28125h-0.17188c-0.65625 0-0.6875-0.09375-0.6875-0.42188z"/>
  </g>
  <g id="j">
   <path d="m4.3438-1.9062c0-1.1719-0.9375-2.1094-2.0312-2.1094-1.1406 0-2.0469 0.95312-2.0469 2.1094 0 1.1094 0.92188 2 2.0312 2 1.1406 0 2.0469-0.90625 2.0469-2zm-2.0312 1.75c-0.45312 0-0.82812-0.21875-1.0312-0.5625-0.23438-0.39062-0.25-0.85938-0.25-1.2656 0-0.34375 0-0.84375 0.21875-1.2188 0.28125-0.45312 0.71875-0.59375 1.0469-0.59375 0.51562 0 0.875 0.29688 1.0625 0.59375 0.20312 0.375 0.20312 0.82812 0.20312 1.2188 0 0.32812 0 0.84375-0.21875 1.2344-0.25 0.42188-0.65625 0.59375-1.0312 0.59375z"/>
  </g>
  <g id="p">
   <path d="m1.6562-3.9688-1.2969 0.10938v0.26562c0.57812 0 0.65625 0.0625 0.65625 0.5v2.4062c0 0.40625-0.09375 0.40625-0.6875 0.40625v0.28125c0.39062-0.015625 0.59375-0.03125 0.98438-0.03125 0.14062 0 0.51562 0 0.95312 0.03125v-0.28125c-0.57812 0-0.60938-0.046875-0.60938-0.39062zm0.015625-1.5625c0-0.26562-0.20312-0.48438-0.48438-0.48438-0.26562 0-0.48438 0.23438-0.48438 0.48438 0 0.26562 0.21875 0.48438 0.48438 0.48438 0.28125 0 0.48438-0.20312 0.48438-0.48438z"/>
  </g>
  <g id="al">
   <path d="m3.2656-3.5312c-0.1875 0.046875-0.375 0.17188-0.375 0.42188 0 0.23438 0.1875 0.42188 0.42188 0.42188s0.42188-0.15625 0.42188-0.4375c0-0.54688-0.625-0.89062-1.4219-0.89062-1.1406 0-2 0.95312-2 2.0781 0 1.1562 0.92188 2.0312 1.9844 2.0312 1.25 0 1.5312-1.0781 1.5312-1.1562 0-0.10938-0.09375-0.10938-0.125-0.10938-0.09375 0-0.09375 0.015625-0.15625 0.17188-0.20312 0.60938-0.70312 0.84375-1.1562 0.84375-0.57812 0-1.3125-0.46875-1.3125-1.7969 0-1.3906 0.71875-1.8125 1.25-1.8125 0.125 0 0.60938 0.015625 0.9375 0.23438z"/>
  </g>
  <g id="g">
   <path d="m3.5938-2.0469c0.1875 0 0.23438 0 0.23438-0.20312 0-0.92188-0.5-1.7656-1.6562-1.7656-1.0625 0-1.9062 0.9375-1.9062 2.0469 0 1.1719 0.9375 2.0625 2.0312 2.0625s1.5312-0.95312 1.5312-1.1562c0-0.0625-0.046875-0.125-0.125-0.125-0.09375 0-0.10938 0.0625-0.125 0.10938-0.29688 0.90625-1.1094 0.92188-1.2344 0.92188-0.4375 0-0.79688-0.23438-1-0.54688-0.29688-0.4375-0.3125-0.96875-0.3125-1.3438zm-2.5469-0.21875c0.078125-1.3906 0.875-1.5312 1.125-1.5312 0.5 0 1.0312 0.375 1.0469 1.5312z"/>
  </g>
  <g id="s">
   <path d="m2.9219-3.5938v-0.26562h-1.3125v-1.6562h-0.25c0 0.75-0.3125 1.6719-1.1875 1.7031v0.21875h0.78125v2.4844c0 1 0.71875 1.2031 1.2031 1.2031 0.59375 0 0.90625-0.5625 0.90625-1.2031v-0.51562h-0.25v0.48438c0 0.67188-0.28125 0.98438-0.59375 0.98438-0.60938 0-0.60938-0.78125-0.60938-0.95312v-2.4844z"/>
  </g>
  <g id="l">
   <path d="m1.6562-6.2188-1.3281 0.09375v0.28125c0.60938 0 0.6875 0.0625 0.6875 0.5v4.6562c0 0.40625-0.09375 0.40625-0.6875 0.40625v0.28125c0.42188-0.015625 0.59375-0.03125 1-0.03125 0.42188 0 0.57812 0.015625 1.0156 0.03125v-0.28125c-0.59375 0-0.6875 0-0.6875-0.40625z"/>
  </g>
  <g id="bs">
   <path d="m6.1406-6.0781h-5.625l-0.1875 2.0312h0.25c0.125-1.4844 0.3125-1.75 1.6562-1.75 0.17188 0 0.42188 0 0.51562 0.015625 0.17188 0.046875 0.17188 0.125 0.17188 0.35938v4.7031c0 0.3125 0 0.4375-0.9375 0.4375h-0.35938v0.28125c0.32812-0.03125 1.3125-0.03125 1.7031-0.03125s1.375 0 1.6875 0.03125v-0.28125h-0.34375c-0.9375 0-0.9375-0.125-0.9375-0.4375v-4.7031c0-0.23438 0-0.3125 0.1875-0.35938 0.09375-0.015625 0.32812-0.015625 0.48438-0.015625 1.3594 0 1.5312 0.26562 1.6562 1.75h0.25z"/>
  </g>
  <g id="ak">
   <path d="m1.6406-6.2188-1.3281 0.09375v0.28125c0.60938 0 0.6875 0.0625 0.6875 0.5v4.6562c0 0.40625-0.09375 0.40625-0.6875 0.40625v0.28125c0.42188-0.015625 0.59375-0.03125 1.0312-0.03125 0.42188 0 0.54688 0.015625 1.0156 0.03125v-0.28125c-0.59375 0-0.6875 0-0.6875-0.40625v-1.6406c0-0.95312 0.67188-1.4062 1.2344-1.4062 0.53125 0 0.64062 0.4375 0.64062 0.96875v2.0781c0 0.40625-0.09375 0.40625-0.6875 0.40625v0.28125c0.42188-0.015625 0.59375-0.03125 1.0312-0.03125 0.42188 0 0.54688 0.015625 1.0156 0.03125v-0.28125c-0.45312 0-0.6875 0-0.6875-0.28125v-1.7188c0-0.73438 0-1-0.25-1.3125-0.20312-0.25-0.54688-0.375-1-0.375-0.59375 0-1.0469 0.3125-1.3125 0.82812h-0.015625z"/>
  </g>
  <g id="br">
   <path d="m1.6719-2.3281c0-0.96875 0.70312-1.4062 1.2344-1.4062 0.5 0 0.65625 0.34375 0.65625 0.96875v2.0781c0 0.40625-0.09375 0.40625-0.6875 0.40625v0.28125c0.42188-0.015625 0.59375-0.03125 1.0156-0.03125 0.4375 0 0.54688 0.015625 1.0312 0.03125v-0.28125c-0.59375 0-0.70312 0-0.70312-0.40625v-1.6406c0-0.96875 0.70312-1.4062 1.25-1.4062 0.48438 0 0.64062 0.34375 0.64062 0.96875v2.0781c0 0.40625-0.09375 0.40625-0.6875 0.40625v0.28125c0.42188-0.015625 0.59375-0.03125 1.0312-0.03125 0.42188 0 0.54688 0.015625 1.0156 0.03125v-0.28125c-0.45312 0-0.67188 0-0.6875-0.28125v-1.7188c0-0.78125 0-1.0312-0.29688-1.3594-0.1875-0.21875-0.54688-0.32812-0.95312-0.32812-0.65625 0-1.0938 0.375-1.3438 0.85938-0.10938-0.53125-0.46875-0.85938-1.2188-0.85938-0.71875 0-1.1562 0.46875-1.3438 0.89062h-0.015625v-0.89062l-1.2969 0.10938v0.26562c0.60938 0 0.6875 0.0625 0.6875 0.51562v2.3906c0 0.40625-0.09375 0.40625-0.6875 0.40625v0.28125c0.42188-0.015625 0.59375-0.03125 1.0312-0.03125 0.42188 0 0.54688 0.015625 1.0156 0.03125v-0.28125c-0.59375 0-0.6875 0-0.6875-0.40625z"/>
  </g>
  <g id="r">
   <path d="m1.6719-2.3281c0-0.95312 0.67188-1.4062 1.2344-1.4062 0.53125 0 0.64062 0.4375 0.64062 0.96875v2.0781c0 0.40625-0.09375 0.40625-0.6875 0.40625v0.28125c0.42188-0.015625 0.59375-0.03125 1.0312-0.03125 0.42188 0 0.54688 0.015625 1.0156 0.03125v-0.28125c-0.45312 0-0.6875 0-0.6875-0.28125v-1.7188c0-0.73438 0-1-0.25-1.3125-0.20312-0.25-0.54688-0.375-1-0.375-0.82812 0-1.2188 0.625-1.3438 0.875h-0.015625v-0.875l-1.2969 0.10938v0.26562c0.60938 0 0.6875 0.0625 0.6875 0.51562v2.3906c0 0.40625-0.09375 0.40625-0.6875 0.40625v0.28125c0.42188-0.015625 0.59375-0.03125 1.0312-0.03125 0.42188 0 0.54688 0.015625 1.0156 0.03125v-0.28125c-0.59375 0-0.6875 0-0.6875-0.40625z"/>
  </g>
  <g id="k">
   <path d="m3.0781-3.7812c0-0.15625 0-0.23438-0.09375-0.23438-0.046875 0-0.0625 0-0.1875 0.10938-0.015625 0.015625-0.09375 0.09375-0.15625 0.14062-0.26562-0.20312-0.54688-0.25-0.85938-0.25-1.1875 0-1.4688 0.65625-1.4688 1.1094 0 0.28125 0.125 0.51562 0.32812 0.71875 0.29688 0.28125 0.64062 0.34375 1.0938 0.42188 0.46875 0.09375 0.60938 0.10938 0.8125 0.26562 0.09375 0.078125 0.3125 0.25 0.3125 0.57812 0 0.79688-0.90625 0.79688-1.0312 0.79688-0.90625 0-1.1406-0.76562-1.25-1.25-0.03125-0.09375-0.046875-0.14062-0.14062-0.14062-0.125 0-0.125 0.078125-0.125 0.23438v1.1406c0 0.15625 0 0.23438 0.09375 0.23438 0.0625 0 0.0625 0 0.23438-0.17188 0.03125-0.0625 0.125-0.17188 0.17188-0.21875 0.375 0.375 0.79688 0.39062 1.0156 0.39062 1.1094 0 1.4844-0.64062 1.4844-1.2344 0-0.40625-0.17188-0.65625-0.375-0.85938-0.29688-0.29688-0.625-0.35938-1.2812-0.48438-0.23438-0.046875-0.89062-0.15625-0.89062-0.67188 0-0.28125 0.20312-0.67188 1.0156-0.67188 0.96875 0 1.0312 0.75 1.0469 0.96875 0.015625 0.10938 0.015625 0.17188 0.125 0.17188 0.125 0 0.125-0.0625 0.125-0.23438z"/>
  </g>
  <g id="bq">
   <path d="m2.6875-3.5938v-0.26562h-1.0625v-1.0156c0-0.8125 0.4375-1.2188 0.82812-1.2188 0.078125 0 0.17188 0.015625 0.26562 0.046875-0.09375 0.03125-0.23438 0.14062-0.23438 0.375s0.17188 0.39062 0.39062 0.39062c0.25 0 0.40625-0.17188 0.40625-0.40625 0-0.34375-0.34375-0.64062-0.82812-0.64062-0.70312 0-1.4375 0.53125-1.4375 1.4375v1.0312h-0.70312v0.26562h0.70312v2.9062c0 0.40625-0.09375 0.40625-0.6875 0.40625v0.28125c0.46875-0.015625 0.59375-0.03125 1.0469-0.03125 0.35938 0 0.57812 0.015625 1.1406 0.03125v-0.28125h-0.1875c-0.65625 0-0.67188-0.09375-0.67188-0.42188v-2.8906z"/>
  </g>
  <g id="bp">
   <path d="m5.5-6.0938h-5.1562v0.26562h0.20312c0.6875 0 0.70312 0.10938 0.70312 0.4375v4.6875c0 0.32812-0.015625 0.42188-0.70312 0.42188h-0.20312v0.28125h5.2656l0.39062-2.3125h-0.25c-0.21875 1.3906-0.45312 2.0312-1.9844 2.0312h-1.2656c-0.42188 0-0.4375-0.0625-0.4375-0.35938v-2.3906h0.82812c0.89062 0 1 0.28125 1 1.0469h0.25v-2.375h-0.25c0 0.76562-0.10938 1.0469-1 1.0469h-0.82812v-2.1406c0-0.3125 0.015625-0.375 0.4375-0.375h1.2031c1.4062 0 1.6562 0.48438 1.7969 1.75h0.25z"/>
  </g>
  <g id="bo">
   <path d="m5.4219-5.5469c-0.28125-0.28125-0.79688-0.78125-1.7031-0.78125-1.7344 0-3.2031 1.4531-3.2031 3.2656 0 1.8438 1.4844 3.2656 3.2031 3.2656 1.4844 0 2.4219-1.2344 2.4219-2.2812 0-0.09375 0-0.17188-0.125-0.17188s-0.125 0.0625-0.125 0.14062c-0.078125 1.3594-1.1562 2.0312-2.0781 2.0312-0.76562 0-2.3906-0.48438-2.3906-2.9844s1.6406-2.9844 2.375-2.9844c0.89062 0 1.8281 0.67188 2.0469 2.125 0.015625 0.125 0.03125 0.15625 0.14062 0.15625 0.15625 0 0.15625-0.03125 0.15625-0.21875v-2.1094c0-0.15625 0-0.23438-0.10938-0.23438-0.0625 0-0.09375 0.03125-0.14062 0.10938z"/>
  </g>
  <g id="ar">
   <path d="m5.375-6.0938h-5.0312v0.26562h0.20312c0.6875 0 0.70312 0.10938 0.70312 0.4375v4.6875c0 0.32812-0.015625 0.42188-0.70312 0.42188h-0.20312v0.28125c0.40625-0.03125 0.95312-0.03125 1.375-0.03125 0.35938 0 1.1719 0 1.4844 0.03125v-0.28125h-0.28125c-0.82812 0-0.85938-0.10938-0.85938-0.4375v-2.2031h0.8125c0.85938 0 0.96875 0.29688 0.96875 1.0625h0.25v-2.3906h-0.25c0 0.76562-0.10938 1.0625-0.96875 1.0625h-0.8125v-2.2656c0-0.3125 0.015625-0.375 0.4375-0.375h1.125c1.375 0 1.6094 0.51562 1.75 1.75h0.25z"/>
  </g>
  <g id="bn">
   <path d="m6.6406-3.0469c0-1.8281-1.3906-3.2812-3.0625-3.2812s-3.0625 1.4688-3.0625 3.2812c0 1.8281 1.3906 3.25 3.0625 3.25s3.0625-1.4219 3.0625-3.25zm-3.0625 2.9688c-0.90625 0-2.1562-0.78125-2.1562-3.0938 0-2.1875 1.2812-2.9062 2.1562-2.9062s2.1562 0.71875 2.1562 2.9062c0 2.3125-1.25 3.0938-2.1562 3.0938z"/>
  </g>
  <g id="ac">
   <path d="m1.125-1.6094c0.21875 0.14062 0.5 0.28125 0.90625 0.28125 0.85938 0 1.5-0.60938 1.5-1.3125 0-0.4375-0.25-0.75-0.35938-0.875 0.35938-0.32812 0.78125-0.32812 0.875-0.32812-0.03125 0.03125-0.10938 0.078125-0.10938 0.23438 0 0.10938 0.0625 0.26562 0.26562 0.26562 0.125 0 0.26562-0.078125 0.26562-0.26562 0-0.17188-0.125-0.45312-0.48438-0.45312-0.25 0-0.65625 0.09375-0.96875 0.42188-0.25-0.20312-0.59375-0.32812-0.96875-0.32812-0.85938 0-1.5 0.60938-1.5 1.3281 0 0.45312 0.26562 0.78125 0.40625 0.90625-0.015625 0.015625-0.26562 0.32812-0.26562 0.75 0 0.29688 0.14062 0.625 0.39062 0.78125-0.45312 0.15625-0.8125 0.48438-0.8125 0.90625 0 0.64062 0.875 1.1406 2.0312 1.1406 1.1094 0 2.0469-0.46875 2.0469-1.1562 0-0.375-0.17188-0.76562-0.5-0.98438-0.5-0.3125-1.0312-0.3125-1.875-0.3125-0.1875 0-0.46875 0-0.54688-0.015625-0.25-0.0625-0.42188-0.29688-0.42188-0.57812 0-0.15625 0.046875-0.28125 0.125-0.40625zm0.90625 0.046875c-0.79688 0-0.79688-0.89062-0.79688-1.0781 0-0.25 0.015625-0.54688 0.17188-0.76562 0.14062-0.1875 0.375-0.3125 0.625-0.3125 0.8125 0 0.8125 0.85938 0.8125 1.0781 0 0.20312 0 1.0781-0.8125 1.0781zm0.42188 1.5156c0.28125 0 1.3906 0.015625 1.3906 0.73438 0 0.51562-0.70312 0.92188-1.5312 0.92188-0.89062 0-1.5469-0.42188-1.5469-0.92188 0-0.14062 0.09375-0.73438 0.85938-0.73438z"/>
  </g>
  <g id="aj">
   <path d="m1.625-3.1719c-0.046875-0.125-0.046875-0.17188-0.046875-0.1875 0-0.23438 0.3125-0.23438 0.5-0.23438v-0.26562c-0.45312 0.015625-0.625 0.015625-1 0.015625-0.03125 0-0.54688 0-0.89062-0.015625v0.26562c0.40625 0 0.57812 0.03125 0.6875 0.26562l1.4062 3.3281-0.21875 0.53125c-0.20312 0.46875-0.45312 1.0781-1.0469 1.0781-0.21875 0-0.375-0.10938-0.39062-0.125 0.0625-0.015625 0.3125-0.078125 0.3125-0.39062 0-0.23438-0.17188-0.375-0.375-0.375-0.21875 0-0.39062 0.14062-0.39062 0.39062 0 0.39062 0.39062 0.73438 0.84375 0.73438 0.59375 0 0.96875-0.53125 1.1875-1.0156l1.625-3.7969c0.09375-0.23438 0.26562-0.59375 0.82812-0.625v-0.26562c-0.28125 0.015625-0.5625 0.015625-0.67188 0.015625-0.25 0-0.53125 0-0.78125-0.015625v0.26562c0.40625 0.03125 0.40625 0.34375 0.40625 0.39062 0 0.09375-0.03125 0.1875-0.0625 0.25l-0.90625 2.1406z"/>
  </g>
  <g id="bm">
   <path d="m5.3594-2.3125h-0.25c-0.09375 0.90625-0.21875 2.0312-1.8281 2.0312h-0.78125c-0.42188 0-0.4375-0.0625-0.4375-0.35938v-4.7656c0-0.32812 0.03125-0.4375 0.85938-0.4375h0.28125v-0.28125c-0.3125 0.03125-1.125 0.03125-1.4844 0.03125-0.42188 0-0.96875 0-1.375-0.03125v0.28125h0.20312c0.6875 0 0.70312 0.09375 0.70312 0.42188v4.7188c0 0.32812-0.015625 0.42188-0.70312 0.42188h-0.20312v0.28125h4.7656z"/>
  </g>
  <g id="x">
   <path d="m3.4844-1.0781c0 0.15625 0 0.1875-0.125 0.375-0.28125 0.40625-0.70312 0.57812-1.0469 0.57812-0.39062 0-0.75-0.21875-0.98438-0.59375-0.23438-0.39062-0.25-0.90625-0.25-1.2031 0-0.42188 0.046875-0.89062 0.28125-1.25 0.20312-0.29688 0.5625-0.5625 1.0469-0.5625 0.375 0 0.73438 0.1875 0.96875 0.53125 0.10938 0.14062 0.10938 0.14062 0.10938 0.3125zm0.03125-2.3594c-0.046875-0.046875-0.45312-0.53125-1.1406-0.53125-1.1094 0-2.0625 0.89062-2.0625 2.0469 0 1.1094 0.89062 2.0156 1.9531 2.0156 0.65625 0 1.0625-0.375 1.2188-0.5625v0.5625l1.3594-0.09375v-0.28125c-0.60938 0-0.6875-0.0625-0.6875-0.5v-5.4375l-1.3281 0.09375v0.28125c0.60938 0 0.6875 0.0625 0.6875 0.5z"/>
  </g>
  <g id="bl">
   <path d="m1.7656-3.375c0-0.28125-0.21875-0.48438-0.48438-0.48438-0.28125 0-0.48438 0.20312-0.48438 0.48438 0 0.25 0.20312 0.48438 0.48438 0.48438 0.26562 0 0.48438-0.23438 0.48438-0.48438zm0 2.8906c0-0.26562-0.21875-0.48438-0.48438-0.48438-0.28125 0-0.48438 0.21875-0.48438 0.48438s0.20312 0.48438 0.48438 0.48438c0.26562 0 0.48438-0.21875 0.48438-0.48438z"/>
  </g>
  <g id="ab">
   <path d="m1.625-3.0156c0.29688-0.51562 0.79688-0.70312 1.1719-0.70312 0.70312 0 1.2344 0.8125 1.2344 1.7812 0 1.0156-0.60938 1.8125-1.3281 1.8125-0.40625 0-0.75-0.23438-0.96875-0.54688-0.10938-0.1875-0.10938-0.20312-0.10938-0.375zm0 2.5781c0.23438 0.23438 0.53125 0.53125 1.125 0.53125 1.0781 0 2.0625-0.85938 2.0625-2.0312 0-1.125-0.89062-2.0312-1.9375-2.0312-0.48438 0-0.9375 0.20312-1.2812 0.5625v-0.5625l-1.3281 0.10938v0.26562c0.64062 0 0.6875 0.0625 0.6875 0.45312v4.1875c0 0.42188-0.09375 0.42188-0.6875 0.42188v0.26562c0.42188-0.015625 0.59375-0.015625 1.0312-0.015625 0.42188 0 0.54688 0 1.0156 0.015625v-0.26562c-0.59375 0-0.6875 0-0.6875-0.42188z"/>
  </g>
  <g id="bk">
   <path d="m3.5469-1.5c0 0.79688-0.4375 1.375-1.0938 1.375-0.73438 0-0.78125-0.39062-0.78125-0.875v-2.9688l-1.3594 0.10938v0.26562c0.6875 0 0.6875 0.03125 0.6875 0.82812v1.3438c0 0.59375 0 0.96875 0.42188 1.2812 0.25 0.17188 0.625 0.23438 0.98438 0.23438 0.46875 0 0.90625-0.20312 1.1562-0.73438h0.015625v0.73438l1.3281-0.09375v-0.28125c-0.60938 0-0.6875-0.0625-0.6875-0.5v-3.1875l-1.3594 0.10938v0.26562c0.60938 0 0.6875 0.0625 0.6875 0.51562z"/>
  </g>
  <g id="bj">
   <path d="m2.5625-1.6562v-0.5625h-2.4688v0.5625z"/>
  </g>
  <g id="ai">
   <path d="m1.625-0.14062c0 0.29688 0 1.0312-0.67188 1.6719-0.03125 0.046875-0.03125 0.078125-0.03125 0.09375 0 0.046875 0.046875 0.10938 0.10938 0.10938 0.09375 0 0.82812-0.6875 0.82812-1.75 0-0.625-0.23438-0.95312-0.57812-0.95312-0.32812 0-0.48438 0.25-0.48438 0.48438 0 0.25 0.15625 0.48438 0.48438 0.48438 0.21875 0 0.34375-0.14062 0.34375-0.14062z"/>
  </g>
  <g id="bi">
   <path d="m2.7344-2.0156c-0.0625-0.078125-0.0625-0.09375-0.0625-0.09375 0-0.03125 0.70312-0.875 0.76562-0.95312 0.28125-0.29688 0.59375-0.51562 1.1406-0.53125v-0.26562c-0.26562 0.015625-0.5 0.015625-0.76562 0.015625-0.34375 0-0.5 0-0.85938-0.015625v0.26562c0.125 0.03125 0.25 0.09375 0.25 0.28125 0 0.14062-0.078125 0.23438-0.125 0.29688l-0.57812 0.70312-0.70312-0.89062c-0.0625-0.078125-0.078125-0.09375-0.078125-0.15625 0-0.10938 0.10938-0.21875 0.3125-0.23438v-0.26562c-0.34375 0.015625-0.57812 0.015625-0.98438 0.015625-0.015625 0-0.53125 0-0.875-0.015625v0.26562c0.625 0 0.64062 0.03125 1.0469 0.54688l0.92188 1.1562c-0.1875 0.23438-0.67188 0.82812-0.85938 1.0625-0.45312 0.53125-0.96875 0.54688-1.1562 0.54688v0.28125c0.26562-0.03125 0.5-0.03125 0.76562-0.03125 0.28125 0 0.57812 0.015625 0.85938 0.03125v-0.28125c-0.21875-0.03125-0.25-0.17188-0.25-0.26562 0-0.03125 0-0.15625 0.125-0.3125 0.21875-0.28125 0.45312-0.54688 0.6875-0.8125l0.70312 0.90625c0.17188 0.1875 0.17188 0.20312 0.17188 0.26562 0 0.09375-0.09375 0.21875-0.3125 0.21875v0.28125c0.375-0.015625 0.59375-0.03125 0.98438-0.03125 0.015625 0 0.53125 0 0.875 0.03125v-0.28125c-0.35938 0-0.625 0-0.82812-0.25z"/>
  </g>
  <g id="bh">
   <path d="m2.0469-3.1719v-2.3125c0-0.23438 0.03125-0.3125 0.20312-0.34375 0.078125-0.015625 0.35938-0.015625 0.54688-0.015625 0.76562 0 1.9062 0 1.9062 1.3281 0 0.78125-0.39062 1.3438-1.6094 1.3438zm2.0312 0.125c0.84375-0.23438 1.5469-0.76562 1.5469-1.4688 0-0.89062-1.0938-1.6094-2.4062-1.6094h-2.8594v0.28125h0.20312c0.6875 0 0.71875 0.09375 0.71875 0.42188v4.7188c0 0.32812-0.03125 0.42188-0.71875 0.42188h-0.20312v0.28125c0.42188-0.03125 0.875-0.03125 1.2969-0.03125 0.4375 0 0.875 0 1.3125 0.03125v-0.28125h-0.20312c-0.6875 0-0.71875-0.09375-0.71875-0.42188v-2.25h1.0781c0.65625 0 0.9375 0.34375 0.96875 0.375 0.28125 0.32812 0.28125 0.46875 0.28125 1.1094 0 0.59375 0 1 0.42188 1.3281 0.42188 0.34375 0.96875 0.34375 1.0625 0.34375 0.75 0 0.89062-0.78125 0.89062-1 0-0.0625 0-0.15625-0.125-0.15625s-0.125 0.078125-0.125 0.14062c-0.046875 0.57812-0.32812 0.78125-0.60938 0.78125s-0.39062-0.17188-0.45312-0.32812c-0.078125-0.20312-0.15625-0.8125-0.21875-1.2031-0.078125-0.5625-0.15625-1.1562-1.1406-1.4844z"/>
  </g>
  <g id="bg">
   <path d="m0.5625-5.8438c0.6875 0 0.71875 0.09375 0.71875 0.42188v4.7188c0 0.32812-0.03125 0.42188-0.71875 0.42188h-0.20312v0.28125h3.3281c1.5625 0 2.8281-1.3281 2.8281-3.0156 0-1.7031-1.2344-3.1094-2.8281-3.1094h-3.3281v0.28125zm1.9375 5.5625c-0.42188 0-0.45312-0.0625-0.45312-0.35938v-4.8438c0-0.29688 0.03125-0.35938 0.45312-0.35938h0.95312c0.875 0 1.4062 0.45312 1.6562 0.78125 0.39062 0.51562 0.51562 1.1562 0.51562 2.0469 0 0.375 0 1.3125-0.48438 1.9375-0.46875 0.60938-1.1094 0.79688-1.6719 0.79688z"/>
  </g>
  <g id="bf">
   <path d="m2.0312-3.75c-0.71875-0.17188-0.95312-0.75-0.95312-1.1406 0-0.60938 0.48438-1.1875 1.25-1.1875 1.1562 0 1.625 0.875 1.75 1.7656 0.015625 0.17188 0.03125 0.21875 0.14062 0.21875 0.125 0 0.125-0.0625 0.125-0.25v-1.7344c0-0.17188 0-0.25-0.10938-0.25-0.0625 0-0.078125 0.015625-0.14062 0.125-0.10938 0.15625-0.015625 0.046875-0.3125 0.51562-0.15625-0.1875-0.625-0.64062-1.4688-0.64062-1.0469 0-1.7969 0.82812-1.7969 1.7344 0 0.70312 0.42188 1.125 0.46875 1.1719 0.39062 0.40625 0.5625 0.4375 1.625 0.70312 0.73438 0.15625 0.8125 0.1875 1.1094 0.48438 0 0.015625 0.3125 0.34375 0.3125 0.875 0 0.60938-0.4375 1.2812-1.2656 1.2812-0.6875 0-1.9375-0.29688-2-1.7656-0.015625-0.14062-0.015625-0.1875-0.125-0.1875-0.125 0-0.125 0.0625-0.125 0.25v1.7344c0 0.17188 0 0.25 0.10938 0.25 0.0625 0 0.0625-0.015625 0.125-0.125 0.125-0.15625 0.03125-0.046875 0.32812-0.51562 0.54688 0.54688 1.2656 0.64062 1.7031 0.64062 1.0938 0 1.8125-0.90625 1.8125-1.8594 0-0.51562-0.1875-0.90625-0.39062-1.1719-0.39062-0.5-0.79688-0.59375-1.375-0.73438z"/>
  </g>
  <g id="be">
   <path d="m5.7188-3c0.1875-0.54688 0.5625-0.57812 0.75-0.59375v-0.26562c-0.35938 0.015625-0.375 0.015625-0.67188 0.015625-0.34375 0-0.46875 0-0.82812-0.015625v0.26562c0.39062 0.015625 0.51562 0.25 0.51562 0.4375 0 0.09375-0.015625 0.14062-0.046875 0.20312l-0.82812 2.25-0.90625-2.4688c-0.046875-0.10938-0.046875-0.14062-0.046875-0.17188 0-0.21875 0.28125-0.25 0.51562-0.25v-0.26562c-0.40625 0.015625-0.78125 0.015625-0.92188 0.015625-0.28125 0-0.54688 0-0.82812-0.015625v0.26562c0.28125 0 0.46875 0.015625 0.5625 0.14062 0.078125 0.09375 0.20312 0.45312 0.20312 0.48438 0 0.015625-0.046875 0.10938-0.046875 0.125l-0.73438 2.0156-0.85938-2.3281c-0.046875-0.14062-0.046875-0.15625-0.046875-0.1875 0-0.25 0.34375-0.25 0.51562-0.25v-0.26562c-0.40625 0.015625-0.60938 0.015625-0.96875 0.015625-0.29688 0-0.5625 0-0.875-0.015625v0.26562c0.4375 0 0.54688 0.03125 0.65625 0.32812l1.1562 3.1719c0.046875 0.10938 0.078125 0.1875 0.21875 0.1875 0.125 0 0.17188-0.09375 0.20312-0.1875l0.90625-2.5 0.9375 2.5c0.03125 0.09375 0.0625 0.1875 0.20312 0.1875 0.125 0 0.15625-0.078125 0.1875-0.17188z"/>
  </g>
  <g id="e">
   <path d="m2.9062-1.4844c0-0.21875 0-0.73438-0.26562-1.1406-0.29688-0.4375-0.71875-0.51562-0.98438-0.51562-0.79688 0-1.4219 0.73438-1.4219 1.5938 0 0.90625 0.67188 1.625 1.5156 1.625 0.32812 0 0.73438-0.078125 1.125-0.34375l-0.046875-0.46875c-0.42188 0.3125-0.82812 0.35938-1.0625 0.35938-0.5625 0-1-0.48438-1.0156-1.1094zm-2.125-0.40625c0.10938-0.4375 0.4375-0.8125 0.875-0.8125 0.25 0 0.71875 0.125 0.84375 0.8125z"/>
  </g>
  <g id="i">
   <path d="m2.875-0.73438c-0.32812 0.21875-0.6875 0.34375-1.1094 0.34375-0.57812 0-0.95312-0.48438-0.95312-1.125 0-0.53125 0.25-1.1562 0.98438-1.1562 0.4375 0 0.65625 0.078125 0.98438 0.3125l0.09375-0.48438c-0.375-0.21875-0.59375-0.29688-1.0781-0.29688-0.96875 0-1.5469 0.8125-1.5469 1.625 0 0.84375 0.625 1.5938 1.5156 1.5938 0.46875 0 0.84375-0.14062 1.1406-0.32812z"/>
  </g>
  <g id="af">
   <path d="m1.25-2.6094h0.75v-0.42188h-0.78125v-0.78125c0-0.5 0.45312-0.54688 0.64062-0.54688 0.0625 0 0.28125 0 0.5625 0.10938v-0.48438c-0.078125-0.015625-0.29688-0.0625-0.5625-0.0625-0.65625 0-1.1562 0.48438-1.1562 1.1719v0.59375h-0.51562v0.42188h0.51562v2.6094h0.54688z"/>
  </g>
  <g id="a">
   <path d="m3.2969-1.5c0-0.89062-0.6875-1.6406-1.5469-1.6406-0.84375 0-1.5469 0.73438-1.5469 1.6406s0.71875 1.5781 1.5469 1.5781c0.84375 0 1.5469-0.6875 1.5469-1.5781zm-1.5469 1.1094c-0.53125 0-0.98438-0.40625-0.98438-1.1719 0-0.79688 0.51562-1.1406 0.98438-1.1406 0.48438 0 0.96875 0.35938 0.96875 1.1406s-0.46875 1.1719-0.96875 1.1719z"/>
  </g>
  <g id="u">
   <path d="m1.2656-3.0312h-0.59375v0.59375h0.59375zm-0.59375 2.4531v0.57812h0.59375v-0.57812z"/>
  </g>
  <g id="an">
   <path d="m3.6094-2.2344v-0.4375h-2.3125v-1.5781h0.26562c0.54688 0 1.1094 0.015625 1.6562 0.015625h0.59375v-0.46875h-3.1719v4.7031h3.2656v-0.51562h-0.6875c-0.64062 0-1.2812 0.015625-1.9219 0.015625v-1.7344z"/>
  </g>
  <g id="v">
   <path d="m5-2.0156c0-0.51562-0.14062-1.0781-0.95312-1.0781-0.57812 0-0.90625 0.34375-1.0625 0.54688-0.046875-0.125-0.1875-0.54688-0.89062-0.54688-0.53125 0-0.85938 0.3125-1.0156 0.51562v-0.48438h-0.53125v3.0625h0.57812v-1.6562c0-0.45312 0.17188-1 0.6875-1 0.6875 0 0.6875 0.48438 0.6875 0.6875v1.9688h0.5625v-1.6562c0-0.45312 0.17188-1 0.6875-1 0.6875 0 0.6875 0.48438 0.6875 0.6875v1.9688h0.5625z"/>
  </g>
  <g id="c">
   <path d="m1.1562-4.6562h-0.65625v0.65625h0.65625zm-0.046875 1.625h-0.54688v3.0312h0.54688z"/>
  </g>
  <g id="d">
   <path d="m2.4062-2.9219c-0.42188-0.1875-0.73438-0.21875-1.0156-0.21875-0.15625 0-1.1562 0-1.1562 0.90625 0 0.3125 0.1875 0.53125 0.26562 0.59375 0.26562 0.23438 0.4375 0.26562 0.90625 0.35938 0.21875 0.03125 0.60938 0.10938 0.60938 0.45312 0 0.45312-0.5625 0.45312-0.64062 0.45312-0.40625 0-0.79688-0.14062-1.0938-0.34375l-0.078125 0.5c0.40625 0.21875 0.8125 0.29688 1.1719 0.29688 0.4375 0 1.1406-0.14062 1.1406-0.95312 0-0.25-0.09375-0.48438-0.32812-0.6875-0.23438-0.1875-0.4375-0.23438-0.85938-0.3125-0.25-0.046875-0.57812-0.10938-0.57812-0.4375 0-0.40625 0.46875-0.40625 0.57812-0.40625 0.5 0 0.79688 0.15625 0.98438 0.26562z"/>
  </g>
  <g id="h">
   <path d="m3.0625-2.0156c0-0.51562-0.14062-1.0781-0.96875-1.0781-0.53125 0-0.85938 0.3125-1.0156 0.51562v-0.48438h-0.53125v3.0625h0.57812v-1.6562c0-0.45312 0.17188-1 0.6875-1 0.6875 0 0.6875 0.48438 0.6875 0.6875v1.9688h0.5625z"/>
  </g>
  <g id="ah">
   <path d="m4.0781-0.8125c-0.40625 0.3125-0.78125 0.42188-1.3594 0.42188-1.0156 0-1.6094-1.0469-1.6094-1.9531 0-1.0156 0.625-2 1.6094-2 0.46875 0 0.89062 0.125 1.2188 0.375l0.10938-0.60938c-0.35938-0.14062-0.79688-0.21875-1.2656-0.21875-1.3438 0-2.3281 1.0938-2.3281 2.4375 0 1.2969 0.95312 2.4375 2.3125 2.4375 0.64062 0 0.89062-0.10938 1.3594-0.39062z"/>
  </g>
  <g id="ap">
   <path d="m3.125-3.0312h-0.53125l-0.54688 1.3906c-0.125 0.35938-0.39062 1.0156-0.42188 1.2656h-0.015625c-0.015625-0.10938-0.03125-0.25-0.40625-1.2188-0.20312-0.5625-0.53125-1.3906-0.54688-1.4375h-0.5625l1.2031 3.0312h0.625z"/>
  </g>
  <g id="o">
   <path d="m1.1094-1.4531c0-0.71875 0.5625-1.1562 1.1719-1.1562v-0.48438c-0.48438 0-0.9375 0.25-1.2188 0.64062v-0.60938h-0.5v3.0625h0.54688z"/>
  </g>
  <g id="bd">
   <path d="m3.4219-2.125v-0.45312h-2.125v-1.6719h0.23438c0.54688 0 1.0781 0.015625 1.6094 0.015625h0.57812v-0.46875h-3.0781v4.7031h0.65625v-2.125z"/>
  </g>
  <g id="b">
   <path d="m2.8125-1.9688c0-0.67188-0.5-1.1719-1.1719-1.1719-0.45312 0-0.78125 0.10938-1.1094 0.29688l0.046875 0.48438c0.34375-0.25 0.67188-0.35938 1.0469-0.35938 0.39062 0 0.60938 0.3125 0.60938 0.75v0.29688c-1.1719 0.015625-1.9375 0.32812-1.9375 0.875 0 0.32812 0.21875 0.875 0.8125 0.875 0.125 0 0.71875-0.015625 1.1562-0.34375v0.26562h0.54688zm-0.57812 1.0156c0 0.14062 0 0.3125-0.23438 0.45312-0.17188 0.10938-0.40625 0.125-0.53125 0.125-0.34375 0-0.64062-0.15625-0.64062-0.42188 0-0.48438 1.3281-0.51562 1.4062-0.51562z"/>
  </g>
  <g id="f">
   <path d="m1.2344-2.6094h0.98438v-0.42188h-0.98438v-0.85938h-0.5v0.85938h-0.60938v0.42188h0.57812v1.75c0 0.40625 0.09375 0.9375 0.59375 0.9375 0.29688 0 0.65625-0.0625 1.0312-0.25l-0.10938-0.4375c-0.1875 0.14062-0.42188 0.21875-0.625 0.21875-0.26562 0-0.35938-0.23438-0.35938-0.59375z"/>
  </g>
  <g id="m">
   <path d="m3.0625-2.0156c0-0.51562-0.14062-1.0781-0.96875-1.0781-0.39062 0-0.75 0.17188-1 0.48438v-2.125h-0.54688v4.7344h0.57812v-1.6562c0-0.45312 0.17188-1 0.6875-1 0.6875 0 0.6875 0.48438 0.6875 0.6875v1.9688h0.5625z"/>
  </g>
  <g id="t">
   <path d="m1.1094-4.7344h-0.54688v4.7344h0.54688z"/>
  </g>
  <g id="n">
   <path d="m1.125-0.3125c0.26562 0.23438 0.59375 0.39062 0.95312 0.39062 0.6875 0 1.2812-0.67188 1.2812-1.5938 0-0.82812-0.42188-1.5781-1.0781-1.5781-0.20312 0-0.70312 0.03125-1.1719 0.39062v-0.32812h-0.54688v4.3594h0.5625zm0-1.9531c0.09375-0.125 0.34375-0.375 0.73438-0.375 0.51562 0 0.9375 0.48438 0.9375 1.125 0 0.65625-0.46875 1.1406-1 1.1406-0.21875 0-0.46875-0.078125-0.67188-0.42188z"/>
  </g>
  <g id="z">
   <path d="m3.0625-3.0312h-0.5625v1.9688c0 0.54688-0.4375 0.73438-0.84375 0.73438-0.48438 0-0.53125-0.15625-0.53125-0.45312v-2.25h-0.57812v2.2812c0 0.59375 0.23438 0.82812 0.71875 0.82812 0.39062 0 0.92188-0.125 1.25-0.40625v0.32812h0.54688z"/>
  </g>
  <g id="aa">
   <path d="m3.0469-4.7344h-0.54688v2.0156c-0.375-0.32812-0.8125-0.375-1.0312-0.375-0.6875 0-1.2188 0.70312-1.2188 1.5781s0.51562 1.5938 1.1875 1.5938c0.20312 0 0.64062-0.046875 1.0469-0.4375v0.35938h0.5625zm-0.5625 3.7812c0 0.125 0 0.14062-0.078125 0.23438-0.1875 0.23438-0.42188 0.34375-0.65625 0.34375-0.45312 0-0.9375-0.3125-0.9375-1.125 0-0.875 0.57812-1.1562 1-1.1562 0.3125 0 0.53125 0.17188 0.67188 0.35938z"/>
  </g>
  <g id="y">
   <path d="m3.3125-3.0938c-0.125 0-0.57812 0-1.0781 0.21875-0.10938-0.078125-0.35938-0.21875-0.6875-0.21875-0.625 0-1.125 0.5-1.125 1.1094 0 0.17188 0.046875 0.42188 0.23438 0.6875-0.125 0.17188-0.1875 0.375-0.1875 0.5625s0.0625 0.375 0.17188 0.51562c-0.35938 0.21875-0.4375 0.51562-0.4375 0.70312 0 0.5 0.65625 0.92188 1.5469 0.92188 0.875 0 1.5469-0.42188 1.5469-0.92188 0-0.95312-1.125-0.96875-1.4375-0.96875h-0.625c-0.078125 0-0.39062 0-0.39062-0.35938 0-0.125 0.03125-0.17188 0.0625-0.21875 0.1875 0.10938 0.42188 0.1875 0.64062 0.1875 0.64062 0 1.125-0.51562 1.125-1.1094 0-0.23438-0.0625-0.42188-0.17188-0.60938-0.03125-0.03125-0.03125-0.03125-0.03125-0.046875 0-0.03125 0.34375-0.03125 0.42188-0.03125 0.0625 0 0.3125 0 0.51562 0.03125zm-1.7656 1.8125c-0.3125 0-0.60938-0.20312-0.60938-0.70312 0-0.54688 0.34375-0.70312 0.60938-0.70312 0.3125 0 0.625 0.1875 0.625 0.70312 0 0.54688-0.34375 0.70312-0.625 0.70312zm0.3125 1.3125c0.15625 0 0.9375 0 0.9375 0.45312 0 0.29688-0.5 0.51562-1.0469 0.51562-0.53125 0-1.0469-0.20312-1.0469-0.51562 0-0.015625 0-0.45312 0.51562-0.45312z"/>
  </g>
  <g id="bc">
   <path d="m1.2969-4.7344h-0.65625v4.7344h2.875v-0.48438h-0.29688c-0.5625 0-1.1094 0.015625-1.6562 0.015625h-0.26562z"/>
  </g>
  <g id="bb">
   <path d="m1.6562-2.8594c-0.34375-0.078125-0.6875-0.35938-0.6875-0.75s0.375-0.78125 1-0.78125c0.48438 0 0.82812 0.14062 1.1719 0.4375l0.10938-0.59375c-0.32812-0.17188-0.65625-0.32812-1.2812-0.32812-0.96875 0-1.5781 0.67188-1.5781 1.3594 0 0.15625 0.03125 0.4375 0.26562 0.75 0.3125 0.40625 0.75 0.51562 1.0312 0.57812 0.09375 0.03125 0.51562 0.125 0.57812 0.14062 0.3125 0.09375 0.65625 0.39062 0.65625 0.82812s-0.39062 0.85938-1 0.85938c-0.54688 0-1.0625-0.20312-1.5-0.54688l-0.10938 0.59375c0.67188 0.40625 1.2812 0.46875 1.6094 0.46875 0.9375 0 1.5781-0.70312 1.5781-1.4531 0-0.78125-0.64062-1.2812-1.1562-1.4062z"/>
  </g>
  <g id="ag">
   <path d="m2.7188-4.2188c0.46875 0 0.9375 0.015625 1.3906 0.015625h0.42188v-0.48438h-4.2812v0.48438h0.42188c0.45312 0 0.92188-0.015625 1.3906-0.015625v4.2188h0.65625z"/>
  </g>
  <g id="ba">
   <path d="m3.0469-3.0938h-0.54688v0.45312c-0.125-0.125-0.42188-0.45312-0.96875-0.45312-0.6875 0-1.2812 0.67188-1.2812 1.5938 0 0.84375 0.48438 1.5781 1.1562 1.5781 0.45312 0 0.84375-0.20312 1.0781-0.40625v1.6562h0.5625zm-0.54688 2.1406c0 0.09375 0 0.20312-0.23438 0.39062-0.14062 0.125-0.32812 0.1875-0.51562 0.1875-0.51562 0-0.9375-0.5-0.9375-1.125 0-0.6875 0.48438-1.1406 1-1.1406 0.45312 0 0.6875 0.45312 0.6875 0.73438z"/>
  </g>
  <g id="az">
   <path d="m4.1562-4.7344h-0.5625v3.1406c0 0.92188-0.59375 1.3438-1.1562 1.3438-0.57812 0-1.1406-0.42188-1.1406-1.3281v-3.1562h-0.65625v3.1406c0 1.0156 0.84375 1.75 1.7812 1.75s1.7344-0.75 1.7344-1.75z"/>
  </g>
  <g id="ay">
   <path d="m3.125-3.0312h-0.53125c-0.51562 1.25-0.89062 2.1562-0.9375 2.625-0.015625-0.3125-0.29688-1.0156-0.375-1.2031-0.28125-0.70312-0.40625-0.9375-0.60938-1.4219h-0.57812l1.3594 3.0312-0.25 0.60938c-0.17188 0.375-0.29688 0.375-0.40625 0.375s-0.34375-0.03125-0.54688-0.10938l0.046875 0.46875c0.015625 0 0.26562 0.046875 0.5 0.046875 0.1875 0 0.48438 0 0.8125-0.8125z"/>
  </g>
  <g id="ax">
   <path d="m4.6875-3.0312h-0.53125c-0.15625 0.5-0.71875 2.2344-0.76562 2.6562-0.046875-0.29688-0.1875-0.75-0.29688-1.1406l-0.48438-1.5156h-0.5c-0.21875 0.67188-0.70312 2.2031-0.71875 2.625h-0.015625c-0.015625-0.25-0.20312-0.875-0.32812-1.2969l-0.40625-1.3281h-0.54688l0.96875 3.0312h0.5625c0.10938-0.375 0.35938-1.1562 0.40625-1.3125 0.14062-0.48438 0.3125-1.0312 0.32812-1.3281 0.015625 0.14062 0.078125 0.40625 0.09375 0.46875 0.078125 0.29688 0.078125 0.3125 0.125 0.48438l0.51562 1.6875h0.625z"/>
  </g>
  <g id="ao">
   <path d="m1.1094-4.7344h-0.54688v4.7344h0.5625v-0.3125c0.09375 0.09375 0.4375 0.39062 0.95312 0.39062 0.70312 0 1.2812-0.6875 1.2812-1.5938 0-0.82812-0.4375-1.5781-1.1094-1.5781-0.1875 0-0.67188 0.03125-1.1406 0.39062zm0.015625 2.4531c0.10938-0.14062 0.35938-0.375 0.73438-0.375 0.42188 0 0.9375 0.28125 0.9375 1.1406 0 0.875-0.57812 1.1406-1 1.1406-0.4375 0-0.625-0.35938-0.67188-0.42188z"/>
  </g>
  <g id="aw">
   <path d="m1.8281-1.5625 1.2812-1.4688h-0.59375l-0.92188 1.1094-0.95312-1.1094h-0.59375l1.3125 1.4688-1.3594 1.5625h0.59375l1-1.2812 1.0312 1.2812h0.59375z"/>
  </g>
  <g id="av">
   <path d="m5.9531-6.0938h-5.5781v0.4375h0.96875v5.2188h-0.96875v0.4375c0.3125-0.03125 1.2969-0.03125 1.6719-0.03125 0.42188 0 1.4375 0 1.8125 0.03125v-0.4375h-1.2188v-2.3906h0.48438c0.875 0 0.95312 0.375 0.95312 1.0469h0.45312v-2.5469h-0.45312c0 0.67188-0.078125 1.0469-0.95312 1.0469h-0.48438v-2.375h1.3281c1.4375 0 1.6562 0.67188 1.7969 1.7344h0.45312z"/>
  </g>
  <g id="au">
   <path d="m2.1562-5.5312c0-0.45312-0.375-0.70312-0.70312-0.70312-0.40625 0-0.70312 0.34375-0.70312 0.70312 0 0.375 0.29688 0.70312 0.70312 0.70312 0.34375 0 0.70312-0.26562 0.70312-0.70312zm-1.6562 1.5625v0.4375c0.51562 0 0.57812 0 0.57812 0.35938v2.7344h-0.60938v0.4375c0.59375-0.015625 0.71875-0.03125 1.0938-0.03125 0.4375 0 0.54688 0.015625 1.0625 0.03125v-0.4375h-0.54688v-3.5938z"/>
  </g>
  <g id="at">
   <path d="m1.9375-0.76562c-0.28125 0-0.40625 0-0.5625-0.10938-0.14062-0.125-0.20312-0.26562-0.20312-0.45312 0-0.17188 0.0625-0.26562 0.0625-0.28125 0.32812 0.17188 0.73438 0.23438 1.125 0.23438 1.375 0 1.8438-0.73438 1.8438-1.3281 0-0.35938-0.17188-0.65625-0.35938-0.84375 0.23438-0.125 0.42188-0.14062 0.53125-0.17188 0 0.046875-0.03125 0.09375-0.03125 0.1875 0 0.23438 0.1875 0.40625 0.40625 0.40625 0.20312 0 0.40625-0.15625 0.40625-0.42188 0-0.23438-0.17188-0.54688-0.59375-0.54688-0.4375 0-0.8125 0.21875-0.98438 0.34375-0.375-0.21875-0.78125-0.28125-1.2188-0.28125-1.375 0-1.8438 0.73438-1.8438 1.3281 0 0.48438 0.3125 0.8125 0.46875 0.9375-0.1875 0.21875-0.29688 0.51562-0.29688 0.78125 0 0.39062 0.1875 0.70312 0.375 0.875-0.67188 0.1875-0.76562 0.5625-0.76562 0.76562 0 0.53125 0.625 1.1406 2.3438 1.1406 1.5781 0 2.3594-0.48438 2.3594-1.1719 0-0.3125-0.10938-0.85938-0.73438-1.1562-0.51562-0.23438-0.98438-0.23438-1.875-0.23438zm0.42188-0.96875c-0.8125 0-0.8125-0.57812-0.8125-0.96875 0-0.40625 0-0.96875 0.8125-0.96875s0.8125 0.5625 0.8125 0.96875c0 0.39062 0 0.96875-0.8125 0.96875zm0.53125 1.8594c0.28125 0 1.3125 0 1.3125 0.53125 0 0.29688-0.32812 0.78125-1.5469 0.78125-1.1875 0-1.5625-0.4375-1.5625-0.79688 0-0.51562 0.57812-0.51562 0.70312-0.51562z"/>
  </g>
  <g id="am">
   <path d="m2.1719-0.70312c0-0.40625-0.32812-0.70312-0.6875-0.70312-0.42188 0-0.71875 0.32812-0.71875 0.70312 0 0.40625 0.34375 0.70312 0.70312 0.70312 0.42188 0 0.70312-0.32812 0.70312-0.70312z"/>
  </g>
  <g id="as">
   <path d="m3.2656-5.5938c0-0.1875 0-0.29688-0.26562-0.29688-0.10938 0-0.125 0-0.20312 0.0625-0.6875 0.51562-1.6562 0.51562-1.8281 0.51562h-0.17188v0.4375h0.17188c0.21875 0 0.70312-0.015625 1.2031-0.17188v4.6094h-1.2812v0.4375c0.34375-0.03125 1.4219-0.03125 1.8281-0.03125 0.42188 0 1.4844 0 1.8438 0.03125v-0.4375h-1.2969z"/>
  </g>
  <g id="ae">
   <path d="m0.89062-2.0469c0.046875 0 0.25 0 0.25-0.20312 0-0.1875-0.1875-0.1875-0.25-0.1875v-1.1719c0-0.14062 0-0.3125-0.1875-0.3125s-0.1875 0.1875-0.1875 0.3125v2.7188c0 0.14062 0 0.32812 0.1875 0.32812s0.1875-0.1875 0.1875-0.32812z"/>
  </g>
  <g id="ad">
   <path d="m7.625-2.0469c-1.0625 0.75-1.2812 1.9375-1.2812 2.0312 0 0.125 0.125 0.125 0.1875 0.125 0.10938 0 0.17188 0 0.20312-0.125 0.25-1.0469 0.85938-1.75 1.8438-2.1094 0.046875-0.015625 0.125-0.046875 0.125-0.125s-0.0625-0.09375-0.125-0.125c-1.125-0.42188-1.6406-1.2188-1.8438-2.0938-0.03125-0.125-0.0625-0.125-0.20312-0.125-0.078125 0-0.1875 0-0.1875 0.125 0 0.09375 0.21875 1.2812 1.2812 2.0312h-6.7812c-0.15625 0-0.32812 0-0.32812 0.1875 0 0.20312 0.17188 0.20312 0.32812 0.20312z"/>
  </g>
 </defs>
 <path d="m222.06 78.299c0-6.9141-25.48-12.52-56.918-12.52-31.434 0-56.914 5.6055-56.914 12.52 0 6.9141 25.48 12.52 56.914 12.52 31.437 0 56.918-5.6055 56.918-12.52z" fill="none" stroke="#000" stroke-miterlimit="10" stroke-width=".60492"/>
 <g transform="translate(-135.03 -115.84)" fill="#7f7f7f">
  <use x="293.27213" y="192.34151" xlink:href="#e"/>
  <use x="296.38083" y="192.34151" xlink:href="#i"/>
  <use x="299.48956" y="192.34151" xlink:href="#af"/>
  <use x="301.62643" y="192.34151" xlink:href="#a"/>
  <use x="305.12375" y="192.34151" xlink:href="#u"/>
 </g>
 <g transform="translate(-135.03 -115.84)">
  <use x="262.25525" y="200.65929" xlink:href="#an"/>
  <use x="266.45621" y="200.65929" xlink:href="#v"/>
  <use x="272.01147" y="200.65929" xlink:href="#c"/>
  <use x="273.68152" y="200.65929" xlink:href="#d"/>
  <use x="276.36285" y="200.65929" xlink:href="#d"/>
  <use x="279.04419" y="200.65929" xlink:href="#c"/>
  <use x="280.71423" y="200.65929" xlink:href="#a"/>
  <use x="284.21152" y="200.65929" xlink:href="#h"/>
  <use x="287.82452" y="200.65929" xlink:href="#ah"/>
  <use x="292.29294" y="200.65929" xlink:href="#a"/>
  <use x="295.79025" y="200.65929" xlink:href="#h"/>
  <use x="299.40323" y="200.65929" xlink:href="#ap"/>
  <use x="302.62766" y="200.65929" xlink:href="#e"/>
  <use x="305.73636" y="200.65929" xlink:href="#o"/>
  <use x="308.12573" y="200.65929" xlink:href="#d"/>
  <use x="310.80707" y="200.65929" xlink:href="#c"/>
  <use x="312.47711" y="200.65929" xlink:href="#a"/>
  <use x="315.9744" y="200.65929" xlink:href="#h"/>
  <use x="319.5874" y="200.65929" xlink:href="#bd"/>
  <use x="323.39639" y="200.65929" xlink:href="#b"/>
  <use x="326.7569" y="200.65929" xlink:href="#i"/>
  <use x="329.8656" y="200.65929" xlink:href="#f"/>
  <use x="332.39108" y="200.65929" xlink:href="#a"/>
  <use x="335.69785" y="200.65929" xlink:href="#o"/>
 </g>
 <path d="m123.54 142.85c0-7.4336-19.906-13.457-44.465-13.457-24.555 0-44.465 6.0234-44.465 13.457 0 7.4297 19.91 13.453 44.465 13.453 24.559 0 44.465-6.0234 44.465-13.453z" fill="none" stroke="#000" stroke-miterlimit="10" stroke-width=".60492"/>
 <g transform="translate(-135.03 -115.84)" fill="#7f7f7f">
  <use x="207.21329" y="256.22418" xlink:href="#e"/>
  <use x="210.32199" y="256.22418" xlink:href="#i"/>
  <use x="213.43071" y="256.22418" xlink:href="#af"/>
  <use x="215.56761" y="256.22418" xlink:href="#a"/>
  <use x="219.06491" y="256.22418" xlink:href="#u"/>
 </g>
 <g transform="translate(-135.03 -115.84)">
  <use x="185.00145" y="264.54196" xlink:href="#ah"/>
  <use x="189.46988" y="264.54196" xlink:href="#m"/>
  <use x="193.08287" y="264.54196" xlink:href="#e"/>
  <use x="196.19157" y="264.54196" xlink:href="#v"/>
  <use x="201.74683" y="264.54196" xlink:href="#c"/>
  <use x="203.41689" y="264.54196" xlink:href="#i"/>
  <use x="206.52559" y="264.54196" xlink:href="#b"/>
  <use x="209.88609" y="264.54196" xlink:href="#t"/>
  <use x="211.55615" y="264.54196" xlink:href="#ah"/>
  <use x="216.02458" y="264.54196" xlink:href="#a"/>
  <use x="219.52188" y="264.54196" xlink:href="#v"/>
  <use x="225.07713" y="264.54196" xlink:href="#n"/>
  <use x="228.88748" y="264.54196" xlink:href="#a"/>
  <use x="232.38478" y="264.54196" xlink:href="#z"/>
  <use x="235.99777" y="264.54196" xlink:href="#h"/>
  <use x="239.60396" y="264.54196" xlink:href="#aa"/>
 </g>
 <path d="m47.044 40.584h21.039v-10.629h-21.039z" fill="none" stroke="#000" stroke-dasharray="2.98883, 2.98883" stroke-miterlimit="10" stroke-width=".60492"/>
 <g transform="translate(-135.03 -115.84)">
  <use x="184.40791" y="152.77005" xlink:href="#d"/>
  <use x="187.08925" y="152.77005" xlink:href="#f"/>
  <use x="189.61473" y="152.77005" xlink:href="#o"/>
  <use x="192.0041" y="152.77005" xlink:href="#c"/>
  <use x="193.67416" y="152.77005" xlink:href="#h"/>
  <use x="197.28716" y="152.77005" xlink:href="#y"/>
 </g>
 <path d="m293.89 13.756c0-6.25-9.4805-11.32-21.172-11.32-11.695 0-21.172 5.0703-21.172 11.32 0 6.25 9.4766 11.316 21.172 11.316 11.691 0 21.172-5.0664 21.172-11.316z" fill="none" stroke="#000" stroke-dasharray="2.98883, 2.98883" stroke-miterlimit="10" stroke-width=".60492"/>
 <g transform="translate(-135.03 -115.84)" fill="#7f7f7f">
  <use x="400.50677" y="126.94693" xlink:href="#n"/>
  <use x="403.92242" y="126.94693" xlink:href="#o"/>
  <use x="406.3118" y="126.94693" xlink:href="#a"/>
  <use x="409.80911" y="126.94693" xlink:href="#ap"/>
  <use x="413.03351" y="126.94693" xlink:href="#u"/>
 </g>
 <g transform="translate(-135.03 -115.84)">
  <use x="395.10355" y="135.26469" xlink:href="#bc"/>
  <use x="398.91592" y="135.26469" xlink:href="#a"/>
  <use x="402.6106" y="135.26469" xlink:href="#i"/>
  <use x="405.7193" y="135.26469" xlink:href="#b"/>
  <use x="409.0798" y="135.26469" xlink:href="#f"/>
  <use x="411.60529" y="135.26469" xlink:href="#c"/>
  <use x="413.27533" y="135.26469" xlink:href="#a"/>
  <use x="416.77264" y="135.26469" xlink:href="#h"/>
 </g>
 <path d="m180.75 142.85c0-7.4336-6.9883-13.457-15.609-13.457-8.6172 0-15.605 6.0234-15.605 13.457 0 7.4297 6.9883 13.453 15.605 13.453 8.6211 0 15.609-6.0234 15.609-13.453z" fill="none" stroke="#000" stroke-miterlimit="10" stroke-width=".60492"/>
 <g transform="translate(-135.03 -115.84)" fill="#7f7f7f">
  <use x="293.27213" y="256.22418" xlink:href="#e"/>
  <use x="296.38083" y="256.22418" xlink:href="#i"/>
  <use x="299.48956" y="256.22418" xlink:href="#af"/>
  <use x="301.62643" y="256.22418" xlink:href="#a"/>
  <use x="305.12375" y="256.22418" xlink:href="#u"/>
 </g>
 <g transform="translate(-135.03 -115.84)">
  <use x="291.46573" y="264.54196" xlink:href="#bb"/>
  <use x="295.35162" y="264.54196" xlink:href="#i"/>
  <use x="298.46033" y="264.54196" xlink:href="#a"/>
  <use x="301.95764" y="264.54196" xlink:href="#n"/>
  <use x="305.76117" y="264.54196" xlink:href="#e"/>
 </g>
 <path d="m70.614 78.299c0-7.4297-5.8398-13.457-13.051-13.457-7.207 0-13.051 6.0273-13.051 13.457 0 7.4336 5.8437 13.457 13.051 13.457 7.2109 0 13.051-6.0234 13.051-13.457z" fill="none" stroke="#000" stroke-miterlimit="10" stroke-width=".60492"/>
 <g transform="translate(-135.03 -115.84)" fill="#7f7f7f">
  <use x="185.69896" y="191.67967" xlink:href="#e"/>
  <use x="188.80766" y="191.67967" xlink:href="#i"/>
  <use x="191.91638" y="191.67967" xlink:href="#af"/>
  <use x="194.05327" y="191.67967" xlink:href="#a"/>
  <use x="197.55057" y="191.67967" xlink:href="#u"/>
 </g>
 <g transform="translate(-135.03 -115.84)">
  <use x="187.06969" y="199.99744" xlink:href="#ag"/>
  <use x="191.26318" y="199.99744" xlink:href="#b"/>
  <use x="194.6237" y="199.99744" xlink:href="#y"/>
 </g>
 <path d="m308.35 78.299c0-6.9141-6.3203-12.52-14.121-12.52-7.7969 0-14.117 5.6055-14.117 12.52 0 6.9141 6.3203 12.52 14.117 12.52 7.8008 0 14.121-5.6055 14.121-12.52z" fill="none" stroke="#000" stroke-dasharray="2.98883, 2.98883" stroke-miterlimit="10" stroke-width=".60492"/>
 <g transform="translate(-135.03 -115.84)" fill="#7f7f7f">
  <use x="421.60443" y="192.34151" xlink:href="#ba"/>
  <use x="425.21744" y="192.34151" xlink:href="#z"/>
  <use x="428.83041" y="192.34151" xlink:href="#aa"/>
  <use x="432.44342" y="192.34151" xlink:href="#f"/>
  <use x="434.9689" y="192.34151" xlink:href="#u"/>
 </g>
 <g transform="translate(-135.03 -115.84)">
  <use x="422.94861" y="200.65929" xlink:href="#az"/>
  <use x="427.75867" y="200.65929" xlink:href="#h"/>
  <use x="431.37167" y="200.65929" xlink:href="#c"/>
  <use x="433.04172" y="200.65929" xlink:href="#f"/>
 </g>
 <path d="m307.8 142.85c0-7.4024-15.707-13.402-35.082-13.402-19.379 0-35.086 6-35.086 13.402 0 7.3984 15.707 13.398 35.086 13.398 19.375 0 35.082-6 35.082-13.398z" fill="none" stroke="#000" stroke-dasharray="2.98883, 2.98883" stroke-miterlimit="10" stroke-width=".60492"/>
 <g transform="translate(-135.03 -115.84)" fill="#7f7f7f">
  <use x="400.34134" y="256.18396" xlink:href="#f"/>
  <use x="402.86682" y="256.18396" xlink:href="#c"/>
  <use x="404.53687" y="256.18396" xlink:href="#v"/>
  <use x="410.09213" y="256.18396" xlink:href="#e"/>
  <use x="413.20084" y="256.18396" xlink:href="#u"/>
 </g>
 <g transform="translate(-135.03 -115.84)">
  <use x="385.2655" y="264.50171" xlink:href="#ag"/>
  <use x="389.45901" y="264.50171" xlink:href="#e"/>
  <use x="392.56772" y="264.50171" xlink:href="#v"/>
  <use x="398.12296" y="264.50171" xlink:href="#n"/>
  <use x="401.93332" y="264.50171" xlink:href="#a"/>
  <use x="405.23325" y="264.50171" xlink:href="#o"/>
  <use x="407.62265" y="264.50171" xlink:href="#b"/>
  <use x="410.98315" y="264.50171" xlink:href="#t"/>
  <use x="412.6532" y="264.50171" xlink:href="#an"/>
  <use x="416.85419" y="264.50171" xlink:href="#h"/>
  <use x="420.46716" y="264.50171" xlink:href="#f"/>
  <use x="422.99265" y="264.50171" xlink:href="#c"/>
  <use x="424.66269" y="264.50171" xlink:href="#f"/>
  <use x="426.99762" y="264.50171" xlink:href="#ay"/>
 </g>
 <path d="m180.58 13.756c0-7.4336-6.9141-13.457-15.441-13.457-8.5234 0-15.438 6.0234-15.438 13.457 0 7.4297 6.9141 13.453 15.438 13.453 8.5273 0 15.441-6.0234 15.441-13.453z" fill="none" stroke="#000" stroke-dasharray="2.98883, 2.98883" stroke-miterlimit="10" stroke-width=".60492"/>
 <g transform="translate(-135.03 -115.84)" fill="#7f7f7f">
  <use x="294.32257" y="127.13592" xlink:href="#a"/>
  <use x="297.62253" y="127.13592" xlink:href="#ax"/>
  <use x="302.40128" y="127.13592" xlink:href="#t"/>
  <use x="304.07132" y="127.13592" xlink:href="#u"/>
 </g>
 <g transform="translate(-135.03 -115.84)">
  <use x="291.58414" y="135.45369" xlink:href="#ag"/>
  <use x="296.36288" y="135.45369" xlink:href="#m"/>
  <use x="299.97589" y="135.45369" xlink:href="#c"/>
  <use x="301.64594" y="135.45369" xlink:href="#h"/>
  <use x="305.25891" y="135.45369" xlink:href="#y"/>
 </g>
 <path d="m185.16 66.287 69.965-41.977" fill="none" stroke="#000" stroke-miterlimit="10" stroke-width=".60492"/>
 <g>
  <path d="m258.07 22.537c-0.41796 0.12891-2.3164 0.57422-3.6445 0.61719l1.3828 2.3086c0.66406-1.1523 1.9531-2.6172 2.2617-2.9258z" stroke="#000" stroke-linejoin="round" stroke-miterlimit="10" stroke-width=".60491"/>
  <path d="m192.29 53.85h58.918v-19.027h-58.918z" fill="#fff"/>
  <g transform="translate(-135.03 -115.84)">
   <use x="351.94736" y="157.71638" xlink:href="#m"/>
   <use x="355.56036" y="157.71638" xlink:href="#b"/>
   <use x="358.92087" y="157.71638" xlink:href="#d"/>
   <use x="329.64749" y="166.03415" xlink:href="#b"/>
   <use x="333.008" y="166.03415" xlink:href="#n"/>
   <use x="336.62097" y="166.03415" xlink:href="#n"/>
   <use x="340.23398" y="166.03415" xlink:href="#t"/>
   <use x="341.90402" y="166.03415" xlink:href="#c"/>
   <use x="343.57407" y="166.03415" xlink:href="#i"/>
   <use x="346.68277" y="166.03415" xlink:href="#b"/>
   <use x="350.0433" y="166.03415" xlink:href="#ao"/>
   <use x="353.65628" y="166.03415" xlink:href="#t"/>
   <use x="355.32632" y="166.03415" xlink:href="#e"/>
   <use x="360.76248" y="166.03415" xlink:href="#t"/>
   <use x="362.43253" y="166.03415" xlink:href="#a"/>
   <use x="366.1272" y="166.03415" xlink:href="#i"/>
   <use x="369.2359" y="166.03415" xlink:href="#b"/>
   <use x="372.59641" y="166.03415" xlink:href="#f"/>
   <use x="375.12189" y="166.03415" xlink:href="#c"/>
   <use x="376.79193" y="166.03415" xlink:href="#a"/>
   <use x="380.28925" y="166.03415" xlink:href="#h"/>
  </g>
 </g>
 <path d="m165.14 91.123v34.219" fill="none" stroke="#000" stroke-miterlimit="10" stroke-width=".60492"/>
 <g>
  <path d="m165.14 128.78c0.10546-0.42187 0.69921-2.2812 1.3476-3.4414h-2.6914c0.64843 1.1602 1.2422 3.0195 1.3438 3.4414z" stroke="#000" stroke-linejoin="round" stroke-miterlimit="10" stroke-width=".60492"/>
  <path d="m154.71 119.62h20.863v-19.031h-20.863z" fill="#fff"/>
  <g transform="translate(-135.03 -115.84)">
   <use x="295.34189" y="223.48439" xlink:href="#m"/>
   <use x="298.9549" y="223.48439" xlink:href="#b"/>
   <use x="302.3154" y="223.48439" xlink:href="#d"/>
   <use x="292.06836" y="231.80139" xlink:href="#d"/>
   <use x="294.74969" y="231.80139" xlink:href="#i"/>
   <use x="297.8584" y="231.80139" xlink:href="#a"/>
   <use x="301.35571" y="231.80139" xlink:href="#n"/>
   <use x="305.15924" y="231.80139" xlink:href="#e"/>
  </g>
 </g>
 <path d="m107.92 78.299h-33.258" fill="none" stroke="#000" stroke-miterlimit="10" stroke-width=".60492"/>
 <g>
  <path d="m71.219 78.299c0.42188 0.10547 2.2812 0.69922 3.4414 1.3438v-2.6875c-1.1602 0.64453-3.0195 1.2383-3.4414 1.3438z" stroke="#000" stroke-linejoin="round" stroke-miterlimit="10" stroke-width=".60492"/>
  <path d="m82.262 87.815h14.316v-19.031h-14.316z" fill="#fff"/>
  <g transform="translate(-135.03 -115.84)">
   <use x="219.62277" y="191.67967" xlink:href="#m"/>
   <use x="223.23576" y="191.67967" xlink:href="#b"/>
   <use x="226.59628" y="191.67967" xlink:href="#d"/>
   <use x="219.75864" y="199.99744" xlink:href="#f"/>
   <use x="222.28412" y="199.99744" xlink:href="#b"/>
   <use x="225.64464" y="199.99744" xlink:href="#y"/>
  </g>
 </g>
 <path d="m222.36 78.299c17.824-13.27 36.113-16.012 56.301-8.3867" fill="none" stroke="#000" stroke-miterlimit="10" stroke-width=".60492"/>
 <g>
  <path d="m281.86 71.197c-0.34766-0.26172-1.8516-1.5156-2.7227-2.543-0.31641 0.83594-0.63282 1.6758-0.94922 2.5156 1.3047-0.1875 3.2461-0.03906 3.6719 0.02734z" stroke="#000" stroke-linejoin="round" stroke-miterlimit="10" stroke-width=".60492"/>
  <path d="m232.82 74.912h36.812v-17.707h-36.812z" fill="#fff"/>
  <g transform="translate(-135.03 -115.84)">
   <use x="381.42502" y="180.09976" xlink:href="#m"/>
   <use x="385.03802" y="180.09976" xlink:href="#b"/>
   <use x="388.39853" y="180.09976" xlink:href="#d"/>
   <use x="370.17755" y="188.41753" xlink:href="#d"/>
   <use x="372.85889" y="188.41753" xlink:href="#a"/>
   <use x="376.35617" y="188.41753" xlink:href="#z"/>
   <use x="379.96918" y="188.41753" xlink:href="#o"/>
   <use x="382.35855" y="188.41753" xlink:href="#i"/>
   <use x="385.46725" y="188.41753" xlink:href="#e"/>
   <use x="390.90341" y="188.41753" xlink:href="#z"/>
   <use x="394.51642" y="188.41753" xlink:href="#h"/>
   <use x="398.12939" y="188.41753" xlink:href="#c"/>
   <use x="399.79944" y="188.41753" xlink:href="#f"/>
  </g>
 </g>
 <path d="m222.36 78.299c17.824 13.27 36.113 16.012 56.301 8.3906" fill="none" stroke="#000" stroke-miterlimit="10" stroke-width=".60492"/>
 <g>
  <path d="m281.86 85.4c-0.42579 0.06641-2.3672 0.21875-3.6719 0.03125 0.3164 0.83594 0.63281 1.6758 0.94922 2.5156 0.87109-1.0312 2.375-2.2852 2.7227-2.5469z" stroke="#000" stroke-linejoin="round" stroke-miterlimit="10" stroke-width=".60492"/>
  <path d="m233.41 100.06h35.625v-19.031h-35.625z" fill="#fff"/>
  <g transform="translate(-135.03 -115.84)">
   <use x="381.42502" y="203.92142" xlink:href="#m"/>
   <use x="385.03802" y="203.92142" xlink:href="#b"/>
   <use x="388.39853" y="203.92142" xlink:href="#d"/>
   <use x="370.77032" y="212.2392" xlink:href="#f"/>
   <use x="373.29581" y="212.2392" xlink:href="#b"/>
   <use x="376.45895" y="212.2392" xlink:href="#o"/>
   <use x="378.84833" y="212.2392" xlink:href="#y"/>
   <use x="382.34564" y="212.2392" xlink:href="#e"/>
   <use x="385.45435" y="212.2392" xlink:href="#f"/>
   <use x="390.31409" y="212.2392" xlink:href="#z"/>
   <use x="393.92709" y="212.2392" xlink:href="#h"/>
   <use x="397.54007" y="212.2392" xlink:href="#c"/>
   <use x="399.21011" y="212.2392" xlink:href="#f"/>
  </g>
 </g>
 <path d="m185.16 90.311 65.16 39.094" fill="none" stroke="#000" stroke-miterlimit="10" stroke-width=".60492"/>
 <g>
  <path d="m253.27 131.18c-0.3086-0.3086-1.5938-1.7734-2.2578-2.9258l-1.3828 2.3086c1.3281 0.043 3.2266 0.48828 3.6406 0.61719z" stroke="#000" stroke-linejoin="round" stroke-miterlimit="10" stroke-width=".60491"/>
  <path d="m192.31 120.34h54.059v-19.031h-54.059z" fill="#fff"/>
  <g transform="translate(-135.03 -115.84)">
   <use x="349.5444" y="224.20163" xlink:href="#m"/>
   <use x="353.15741" y="224.20163" xlink:href="#b"/>
   <use x="356.51791" y="224.20163" xlink:href="#d"/>
   <use x="329.67328" y="232.51941" xlink:href="#b"/>
   <use x="333.03381" y="232.51941" xlink:href="#n"/>
   <use x="336.64679" y="232.51941" xlink:href="#n"/>
   <use x="340.2598" y="232.51941" xlink:href="#t"/>
   <use x="341.92984" y="232.51941" xlink:href="#c"/>
   <use x="343.59988" y="232.51941" xlink:href="#i"/>
   <use x="346.70859" y="232.51941" xlink:href="#b"/>
   <use x="350.06909" y="232.51941" xlink:href="#ao"/>
   <use x="353.6821" y="232.51941" xlink:href="#t"/>
   <use x="355.35214" y="232.51941" xlink:href="#e"/>
   <use x="360.7883" y="232.51941" xlink:href="#n"/>
   <use x="364.59863" y="232.51941" xlink:href="#e"/>
   <use x="367.70737" y="232.51941" xlink:href="#o"/>
   <use x="370.09674" y="232.51941" xlink:href="#c"/>
   <use x="371.76678" y="232.51941" xlink:href="#a"/>
   <use x="375.45462" y="232.51941" xlink:href="#aa"/>
  </g>
 </g>
 <path d="m148.76 90.584-49.711 37.285" fill="none" stroke="#000" stroke-miterlimit="10" stroke-width=".60492"/>
 <g>
  <path d="m96.294 129.93c0.40234-0.16797 2.2422-0.8086 3.5586-0.98828l-1.6133-2.1524c-0.53906 1.2148-1.668 2.8047-1.9453 3.1406z" stroke="#000" stroke-linejoin="round" stroke-miterlimit="10" stroke-width=".6049"/>
  <path d="m98.063 119.87h48.684v-19.031h-48.684z" fill="#fff"/>
  <g transform="translate(-135.03 -115.84)">
   <use x="252.60924" y="223.72954" xlink:href="#m"/>
   <use x="256.22223" y="223.72954" xlink:href="#b"/>
   <use x="259.58273" y="223.72954" xlink:href="#d"/>
   <use x="235.42647" y="232.04732" xlink:href="#e"/>
   <use x="238.53517" y="232.04732" xlink:href="#v"/>
   <use x="244.09042" y="232.04732" xlink:href="#c"/>
   <use x="245.76048" y="232.04732" xlink:href="#d"/>
   <use x="248.4418" y="232.04732" xlink:href="#d"/>
   <use x="251.12314" y="232.04732" xlink:href="#c"/>
   <use x="252.79318" y="232.04732" xlink:href="#a"/>
   <use x="256.2905" y="232.04732" xlink:href="#h"/>
   <use x="262.23093" y="232.04732" xlink:href="#f"/>
   <use x="264.75641" y="232.04732" xlink:href="#b"/>
   <use x="267.92636" y="232.04732" xlink:href="#o"/>
   <use x="270.31573" y="232.04732" xlink:href="#y"/>
   <use x="273.81305" y="232.04732" xlink:href="#e"/>
   <use x="276.92175" y="232.04732" xlink:href="#f"/>
  </g>
 </g>
 <path d="m137.18 67.111-65.316-26.129" fill="none" stroke="#000" stroke-miterlimit="10" stroke-width=".60492"/>
 <g>
  <path d="m68.669 39.705c0.35156 0.25391 1.8555 1.4961 2.6953 2.5273l0.9961-2.5c-1.3164 0.17187-3.2617 0.03125-3.6914-0.02735z" stroke="#000" stroke-linejoin="round" stroke-miterlimit="10" stroke-width=".60489"/>
  <path d="m74.188 62.205h57.188v-17.707h-57.188z" fill="#fff"/>
  <g transform="translate(-135.03 -115.84)">
   <use x="232.98555" y="167.39502" xlink:href="#m"/>
   <use x="236.59854" y="167.39502" xlink:href="#b"/>
   <use x="239.95906" y="167.39502" xlink:href="#d"/>
   <use x="211.55016" y="175.71204" xlink:href="#b"/>
   <use x="214.91066" y="175.71204" xlink:href="#aa"/>
   <use x="218.52365" y="175.71204" xlink:href="#aa"/>
   <use x="222.13664" y="175.71204" xlink:href="#c"/>
   <use x="223.8067" y="175.71204" xlink:href="#f"/>
   <use x="226.33218" y="175.71204" xlink:href="#c"/>
   <use x="228.00223" y="175.71204" xlink:href="#a"/>
   <use x="231.49953" y="175.71204" xlink:href="#h"/>
   <use x="235.11252" y="175.71204" xlink:href="#b"/>
   <use x="238.47304" y="175.71204" xlink:href="#t"/>
   <use x="242.47054" y="175.71204" xlink:href="#i"/>
   <use x="245.57924" y="175.71204" xlink:href="#a"/>
   <use x="249.07654" y="175.71204" xlink:href="#h"/>
   <use x="252.68953" y="175.71204" xlink:href="#f"/>
   <use x="255.21501" y="175.71204" xlink:href="#e"/>
   <use x="258.32373" y="175.71204" xlink:href="#aw"/>
   <use x="261.54813" y="175.71204" xlink:href="#f"/>
  </g>
 </g>
 <path d="m165.14 65.479v-34.223" fill="none" stroke="#000" stroke-miterlimit="10" stroke-width=".60492"/>
 <g>
  <path d="m165.14 27.815c-0.10157 0.42188-0.69532 2.2812-1.3438 3.4414h2.6914c-0.64844-1.1602-1.2422-3.0195-1.3476-3.4414z" stroke="#000" stroke-linejoin="round" stroke-miterlimit="10" stroke-width=".60492"/>
  <path d="m140.2 55.35h49.871v-17.707h-49.871z" fill="#fff"/>
  <g transform="translate(-135.03 -115.84)">
   <use x="295.34189" y="160.53755" xlink:href="#m"/>
   <use x="298.9549" y="160.53755" xlink:href="#b"/>
   <use x="302.3154" y="160.53755" xlink:href="#d"/>
   <use x="277.56711" y="168.85532" xlink:href="#e"/>
   <use x="280.67581" y="168.85532" xlink:href="#v"/>
   <use x="286.23108" y="168.85532" xlink:href="#c"/>
   <use x="287.90112" y="168.85532" xlink:href="#d"/>
   <use x="290.58246" y="168.85532" xlink:href="#d"/>
   <use x="293.26379" y="168.85532" xlink:href="#c"/>
   <use x="294.93384" y="168.85532" xlink:href="#a"/>
   <use x="298.43112" y="168.85532" xlink:href="#h"/>
   <use x="304.37158" y="168.85532" xlink:href="#d"/>
   <use x="307.05289" y="168.85532" xlink:href="#a"/>
   <use x="310.5502" y="168.85532" xlink:href="#z"/>
   <use x="314.16318" y="168.85532" xlink:href="#o"/>
   <use x="316.55258" y="168.85532" xlink:href="#i"/>
   <use x="319.66129" y="168.85532" xlink:href="#e"/>
   <use x="134.765" y="293.36099" xlink:href="#av"/>
   <use x="141.43332" y="293.36099" xlink:href="#au"/>
   <use x="144.38057" y="293.36099" xlink:href="#at"/>
   <use x="149.68599" y="293.36099" xlink:href="#am"/>
   <use x="154.39963" y="293.36099" xlink:href="#as"/>
   <use x="159.70505" y="293.36099" xlink:href="#am"/>
   <use x="164.98199" y="293.36099" xlink:href="#bs"/>
   <use x="171.63776" y="293.36099" xlink:href="#ak"/>
   <use x="176.75757" y="293.36099" xlink:href="#g"/>
   <use x="183.18828" y="293.36099" xlink:href="#br"/>
   <use x="190.868" y="293.36099" xlink:href="#q"/>
   <use x="195.47583" y="293.36099" xlink:href="#p"/>
   <use x="198.03574" y="293.36099" xlink:href="#r"/>
   <use x="205.47784" y="293.36099" xlink:href="#g"/>
   <use x="209.57729" y="293.36099" xlink:href="#r"/>
   <use x="214.44604" y="293.36099" xlink:href="#s"/>
   <use x="218.02991" y="293.36099" xlink:href="#p"/>
   <use x="220.58981" y="293.36099" xlink:href="#s"/>
   <use x="224.17369" y="293.36099" xlink:href="#p"/>
   <use x="226.7336" y="293.36099" xlink:href="#g"/>
   <use x="230.83304" y="293.36099" xlink:href="#k"/>
   <use x="236.79031" y="293.36099" xlink:href="#j"/>
   <use x="241.39815" y="293.36099" xlink:href="#bq"/>
   <use x="246.54486" y="293.36099" xlink:href="#bp"/>
   <use x="252.81596" y="293.36099" xlink:href="#bo"/>
   <use x="259.47171" y="293.36099" xlink:href="#ar"/>
   <use x="265.23532" y="293.36099" xlink:href="#bn"/>
   <use x="274.72534" y="293.36099" xlink:href="#j"/>
   <use x="279.33319" y="293.36099" xlink:href="#r"/>
   <use x="284.20193" y="293.36099" xlink:href="#s"/>
   <use x="287.78583" y="293.36099" xlink:href="#j"/>
   <use x="292.39365" y="293.36099" xlink:href="#l"/>
   <use x="294.95355" y="293.36099" xlink:href="#j"/>
   <use x="299.5614" y="293.36099" xlink:href="#ac"/>
   <use x="304.16922" y="293.36099" xlink:href="#aj"/>
   <use x="308.26147" y="293.36099" xlink:href="#aq"/>
   <use x="313.15265" y="293.36099" xlink:href="#bm"/>
   <use x="318.91177" y="293.36099" xlink:href="#g"/>
   <use x="323.0112" y="293.36099" xlink:href="#ac"/>
   <use x="327.61905" y="293.36099" xlink:href="#g"/>
   <use x="331.71848" y="293.36099" xlink:href="#r"/>
   <use x="336.83829" y="293.36099" xlink:href="#x"/>
   <use x="341.9581" y="293.36099" xlink:href="#bl"/>
   <use x="346.84033" y="293.36099" xlink:href="#k"/>
   <use x="350.47531" y="293.36099" xlink:href="#j"/>
   <use x="355.08313" y="293.36099" xlink:href="#l"/>
   <use x="357.64304" y="293.36099" xlink:href="#p"/>
   <use x="360.20294" y="293.36099" xlink:href="#x"/>
   <use x="367.65402" y="293.36099" xlink:href="#g"/>
   <use x="371.75345" y="293.36099" xlink:href="#l"/>
   <use x="374.31335" y="293.36099" xlink:href="#l"/>
   <use x="376.87326" y="293.36099" xlink:href="#p"/>
   <use x="379.4332" y="293.36099" xlink:href="#ab"/>
   <use x="384.55301" y="293.36099" xlink:href="#k"/>
   <use x="388.18799" y="293.36099" xlink:href="#g"/>
   <use x="394.61401" y="293.36099" xlink:href="#ae"/>
   <use x="394.61401" y="293.36099" xlink:href="#ad"/>
   <use x="406.15799" y="293.36099" xlink:href="#al"/>
   <use x="410.25385" y="293.36099" xlink:href="#l"/>
   <use x="412.81375" y="293.36099" xlink:href="#q"/>
   <use x="417.4216" y="293.36099" xlink:href="#k"/>
   <use x="421.05658" y="293.36099" xlink:href="#k"/>
   <use x="427.02283" y="293.36099" xlink:href="#p"/>
   <use x="429.58273" y="293.36099" xlink:href="#r"/>
   <use x="437.02484" y="293.36099" xlink:href="#j"/>
   <use x="441.63266" y="293.36099" xlink:href="#bk"/>
   <use x="446.75247" y="293.36099" xlink:href="#w"/>
   <use x="452.68823" y="293.36099" xlink:href="#j"/>
   <use x="457.29608" y="293.36099" xlink:href="#r"/>
   <use x="462.16483" y="293.36099" xlink:href="#s"/>
   <use x="465.74869" y="293.36099" xlink:href="#j"/>
   <use x="470.35654" y="293.36099" xlink:href="#l"/>
   <use x="472.90747" y="293.36099" xlink:href="#j"/>
   <use x="477.51529" y="293.36099" xlink:href="#bj"/>
   <use x="134.765" y="304.32001" xlink:href="#ac"/>
   <use x="139.37283" y="304.32001" xlink:href="#p"/>
   <use x="141.93274" y="304.32001" xlink:href="#g"/>
   <use x="146.03218" y="304.32001" xlink:href="#k"/>
   <use x="149.66716" y="304.32001" xlink:href="#ai"/>
   <use x="154.6749" y="304.32001" xlink:href="#x"/>
   <use x="159.79471" y="304.32001" xlink:href="#q"/>
   <use x="164.40254" y="304.32001" xlink:href="#k"/>
   <use x="168.03752" y="304.32001" xlink:href="#ak"/>
   <use x="173.15733" y="304.32001" xlink:href="#g"/>
   <use x="177.25677" y="304.32001" xlink:href="#x"/>
   <use x="184.82442" y="304.32001" xlink:href="#g"/>
   <use x="188.92384" y="304.32001" xlink:href="#l"/>
   <use x="191.48375" y="304.32001" xlink:href="#l"/>
   <use x="194.04367" y="304.32001" xlink:href="#p"/>
   <use x="196.60358" y="304.32001" xlink:href="#ab"/>
   <use x="201.72339" y="304.32001" xlink:href="#k"/>
   <use x="205.35837" y="304.32001" xlink:href="#g"/>
   <use x="211.905" y="304.32001" xlink:href="#ae"/>
   <use x="211.905" y="304.32001" xlink:href="#ad"/>
   <use x="223.56799" y="304.32001" xlink:href="#al"/>
   <use x="227.66385" y="304.32001" xlink:href="#l"/>
   <use x="230.22375" y="304.32001" xlink:href="#q"/>
   <use x="234.83159" y="304.32001" xlink:href="#k"/>
   <use x="238.46657" y="304.32001" xlink:href="#k"/>
   <use x="244.54938" y="304.32001" xlink:href="#p"/>
   <use x="247.10928" y="304.32001" xlink:href="#r"/>
   <use x="254.67693" y="304.32001" xlink:href="#g"/>
   <use x="258.77637" y="304.32001" xlink:href="#bi"/>
   <use x="263.63974" y="304.32001" xlink:href="#s"/>
   <use x="267.2236" y="304.32001" xlink:href="#g"/>
   <use x="271.32306" y="304.32001" xlink:href="#w"/>
   <use x="274.92755" y="304.32001" xlink:href="#r"/>
   <use x="280.04736" y="304.32001" xlink:href="#q"/>
   <use x="284.65518" y="304.32001" xlink:href="#l"/>
   <use x="289.66293" y="304.32001" xlink:href="#j"/>
   <use x="294.27075" y="304.32001" xlink:href="#r"/>
   <use x="299.1395" y="304.32001" xlink:href="#s"/>
   <use x="302.71442" y="304.32001" xlink:href="#j"/>
   <use x="307.32224" y="304.32001" xlink:href="#l"/>
   <use x="309.88214" y="304.32001" xlink:href="#j"/>
   <use x="314.48999" y="304.32001" xlink:href="#ac"/>
   <use x="319.09781" y="304.32001" xlink:href="#p"/>
   <use x="321.65771" y="304.32001" xlink:href="#g"/>
   <use x="325.75717" y="304.32001" xlink:href="#k"/>
   <use x="329.39215" y="304.32001" xlink:href="#ai"/>
   <use x="334.39987" y="304.32001" xlink:href="#x"/>
   <use x="339.51968" y="304.32001" xlink:href="#q"/>
   <use x="344.12753" y="304.32001" xlink:href="#k"/>
   <use x="347.76251" y="304.32001" xlink:href="#ak"/>
   <use x="352.88232" y="304.32001" xlink:href="#g"/>
   <use x="356.98175" y="304.32001" xlink:href="#x"/>
   <use x="364.54941" y="304.32001" xlink:href="#w"/>
   <use x="368.1539" y="304.32001" xlink:href="#g"/>
   <use x="372.25333" y="304.32001" xlink:href="#al"/>
   <use x="376.34918" y="304.32001" xlink:href="#s"/>
   <use x="379.93304" y="304.32001" xlink:href="#q"/>
   <use x="384.54089" y="304.32001" xlink:href="#r"/>
   <use x="389.66071" y="304.32001" xlink:href="#ac"/>
   <use x="394.26852" y="304.32001" xlink:href="#l"/>
   <use x="396.82843" y="304.32001" xlink:href="#g"/>
   <use x="403.379" y="304.32001" xlink:href="#ae"/>
   <use x="403.379" y="304.32001" xlink:href="#ad"/>
   <use x="415.04199" y="304.32001" xlink:href="#bh"/>
   <use x="421.82507" y="304.32001" xlink:href="#bg"/>
   <use x="428.86371" y="304.32001" xlink:href="#ar"/>
   <use x="434.87836" y="304.32001" xlink:href="#bf"/>
   <use x="442.44601" y="304.32001" xlink:href="#x"/>
   <use x="447.56583" y="304.32001" xlink:href="#q"/>
   <use x="452.17365" y="304.32001" xlink:href="#s"/>
   <use x="455.75754" y="304.32001" xlink:href="#q"/>
   <use x="460.36536" y="304.32001" xlink:href="#s"/>
   <use x="463.68921" y="304.32001" xlink:href="#aj"/>
   <use x="468.55258" y="304.32001" xlink:href="#ab"/>
   <use x="473.93243" y="304.32001" xlink:href="#g"/>
   <use x="478.03186" y="304.32001" xlink:href="#ai"/>
   <use x="134.765" y="315.27899" xlink:href="#q"/>
   <use x="139.37283" y="315.27899" xlink:href="#w"/>
   <use x="142.97733" y="315.27899" xlink:href="#w"/>
   <use x="146.58182" y="315.27899" xlink:href="#j"/>
   <use x="150.92963" y="315.27899" xlink:href="#be"/>
   <use x="160.66" y="315.27899" xlink:href="#ae"/>
   <use x="160.66" y="315.27899" xlink:href="#ad"/>
   <use x="172.948" y="315.27899" xlink:href="#ab"/>
   <use x="178.06781" y="315.27899" xlink:href="#w"/>
   <use x="181.6723" y="315.27899" xlink:href="#j"/>
   <use x="186.28014" y="315.27899" xlink:href="#ab"/>
   <use x="191.65102" y="315.27899" xlink:href="#g"/>
   <use x="195.75046" y="315.27899" xlink:href="#w"/>
   <use x="199.35495" y="315.27899" xlink:href="#s"/>
   <use x="202.68776" y="315.27899" xlink:href="#aj"/>
   <use x="206.78001" y="315.27899" xlink:href="#aq"/>
  </g>
 </g>
</svg>
