<?xml version="1.0" encoding="UTF-8"?>
<svg width="345.05pt" height="174.87pt" version="1.1" viewBox="0 0 345.05 174.87" xmlns="http://www.w3.org/2000/svg" xmlns:xlink="http://www.w3.org/1999/xlink">
 <defs>
  <g id="au">
   <path d="m1.7656-0.48438c0-0.26562-0.21875-0.48438-0.48438-0.48438-0.28125 0-0.48438 0.21875-0.48438 0.48438s0.20312 0.48438 0.48438 0.48438c0.26562 0 0.48438-0.21875 0.48438-0.48438z"/>
  </g>
  <g id="l">
   <path d="m3.0625-0.64062c0.046875 0.375 0.3125 0.6875 0.70312 0.6875 0.21875 0 0.78125-0.125 0.78125-0.84375v-0.5h-0.25v0.48438c0 0.10938 0 0.54688-0.32812 0.54688-0.3125 0-0.3125-0.42188-0.3125-0.5625v-1.5781c0-0.51562 0-0.8125-0.40625-1.1875-0.32812-0.29688-0.76562-0.42188-1.2188-0.42188-0.75 0-1.375 0.375-1.375 0.95312 0 0.26562 0.1875 0.42188 0.42188 0.42188s0.40625-0.17188 0.40625-0.40625c0-0.39062-0.39062-0.4375-0.40625-0.4375 0.25-0.23438 0.6875-0.3125 0.9375-0.3125 0.45312 0 0.96875 0.34375 0.96875 1.1406v0.28125c-0.48438 0.03125-1.1562 0.0625-1.75 0.35938-0.65625 0.3125-0.84375 0.78125-0.84375 1.1406 0 0.73438 0.85938 0.96875 1.4688 0.96875 0.73438 0 1.0781-0.48438 1.2031-0.73438zm-0.078125-0.625c0 0.875-0.67188 1.1406-1.0625 1.1406-0.42188 0-0.8125-0.3125-0.8125-0.75 0-0.59375 0.5-1.2188 1.875-1.2812z"/>
  </g>
  <g id="s">
   <path d="m1.5938-2.0469c0-0.375 0.09375-1.6875 1.125-1.6875-0.015625 0.015625-0.15625 0.125-0.15625 0.32812 0 0.25 0.1875 0.40625 0.39062 0.40625 0.1875 0 0.39062-0.14062 0.39062-0.40625 0-0.28125-0.26562-0.5625-0.67188-0.5625-0.53125 0-0.90625 0.375-1.125 0.9375v-0.9375l-1.2812 0.10938v0.26562c0.60938 0 0.6875 0.0625 0.6875 0.51562v2.3906c0 0.40625-0.09375 0.40625-0.6875 0.40625v0.28125c0.48438-0.015625 0.59375-0.03125 1.0469-0.03125 0.35938 0 0.57812 0.015625 1.1406 0.03125v-0.28125h-0.17188c-0.65625 0-0.6875-0.09375-0.6875-0.42188z"/>
  </g>
  <g id="h">
   <path d="m4.3438-1.9062c0-1.1719-0.9375-2.1094-2.0312-2.1094-1.1406 0-2.0469 0.95312-2.0469 2.1094 0 1.1094 0.92188 2 2.0312 2 1.1406 0 2.0469-0.90625 2.0469-2zm-2.0312 1.75c-0.45312 0-0.82812-0.21875-1.0312-0.5625-0.23438-0.39062-0.25-0.85938-0.25-1.2656 0-0.34375 0-0.84375 0.21875-1.2188 0.28125-0.45312 0.71875-0.59375 1.0469-0.59375 0.51562 0 0.875 0.29688 1.0625 0.59375 0.20312 0.375 0.20312 0.82812 0.20312 1.2188 0 0.32812 0 0.84375-0.21875 1.2344-0.25 0.42188-0.65625 0.59375-1.0312 0.59375z"/>
  </g>
  <g id="n">
   <path d="m1.6562-3.9688-1.2969 0.10938v0.26562c0.57812 0 0.65625 0.0625 0.65625 0.5v2.4062c0 0.40625-0.09375 0.40625-0.6875 0.40625v0.28125c0.39062-0.015625 0.59375-0.03125 0.98438-0.03125 0.14062 0 0.51562 0 0.95312 0.03125v-0.28125c-0.57812 0-0.60938-0.046875-0.60938-0.39062zm0.015625-1.5625c0-0.26562-0.20312-0.48438-0.48438-0.48438-0.26562 0-0.48438 0.23438-0.48438 0.48438 0 0.26562 0.21875 0.48438 0.48438 0.48438 0.28125 0 0.48438-0.20312 0.48438-0.48438z"/>
  </g>
  <g id="aj">
   <path d="m3.2656-3.5312c-0.1875 0.046875-0.375 0.17188-0.375 0.42188 0 0.23438 0.1875 0.42188 0.42188 0.42188s0.42188-0.15625 0.42188-0.4375c0-0.54688-0.625-0.89062-1.4219-0.89062-1.1406 0-2 0.95312-2 2.0781 0 1.1562 0.92188 2.0312 1.9844 2.0312 1.25 0 1.5312-1.0781 1.5312-1.1562 0-0.10938-0.09375-0.10938-0.125-0.10938-0.09375 0-0.09375 0.015625-0.15625 0.17188-0.20312 0.60938-0.70312 0.84375-1.1562 0.84375-0.57812 0-1.3125-0.46875-1.3125-1.7969 0-1.3906 0.71875-1.8125 1.25-1.8125 0.125 0 0.60938 0.015625 0.9375 0.23438z"/>
  </g>
  <g id="e">
   <path d="m3.5938-2.0469c0.1875 0 0.23438 0 0.23438-0.20312 0-0.92188-0.5-1.7656-1.6562-1.7656-1.0625 0-1.9062 0.9375-1.9062 2.0469 0 1.1719 0.9375 2.0625 2.0312 2.0625s1.5312-0.95312 1.5312-1.1562c0-0.0625-0.046875-0.125-0.125-0.125-0.09375 0-0.10938 0.0625-0.125 0.10938-0.29688 0.90625-1.1094 0.92188-1.2344 0.92188-0.4375 0-0.79688-0.23438-1-0.54688-0.29688-0.4375-0.3125-0.96875-0.3125-1.3438zm-2.5469-0.21875c0.078125-1.3906 0.875-1.5312 1.125-1.5312 0.5 0 1.0312 0.375 1.0469 1.5312z"/>
  </g>
  <g id="q">
   <path d="m2.9219-3.5938v-0.26562h-1.3125v-1.6562h-0.25c0 0.75-0.3125 1.6719-1.1875 1.7031v0.21875h0.78125v2.4844c0 1 0.71875 1.2031 1.2031 1.2031 0.59375 0 0.90625-0.5625 0.90625-1.2031v-0.51562h-0.25v0.48438c0 0.67188-0.28125 0.98438-0.59375 0.98438-0.60938 0-0.60938-0.78125-0.60938-0.95312v-2.4844z"/>
  </g>
  <g id="k">
   <path d="m1.6562-6.2188-1.3281 0.09375v0.28125c0.60938 0 0.6875 0.0625 0.6875 0.5v4.6562c0 0.40625-0.09375 0.40625-0.6875 0.40625v0.28125c0.42188-0.015625 0.59375-0.03125 1-0.03125 0.42188 0 0.57812 0.015625 1.0156 0.03125v-0.28125c-0.59375 0-0.6875 0-0.6875-0.40625z"/>
  </g>
  <g id="br">
   <path d="m6.1406-6.0781h-5.625l-0.1875 2.0312h0.25c0.125-1.4844 0.3125-1.75 1.6562-1.75 0.17188 0 0.42188 0 0.51562 0.015625 0.17188 0.046875 0.17188 0.125 0.17188 0.35938v4.7031c0 0.3125 0 0.4375-0.9375 0.4375h-0.35938v0.28125c0.32812-0.03125 1.3125-0.03125 1.7031-0.03125s1.375 0 1.6875 0.03125v-0.28125h-0.34375c-0.9375 0-0.9375-0.125-0.9375-0.4375v-4.7031c0-0.23438 0-0.3125 0.1875-0.35938 0.09375-0.015625 0.32812-0.015625 0.48438-0.015625 1.3594 0 1.5312 0.26562 1.6562 1.75h0.25z"/>
  </g>
  <g id="ag">
   <path d="m1.6406-6.2188-1.3281 0.09375v0.28125c0.60938 0 0.6875 0.0625 0.6875 0.5v4.6562c0 0.40625-0.09375 0.40625-0.6875 0.40625v0.28125c0.42188-0.015625 0.59375-0.03125 1.0312-0.03125 0.42188 0 0.54688 0.015625 1.0156 0.03125v-0.28125c-0.59375 0-0.6875 0-0.6875-0.40625v-1.6406c0-0.95312 0.67188-1.4062 1.2344-1.4062 0.53125 0 0.64062 0.4375 0.64062 0.96875v2.0781c0 0.40625-0.09375 0.40625-0.6875 0.40625v0.28125c0.42188-0.015625 0.59375-0.03125 1.0312-0.03125 0.42188 0 0.54688 0.015625 1.0156 0.03125v-0.28125c-0.45312 0-0.6875 0-0.6875-0.28125v-1.7188c0-0.73438 0-1-0.25-1.3125-0.20312-0.25-0.54688-0.375-1-0.375-0.59375 0-1.0469 0.3125-1.3125 0.82812h-0.015625z"/>
  </g>
  <g id="bq">
   <path d="m1.6719-2.3281c0-0.96875 0.70312-1.4062 1.2344-1.4062 0.5 0 0.65625 0.34375 0.65625 0.96875v2.0781c0 0.40625-0.09375 0.40625-0.6875 0.40625v0.28125c0.42188-0.015625 0.59375-0.03125 1.0156-0.03125 0.4375 0 0.54688 0.015625 1.0312 0.03125v-0.28125c-0.59375 0-0.70312 0-0.70312-0.40625v-1.6406c0-0.96875 0.70312-1.4062 1.25-1.4062 0.48438 0 0.64062 0.34375 0.64062 0.96875v2.0781c0 0.40625-0.09375 0.40625-0.6875 0.40625v0.28125c0.42188-0.015625 0.59375-0.03125 1.0312-0.03125 0.42188 0 0.54688 0.015625 1.0156 0.03125v-0.28125c-0.45312 0-0.67188 0-0.6875-0.28125v-1.7188c0-0.78125 0-1.0312-0.29688-1.3594-0.1875-0.21875-0.54688-0.32812-0.95312-0.32812-0.65625 0-1.0938 0.375-1.3438 0.85938-0.10938-0.53125-0.46875-0.85938-1.2188-0.85938-0.71875 0-1.1562 0.46875-1.3438 0.89062h-0.015625v-0.89062l-1.2969 0.10938v0.26562c0.60938 0 0.6875 0.0625 0.6875 0.51562v2.3906c0 0.40625-0.09375 0.40625-0.6875 0.40625v0.28125c0.42188-0.015625 0.59375-0.03125 1.0312-0.03125 0.42188 0 0.54688 0.015625 1.0156 0.03125v-0.28125c-0.59375 0-0.6875 0-0.6875-0.40625z"/>
  </g>
  <g id="p">
   <path d="m1.6719-2.3281c0-0.95312 0.67188-1.4062 1.2344-1.4062 0.53125 0 0.64062 0.4375 0.64062 0.96875v2.0781c0 0.40625-0.09375 0.40625-0.6875 0.40625v0.28125c0.42188-0.015625 0.59375-0.03125 1.0312-0.03125 0.42188 0 0.54688 0.015625 1.0156 0.03125v-0.28125c-0.45312 0-0.6875 0-0.6875-0.28125v-1.7188c0-0.73438 0-1-0.25-1.3125-0.20312-0.25-0.54688-0.375-1-0.375-0.82812 0-1.2188 0.625-1.3438 0.875h-0.015625v-0.875l-1.2969 0.10938v0.26562c0.60938 0 0.6875 0.0625 0.6875 0.51562v2.3906c0 0.40625-0.09375 0.40625-0.6875 0.40625v0.28125c0.42188-0.015625 0.59375-0.03125 1.0312-0.03125 0.42188 0 0.54688 0.015625 1.0156 0.03125v-0.28125c-0.59375 0-0.6875 0-0.6875-0.40625z"/>
  </g>
  <g id="g">
   <path d="m3.0781-3.7812c0-0.15625 0-0.23438-0.09375-0.23438-0.046875 0-0.0625 0-0.1875 0.10938-0.015625 0.015625-0.09375 0.09375-0.15625 0.14062-0.26562-0.20312-0.54688-0.25-0.85938-0.25-1.1875 0-1.4688 0.65625-1.4688 1.1094 0 0.28125 0.125 0.51562 0.32812 0.71875 0.29688 0.28125 0.64062 0.34375 1.0938 0.42188 0.46875 0.09375 0.60938 0.10938 0.8125 0.26562 0.09375 0.078125 0.3125 0.25 0.3125 0.57812 0 0.79688-0.90625 0.79688-1.0312 0.79688-0.90625 0-1.1406-0.76562-1.25-1.25-0.03125-0.09375-0.046875-0.14062-0.14062-0.14062-0.125 0-0.125 0.078125-0.125 0.23438v1.1406c0 0.15625 0 0.23438 0.09375 0.23438 0.0625 0 0.0625 0 0.23438-0.17188 0.03125-0.0625 0.125-0.17188 0.17188-0.21875 0.375 0.375 0.79688 0.39062 1.0156 0.39062 1.1094 0 1.4844-0.64062 1.4844-1.2344 0-0.40625-0.17188-0.65625-0.375-0.85938-0.29688-0.29688-0.625-0.35938-1.2812-0.48438-0.23438-0.046875-0.89062-0.15625-0.89062-0.67188 0-0.28125 0.20312-0.67188 1.0156-0.67188 0.96875 0 1.0312 0.75 1.0469 0.96875 0.015625 0.10938 0.015625 0.17188 0.125 0.17188 0.125 0 0.125-0.0625 0.125-0.23438z"/>
  </g>
  <g id="ax">
   <path d="m2.6875-3.5938v-0.26562h-1.0625v-1.0156c0-0.8125 0.4375-1.2188 0.82812-1.2188 0.078125 0 0.17188 0.015625 0.26562 0.046875-0.09375 0.03125-0.23438 0.14062-0.23438 0.375s0.17188 0.39062 0.39062 0.39062c0.25 0 0.40625-0.17188 0.40625-0.40625 0-0.34375-0.34375-0.64062-0.82812-0.64062-0.70312 0-1.4375 0.53125-1.4375 1.4375v1.0312h-0.70312v0.26562h0.70312v2.9062c0 0.40625-0.09375 0.40625-0.6875 0.40625v0.28125c0.46875-0.015625 0.59375-0.03125 1.0469-0.03125 0.35938 0 0.57812 0.015625 1.1406 0.03125v-0.28125h-0.1875c-0.65625 0-0.67188-0.09375-0.67188-0.42188v-2.8906z"/>
  </g>
  <g id="bp">
   <path d="m3.5781-2.8125c1.25 0 2.1719-0.78125 2.1719-1.6406 0-0.89062-0.92188-1.6719-2.1719-1.6719h-3.2188v0.28125h0.20312c0.6875 0 0.71875 0.09375 0.71875 0.42188v4.7188c0 0.32812-0.03125 0.42188-0.71875 0.42188h-0.20312v0.28125c0.40625-0.03125 0.90625-0.03125 1.3125-0.03125 0.42188 0 0.92188 0 1.3281 0.03125v-0.28125h-0.20312c-0.70312 0-0.71875-0.09375-0.71875-0.42188v-2.1094zm-1.5312-2.6719c0-0.29688 0.03125-0.35938 0.45312-0.35938h0.85938c1.4688 0 1.4688 0.98438 1.4688 1.3906s0 1.3906-1.4844 1.3906h-1.2969z"/>
  </g>
  <g id="bo">
   <path d="m5.5-6.0938h-5.1562v0.26562h0.20312c0.6875 0 0.70312 0.10938 0.70312 0.4375v4.6875c0 0.32812-0.015625 0.42188-0.70312 0.42188h-0.20312v0.28125h5.2656l0.39062-2.3125h-0.25c-0.21875 1.3906-0.45312 2.0312-1.9844 2.0312h-1.2656c-0.42188 0-0.4375-0.0625-0.4375-0.35938v-2.3906h0.82812c0.89062 0 1 0.28125 1 1.0469h0.25v-2.375h-0.25c0 0.76562-0.10938 1.0469-1 1.0469h-0.82812v-2.1406c0-0.3125 0.015625-0.375 0.4375-0.375h1.2031c1.4062 0 1.6562 0.48438 1.7969 1.75h0.25z"/>
  </g>
  <g id="aw">
   <path d="m5.4219-5.5469c-0.28125-0.28125-0.79688-0.78125-1.7031-0.78125-1.7344 0-3.2031 1.4531-3.2031 3.2656 0 1.8438 1.4844 3.2656 3.2031 3.2656 1.4844 0 2.4219-1.2344 2.4219-2.2812 0-0.09375 0-0.17188-0.125-0.17188s-0.125 0.0625-0.125 0.14062c-0.078125 1.3594-1.1562 2.0312-2.0781 2.0312-0.76562 0-2.3906-0.48438-2.3906-2.9844s1.6406-2.9844 2.375-2.9844c0.89062 0 1.8281 0.67188 2.0469 2.125 0.015625 0.125 0.03125 0.15625 0.14062 0.15625 0.15625 0 0.15625-0.03125 0.15625-0.21875v-2.1094c0-0.15625 0-0.23438-0.10938-0.23438-0.0625 0-0.09375 0.03125-0.14062 0.10938z"/>
  </g>
  <g id="av">
   <path d="m6.6406-3.0469c0-1.8281-1.3906-3.2812-3.0625-3.2812s-3.0625 1.4688-3.0625 3.2812c0 1.8281 1.3906 3.25 3.0625 3.25s3.0625-1.4219 3.0625-3.25zm-3.0625 2.9688c-0.90625 0-2.1562-0.78125-2.1562-3.0938 0-2.1875 1.2812-2.9062 2.1562-2.9062s2.1562 0.71875 2.1562 2.9062c0 2.3125-1.25 3.0938-2.1562 3.0938z"/>
  </g>
  <g id="ac">
   <path d="m1.125-1.6094c0.21875 0.14062 0.5 0.28125 0.90625 0.28125 0.85938 0 1.5-0.60938 1.5-1.3125 0-0.4375-0.25-0.75-0.35938-0.875 0.35938-0.32812 0.78125-0.32812 0.875-0.32812-0.03125 0.03125-0.10938 0.078125-0.10938 0.23438 0 0.10938 0.0625 0.26562 0.26562 0.26562 0.125 0 0.26562-0.078125 0.26562-0.26562 0-0.17188-0.125-0.45312-0.48438-0.45312-0.25 0-0.65625 0.09375-0.96875 0.42188-0.25-0.20312-0.59375-0.32812-0.96875-0.32812-0.85938 0-1.5 0.60938-1.5 1.3281 0 0.45312 0.26562 0.78125 0.40625 0.90625-0.015625 0.015625-0.26562 0.32812-0.26562 0.75 0 0.29688 0.14062 0.625 0.39062 0.78125-0.45312 0.15625-0.8125 0.48438-0.8125 0.90625 0 0.64062 0.875 1.1406 2.0312 1.1406 1.1094 0 2.0469-0.46875 2.0469-1.1562 0-0.375-0.17188-0.76562-0.5-0.98438-0.5-0.3125-1.0312-0.3125-1.875-0.3125-0.1875 0-0.46875 0-0.54688-0.015625-0.25-0.0625-0.42188-0.29688-0.42188-0.57812 0-0.15625 0.046875-0.28125 0.125-0.40625zm0.90625 0.046875c-0.79688 0-0.79688-0.89062-0.79688-1.0781 0-0.25 0.015625-0.54688 0.17188-0.76562 0.14062-0.1875 0.375-0.3125 0.625-0.3125 0.8125 0 0.8125 0.85938 0.8125 1.0781 0 0.20312 0 1.0781-0.8125 1.0781zm0.42188 1.5156c0.28125 0 1.3906 0.015625 1.3906 0.73438 0 0.51562-0.70312 0.92188-1.5312 0.92188-0.89062 0-1.5469-0.42188-1.5469-0.92188 0-0.14062 0.09375-0.73438 0.85938-0.73438z"/>
  </g>
  <g id="ai">
   <path d="m1.625-3.1719c-0.046875-0.125-0.046875-0.17188-0.046875-0.1875 0-0.23438 0.3125-0.23438 0.5-0.23438v-0.26562c-0.45312 0.015625-0.625 0.015625-1 0.015625-0.03125 0-0.54688 0-0.89062-0.015625v0.26562c0.40625 0 0.57812 0.03125 0.6875 0.26562l1.4062 3.3281-0.21875 0.53125c-0.20312 0.46875-0.45312 1.0781-1.0469 1.0781-0.21875 0-0.375-0.10938-0.39062-0.125 0.0625-0.015625 0.3125-0.078125 0.3125-0.39062 0-0.23438-0.17188-0.375-0.375-0.375-0.21875 0-0.39062 0.14062-0.39062 0.39062 0 0.39062 0.39062 0.73438 0.84375 0.73438 0.59375 0 0.96875-0.53125 1.1875-1.0156l1.625-3.7969c0.09375-0.23438 0.26562-0.59375 0.82812-0.625v-0.26562c-0.28125 0.015625-0.5625 0.015625-0.67188 0.015625-0.25 0-0.53125 0-0.78125-0.015625v0.26562c0.40625 0.03125 0.40625 0.34375 0.40625 0.39062 0 0.09375-0.03125 0.1875-0.0625 0.25l-0.90625 2.1406z"/>
  </g>
  <g id="bn">
   <path d="m5.3594-2.3125h-0.25c-0.09375 0.90625-0.21875 2.0312-1.8281 2.0312h-0.78125c-0.42188 0-0.4375-0.0625-0.4375-0.35938v-4.7656c0-0.32812 0.03125-0.4375 0.85938-0.4375h0.28125v-0.28125c-0.3125 0.03125-1.125 0.03125-1.4844 0.03125-0.42188 0-0.96875 0-1.375-0.03125v0.28125h0.20312c0.6875 0 0.70312 0.09375 0.70312 0.42188v4.7188c0 0.32812-0.015625 0.42188-0.70312 0.42188h-0.20312v0.28125h4.7656z"/>
  </g>
  <g id="o">
   <path d="m3.4844-1.0781c0 0.15625 0 0.1875-0.125 0.375-0.28125 0.40625-0.70312 0.57812-1.0469 0.57812-0.39062 0-0.75-0.21875-0.98438-0.59375-0.23438-0.39062-0.25-0.90625-0.25-1.2031 0-0.42188 0.046875-0.89062 0.28125-1.25 0.20312-0.29688 0.5625-0.5625 1.0469-0.5625 0.375 0 0.73438 0.1875 0.96875 0.53125 0.10938 0.14062 0.10938 0.14062 0.10938 0.3125zm0.03125-2.3594c-0.046875-0.046875-0.45312-0.53125-1.1406-0.53125-1.1094 0-2.0625 0.89062-2.0625 2.0469 0 1.1094 0.89062 2.0156 1.9531 2.0156 0.65625 0 1.0625-0.375 1.2188-0.5625v0.5625l1.3594-0.09375v-0.28125c-0.60938 0-0.6875-0.0625-0.6875-0.5v-5.4375l-1.3281 0.09375v0.28125c0.60938 0 0.6875 0.0625 0.6875 0.5z"/>
  </g>
  <g id="bm">
   <path d="m1.7656-3.375c0-0.28125-0.21875-0.48438-0.48438-0.48438-0.28125 0-0.48438 0.20312-0.48438 0.48438 0 0.25 0.20312 0.48438 0.48438 0.48438 0.26562 0 0.48438-0.23438 0.48438-0.48438zm0 2.8906c0-0.26562-0.21875-0.48438-0.48438-0.48438-0.28125 0-0.48438 0.21875-0.48438 0.48438s0.20312 0.48438 0.48438 0.48438c0.26562 0 0.48438-0.21875 0.48438-0.48438z"/>
  </g>
  <g id="ab">
   <path d="m1.625-3.0156c0.29688-0.51562 0.79688-0.70312 1.1719-0.70312 0.70312 0 1.2344 0.8125 1.2344 1.7812 0 1.0156-0.60938 1.8125-1.3281 1.8125-0.40625 0-0.75-0.23438-0.96875-0.54688-0.10938-0.1875-0.10938-0.20312-0.10938-0.375zm0 2.5781c0.23438 0.23438 0.53125 0.53125 1.125 0.53125 1.0781 0 2.0625-0.85938 2.0625-2.0312 0-1.125-0.89062-2.0312-1.9375-2.0312-0.48438 0-0.9375 0.20312-1.2812 0.5625v-0.5625l-1.3281 0.10938v0.26562c0.64062 0 0.6875 0.0625 0.6875 0.45312v4.1875c0 0.42188-0.09375 0.42188-0.6875 0.42188v0.26562c0.42188-0.015625 0.59375-0.015625 1.0312-0.015625 0.42188 0 0.54688 0 1.0156 0.015625v-0.26562c-0.59375 0-0.6875 0-0.6875-0.42188z"/>
  </g>
  <g id="at">
   <path d="m3.5469-1.5c0 0.79688-0.4375 1.375-1.0938 1.375-0.73438 0-0.78125-0.39062-0.78125-0.875v-2.9688l-1.3594 0.10938v0.26562c0.6875 0 0.6875 0.03125 0.6875 0.82812v1.3438c0 0.59375 0 0.96875 0.42188 1.2812 0.25 0.17188 0.625 0.23438 0.98438 0.23438 0.46875 0 0.90625-0.20312 1.1562-0.73438h0.015625v0.73438l1.3281-0.09375v-0.28125c-0.60938 0-0.6875-0.0625-0.6875-0.5v-3.1875l-1.3594 0.10938v0.26562c0.60938 0 0.6875 0.0625 0.6875 0.51562z"/>
  </g>
  <g id="bl">
   <path d="m2.5625-1.6562v-0.5625h-2.4688v0.5625z"/>
  </g>
  <g id="af">
   <path d="m1.625-0.14062c0 0.29688 0 1.0312-0.67188 1.6719-0.03125 0.046875-0.03125 0.078125-0.03125 0.09375 0 0.046875 0.046875 0.10938 0.10938 0.10938 0.09375 0 0.82812-0.6875 0.82812-1.75 0-0.625-0.23438-0.95312-0.57812-0.95312-0.32812 0-0.48438 0.25-0.48438 0.48438 0 0.25 0.15625 0.48438 0.48438 0.48438 0.21875 0 0.34375-0.14062 0.34375-0.14062z"/>
  </g>
  <g id="bk">
   <path d="m2.7344-2.0156c-0.0625-0.078125-0.0625-0.09375-0.0625-0.09375 0-0.03125 0.70312-0.875 0.76562-0.95312 0.28125-0.29688 0.59375-0.51562 1.1406-0.53125v-0.26562c-0.26562 0.015625-0.5 0.015625-0.76562 0.015625-0.34375 0-0.5 0-0.85938-0.015625v0.26562c0.125 0.03125 0.25 0.09375 0.25 0.28125 0 0.14062-0.078125 0.23438-0.125 0.29688l-0.57812 0.70312-0.70312-0.89062c-0.0625-0.078125-0.078125-0.09375-0.078125-0.15625 0-0.10938 0.10938-0.21875 0.3125-0.23438v-0.26562c-0.34375 0.015625-0.57812 0.015625-0.98438 0.015625-0.015625 0-0.53125 0-0.875-0.015625v0.26562c0.625 0 0.64062 0.03125 1.0469 0.54688l0.92188 1.1562c-0.1875 0.23438-0.67188 0.82812-0.85938 1.0625-0.45312 0.53125-0.96875 0.54688-1.1562 0.54688v0.28125c0.26562-0.03125 0.5-0.03125 0.76562-0.03125 0.28125 0 0.57812 0.015625 0.85938 0.03125v-0.28125c-0.21875-0.03125-0.25-0.17188-0.25-0.26562 0-0.03125 0-0.15625 0.125-0.3125 0.21875-0.28125 0.45312-0.54688 0.6875-0.8125l0.70312 0.90625c0.17188 0.1875 0.17188 0.20312 0.17188 0.26562 0 0.09375-0.09375 0.21875-0.3125 0.21875v0.28125c0.375-0.015625 0.59375-0.03125 0.98438-0.03125 0.015625 0 0.53125 0 0.875 0.03125v-0.28125c-0.35938 0-0.625 0-0.82812-0.25z"/>
  </g>
  <g id="as">
   <path d="m2.0469-3.1719v-2.3125c0-0.23438 0.03125-0.3125 0.20312-0.34375 0.078125-0.015625 0.35938-0.015625 0.54688-0.015625 0.76562 0 1.9062 0 1.9062 1.3281 0 0.78125-0.39062 1.3438-1.6094 1.3438zm2.0312 0.125c0.84375-0.23438 1.5469-0.76562 1.5469-1.4688 0-0.89062-1.0938-1.6094-2.4062-1.6094h-2.8594v0.28125h0.20312c0.6875 0 0.71875 0.09375 0.71875 0.42188v4.7188c0 0.32812-0.03125 0.42188-0.71875 0.42188h-0.20312v0.28125c0.42188-0.03125 0.875-0.03125 1.2969-0.03125 0.4375 0 0.875 0 1.3125 0.03125v-0.28125h-0.20312c-0.6875 0-0.71875-0.09375-0.71875-0.42188v-2.25h1.0781c0.65625 0 0.9375 0.34375 0.96875 0.375 0.28125 0.32812 0.28125 0.46875 0.28125 1.1094 0 0.59375 0 1 0.42188 1.3281 0.42188 0.34375 0.96875 0.34375 1.0625 0.34375 0.75 0 0.89062-0.78125 0.89062-1 0-0.0625 0-0.15625-0.125-0.15625s-0.125 0.078125-0.125 0.14062c-0.046875 0.57812-0.32812 0.78125-0.60938 0.78125s-0.39062-0.17188-0.45312-0.32812c-0.078125-0.20312-0.15625-0.8125-0.21875-1.2031-0.078125-0.5625-0.15625-1.1562-1.1406-1.4844z"/>
  </g>
  <g id="ar">
   <path d="m0.5625-5.8438c0.6875 0 0.71875 0.09375 0.71875 0.42188v4.7188c0 0.32812-0.03125 0.42188-0.71875 0.42188h-0.20312v0.28125h3.3281c1.5625 0 2.8281-1.3281 2.8281-3.0156 0-1.7031-1.2344-3.1094-2.8281-3.1094h-3.3281v0.28125zm1.9375 5.5625c-0.42188 0-0.45312-0.0625-0.45312-0.35938v-4.8438c0-0.29688 0.03125-0.35938 0.45312-0.35938h0.95312c0.875 0 1.4062 0.45312 1.6562 0.78125 0.39062 0.51562 0.51562 1.1562 0.51562 2.0469 0 0.375 0 1.3125-0.48438 1.9375-0.46875 0.60938-1.1094 0.79688-1.6719 0.79688z"/>
  </g>
  <g id="aq">
   <path d="m5.375-6.0938h-5.0312v0.26562h0.20312c0.6875 0 0.70312 0.10938 0.70312 0.4375v4.6875c0 0.32812-0.015625 0.42188-0.70312 0.42188h-0.20312v0.28125c0.40625-0.03125 0.95312-0.03125 1.375-0.03125 0.35938 0 1.1719 0 1.4844 0.03125v-0.28125h-0.28125c-0.82812 0-0.85938-0.10938-0.85938-0.4375v-2.2031h0.8125c0.85938 0 0.96875 0.29688 0.96875 1.0625h0.25v-2.3906h-0.25c0 0.76562-0.10938 1.0625-0.96875 1.0625h-0.8125v-2.2656c0-0.3125 0.015625-0.375 0.4375-0.375h1.125c1.375 0 1.6094 0.51562 1.75 1.75h0.25z"/>
  </g>
  <g id="ap">
   <path d="m2.0312-3.75c-0.71875-0.17188-0.95312-0.75-0.95312-1.1406 0-0.60938 0.48438-1.1875 1.25-1.1875 1.1562 0 1.625 0.875 1.75 1.7656 0.015625 0.17188 0.03125 0.21875 0.14062 0.21875 0.125 0 0.125-0.0625 0.125-0.25v-1.7344c0-0.17188 0-0.25-0.10938-0.25-0.0625 0-0.078125 0.015625-0.14062 0.125-0.10938 0.15625-0.015625 0.046875-0.3125 0.51562-0.15625-0.1875-0.625-0.64062-1.4688-0.64062-1.0469 0-1.7969 0.82812-1.7969 1.7344 0 0.70312 0.42188 1.125 0.46875 1.1719 0.39062 0.40625 0.5625 0.4375 1.625 0.70312 0.73438 0.15625 0.8125 0.1875 1.1094 0.48438 0 0.015625 0.3125 0.34375 0.3125 0.875 0 0.60938-0.4375 1.2812-1.2656 1.2812-0.6875 0-1.9375-0.29688-2-1.7656-0.015625-0.14062-0.015625-0.1875-0.125-0.1875-0.125 0-0.125 0.0625-0.125 0.25v1.7344c0 0.17188 0 0.25 0.10938 0.25 0.0625 0 0.0625-0.015625 0.125-0.125 0.125-0.15625 0.03125-0.046875 0.32812-0.51562 0.54688 0.54688 1.2656 0.64062 1.7031 0.64062 1.0938 0 1.8125-0.90625 1.8125-1.8594 0-0.51562-0.1875-0.90625-0.39062-1.1719-0.39062-0.5-0.79688-0.59375-1.375-0.73438z"/>
  </g>
  <g id="ao">
   <path d="m5.7188-3c0.1875-0.54688 0.5625-0.57812 0.75-0.59375v-0.26562c-0.35938 0.015625-0.375 0.015625-0.67188 0.015625-0.34375 0-0.46875 0-0.82812-0.015625v0.26562c0.39062 0.015625 0.51562 0.25 0.51562 0.4375 0 0.09375-0.015625 0.14062-0.046875 0.20312l-0.82812 2.25-0.90625-2.4688c-0.046875-0.10938-0.046875-0.14062-0.046875-0.17188 0-0.21875 0.28125-0.25 0.51562-0.25v-0.26562c-0.40625 0.015625-0.78125 0.015625-0.92188 0.015625-0.28125 0-0.54688 0-0.82812-0.015625v0.26562c0.28125 0 0.46875 0.015625 0.5625 0.14062 0.078125 0.09375 0.20312 0.45312 0.20312 0.48438 0 0.015625-0.046875 0.10938-0.046875 0.125l-0.73438 2.0156-0.85938-2.3281c-0.046875-0.14062-0.046875-0.15625-0.046875-0.1875 0-0.25 0.34375-0.25 0.51562-0.25v-0.26562c-0.40625 0.015625-0.60938 0.015625-0.96875 0.015625-0.29688 0-0.5625 0-0.875-0.015625v0.26562c0.4375 0 0.54688 0.03125 0.65625 0.32812l1.1562 3.1719c0.046875 0.10938 0.078125 0.1875 0.21875 0.1875 0.125 0 0.17188-0.09375 0.20312-0.1875l0.90625-2.5 0.9375 2.5c0.03125 0.09375 0.0625 0.1875 0.20312 0.1875 0.125 0 0.15625-0.078125 0.1875-0.17188z"/>
  </g>
  <g id="bj">
   <path d="m1.625-2.8594c0-0.17188 0-0.1875 0.09375-0.32812 0.3125-0.40625 0.75-0.54688 1.0938-0.54688 0.375 0 0.73438 0.20312 0.96875 0.59375 0.23438 0.375 0.25 0.90625 0.25 1.1875 0 0.42188-0.046875 0.90625-0.28125 1.2656-0.20312 0.28125-0.5625 0.5625-1.0469 0.5625-0.39062 0-0.73438-0.21875-0.95312-0.54688-0.125-0.1875-0.125-0.20312-0.125-0.375zm-0.078125 2.3125c0.28125 0.39062 0.71875 0.64062 1.2031 0.64062 1.0781 0 2.0625-0.85938 2.0625-2.0312 0-1.125-0.89062-2.0312-1.9688-2.0312-0.60938 0-1.0312 0.3125-1.25 0.5625v-2.8125l-1.3281 0.09375v0.28125c0.60938 0 0.6875 0.0625 0.6875 0.5v5.3438h0.25z"/>
  </g>
  <g id="y">
   <path d="m1.0312-0.28125c0.23438 0.21875 0.54688 0.34375 0.85938 0.34375 0.64062 0 1.1875-0.60938 1.1875-1.4531 0-0.75-0.39062-1.4375-1-1.4375-0.17188 0-0.64062 0.03125-1.0625 0.35938v-0.29688h-0.5v3.9688h0.51562zm0-1.7812c0.078125-0.10938 0.3125-0.34375 0.67188-0.34375 0.46875 0 0.85938 0.4375 0.85938 1.0312s-0.4375 1.0469-0.92188 1.0469c-0.20312 0-0.42188-0.09375-0.60938-0.39062z"/>
  </g>
  <g id="j">
   <path d="m2.6562-1.3594c0-0.1875 0-0.67188-0.25-1.0469-0.26562-0.39062-0.65625-0.45312-0.89062-0.45312-0.71875 0-1.2969 0.65625-1.2969 1.4531 0 0.82812 0.60938 1.4688 1.3906 1.4688 0.29688 0 0.65625-0.0625 1.0156-0.29688l-0.03125-0.4375c-0.40625 0.28125-0.76562 0.34375-0.98438 0.34375-0.51562 0-0.90625-0.46875-0.9375-1.0312zm-1.9375-0.375c0.09375-0.39062 0.40625-0.73438 0.79688-0.73438 0.21875 0 0.65625 0.10938 0.76562 0.73438z"/>
  </g>
  <g id="i">
   <path d="m2.625-0.67188c-0.3125 0.20312-0.64062 0.3125-1.0156 0.3125-0.51562 0-0.875-0.4375-0.875-1.0312 0-0.46875 0.23438-1.0469 0.90625-1.0469 0.39062 0 0.59375 0.0625 0.90625 0.28125l0.078125-0.4375c-0.34375-0.20312-0.54688-0.26562-0.98438-0.26562-0.89062 0-1.4219 0.73438-1.4219 1.4844 0 0.76562 0.57812 1.4375 1.3906 1.4375 0.4375 0 0.76562-0.125 1.0469-0.29688z"/>
  </g>
  <g id="b">
   <path d="m3-1.375c0-0.8125-0.625-1.4844-1.4062-1.4844-0.76562 0-1.4062 0.67188-1.4062 1.4844 0 0.82812 0.65625 1.4375 1.4062 1.4375 0.76562 0 1.4062-0.625 1.4062-1.4375zm-1.4062 1.0156c-0.46875 0-0.89062-0.375-0.89062-1.0781 0-0.71875 0.46875-1.0312 0.89062-1.0312 0.45312 0 0.89062 0.32812 0.89062 1.0312 0 0.73438-0.4375 1.0781-0.89062 1.0781z"/>
  </g>
  <g id="r">
   <path d="m1.1562-2.7656h-0.54688v0.54688h0.54688zm-0.54688 2.2344v0.53125h0.54688v-0.53125z"/>
  </g>
  <g id="v">
   <path d="m3.2969-2.0312v-0.40625h-2.1094v-1.4375h0.23438c0.5 0 1.0156 0.015625 1.5156 0.015625h0.53125v-0.4375h-2.875v4.2969h2.9688v-0.46875h-0.625c-0.57812 0-1.1719 0.015625-1.75 0.015625v-1.5781z"/>
  </g>
  <g id="u">
   <path d="m4.5625-1.8438c0-0.46875-0.125-0.98438-0.875-0.98438-0.51562 0-0.8125 0.3125-0.96875 0.51562-0.03125-0.125-0.17188-0.51562-0.79688-0.51562-0.5 0-0.79688 0.28125-0.9375 0.46875v-0.4375h-0.48438v2.7969h0.51562v-1.5156c0-0.40625 0.17188-0.90625 0.64062-0.90625 0.625 0 0.625 0.4375 0.625 0.625v1.7969h0.51562v-1.5156c0-0.40625 0.15625-0.90625 0.625-0.90625 0.625 0 0.625 0.4375 0.625 0.625v1.7969h0.51562z"/>
  </g>
  <g id="a">
   <path d="m1.0625-4.25h-0.60938v0.59375h0.60938zm-0.0625 1.4844h-0.48438v2.7656h0.48438z"/>
  </g>
  <g id="d">
   <path d="m2.1875-2.6719c-0.375-0.17188-0.65625-0.1875-0.92188-0.1875-0.14062 0-1.0469 0-1.0469 0.8125 0 0.29688 0.17188 0.48438 0.23438 0.54688 0.25 0.21875 0.40625 0.25 0.82812 0.32812 0.20312 0.03125 0.54688 0.10938 0.54688 0.42188 0 0.40625-0.5 0.40625-0.57812 0.40625-0.35938 0-0.71875-0.125-0.98438-0.3125l-0.078125 0.45312c0.35938 0.20312 0.75 0.26562 1.0625 0.26562 0.40625 0 1.0469-0.125 1.0469-0.85938 0-0.21875-0.078125-0.4375-0.29688-0.625s-0.40625-0.21875-0.78125-0.29688c-0.23438-0.046875-0.54688-0.09375-0.54688-0.39062 0-0.35938 0.45312-0.35938 0.54688-0.35938 0.45312 0 0.71875 0.14062 0.89062 0.23438z"/>
  </g>
  <g id="f">
   <path d="m2.7969-1.8438c0-0.46875-0.125-0.98438-0.875-0.98438-0.5 0-0.79688 0.28125-0.9375 0.46875v-0.4375h-0.48438v2.7969h0.51562v-1.5156c0-0.40625 0.17188-0.90625 0.64062-0.90625 0.625 0 0.625 0.4375 0.625 0.625v1.7969h0.51562z"/>
  </g>
  <g id="bi">
   <path d="m3.8281-1.8594h-1.3438v0.40625h0.82812v0.96875c-0.26562 0.0625-0.53125 0.125-0.8125 0.125-0.95312 0-1.5-0.95312-1.5-1.8125 0-0.875 0.5625-1.7969 1.5156-1.7969 0.45312 0 0.89062 0.17188 1.1719 0.4375l0.09375-0.54688c-0.28125-0.17188-0.75-0.3125-1.3125-0.3125-1.1875 0-2.0625 1.0781-2.0625 2.2188 0 1.1719 0.875 2.2344 2.0625 2.2344 0.5 0 0.92188-0.10938 1.3594-0.29688z"/>
  </g>
  <g id="x">
   <path d="m1.0156-1.3281c0-0.65625 0.51562-1.0469 1.0781-1.0469v-0.45312c-0.45312 0-0.85938 0.23438-1.125 0.59375v-0.5625h-0.45312v2.7969h0.5z"/>
  </g>
  <g id="m">
   <path d="m2.5625-1.7969c0-0.60938-0.45312-1.0625-1.0625-1.0625-0.40625 0-0.70312 0.09375-1.0156 0.26562l0.046875 0.4375c0.3125-0.21875 0.60938-0.3125 0.95312-0.3125s0.5625 0.28125 0.5625 0.67188v0.26562c-1.0781 0.03125-1.7656 0.3125-1.7656 0.8125 0 0.29688 0.1875 0.78125 0.71875 0.78125 0.125 0 0.67188 0 1.0625-0.29688v0.23438h0.5zm-0.51562 0.92188c0 0.14062 0 0.29688-0.21875 0.42188-0.15625 0.09375-0.35938 0.125-0.48438 0.125-0.32812 0-0.59375-0.15625-0.59375-0.40625 0-0.4375 1.2188-0.45312 1.2969-0.45312z"/>
  </g>
  <g id="c">
   <path d="m1.125-2.375h0.89062v-0.39062h-0.89062v-0.78125h-0.45312v0.78125h-0.54688v0.39062h0.51562v1.5938c0 0.35938 0.09375 0.84375 0.54688 0.84375 0.26562 0 0.59375-0.046875 0.9375-0.21875l-0.10938-0.39062c-0.15625 0.125-0.375 0.1875-0.5625 0.1875-0.25 0-0.32812-0.21875-0.32812-0.53125z"/>
  </g>
  <g id="ah">
   <path d="m2.4219-4.3125h-0.57812l-1.6562 4.3125h0.48438l0.46875-1.2344h1.8438l0.48438 1.2344h0.60938zm-0.35938 0.45312 0.78125 2.25h-1.5469z"/>
  </g>
  <g id="t">
   <path d="m2.8594-2.7656h-0.5l-0.48438 1.2656c-0.125 0.32812-0.35938 0.92188-0.39062 1.1562h-0.015625c0-0.10938-0.03125-0.21875-0.375-1.125-0.17188-0.5-0.48438-1.25-0.5-1.2969h-0.5l1.0938 2.7656h0.57812z"/>
  </g>
  <g id="w">
   <path d="m2.8594-2.7656h-0.5c-0.46875 1.1406-0.8125 1.9688-0.84375 2.4062-0.015625-0.29688-0.28125-0.9375-0.35938-1.1094-0.25-0.64062-0.35938-0.84375-0.54688-1.2969h-0.51562l1.2344 2.7656-0.23438 0.54688c-0.15625 0.35938-0.26562 0.35938-0.35938 0.35938s-0.3125-0.03125-0.5-0.10938l0.03125 0.42188c0.015625 0.015625 0.25 0.0625 0.46875 0.0625 0.15625 0 0.42188 0 0.73438-0.75z"/>
  </g>
  <g id="an">
   <path d="m3.7188-0.73438c-0.35938 0.28125-0.71875 0.375-1.2344 0.375-0.92188 0-1.4844-0.95312-1.4844-1.7812 0-0.92188 0.57812-1.8281 1.4844-1.8281 0.4375 0 0.8125 0.125 1.1094 0.34375l0.09375-0.54688c-0.3125-0.14062-0.71875-0.21875-1.1562-0.21875-1.2188 0-2.125 1-2.125 2.2344 0 1.1875 0.875 2.2188 2.125 2.2188 0.57812 0 0.8125-0.09375 1.2344-0.34375z"/>
  </g>
  <g id="ae">
   <path d="m1-4.3125h-0.48438v4.3125h0.48438z"/>
  </g>
  <g id="ad">
   <path d="m2.7969-2.7656h-0.51562v1.7969c0 0.5-0.39062 0.67188-0.76562 0.67188-0.45312 0-0.5-0.14062-0.5-0.40625v-2.0625h-0.51562v2.0938c0 0.51562 0.21875 0.73438 0.65625 0.73438 0.35938 0 0.84375-0.09375 1.1406-0.35938v0.29688h0.5z"/>
  </g>
  <g id="bh">
   <path d="m2.7812-2.8281h-0.5v0.42188c-0.10938-0.125-0.39062-0.42188-0.875-0.42188-0.64062 0-1.1875 0.60938-1.1875 1.4531 0 0.78125 0.45312 1.4375 1.0625 1.4375 0.40625 0 0.76562-0.1875 0.98438-0.375v1.5156h0.51562zm-0.5 1.9531c0 0.078125 0 0.1875-0.21875 0.35938-0.125 0.125-0.29688 0.1875-0.46875 0.1875-0.46875 0-0.85938-0.46875-0.85938-1.0469 0-0.60938 0.45312-1.0312 0.92188-1.0312 0.42188 0 0.625 0.42188 0.625 0.67188z"/>
  </g>
  <g id="bg">
   <path d="m2.7812-4.3125h-0.5v1.8281c-0.34375-0.29688-0.75-0.34375-0.9375-0.34375-0.64062 0-1.125 0.65625-1.125 1.4531s0.48438 1.4375 1.0938 1.4375c0.1875 0 0.57812-0.03125 0.95312-0.39062v0.32812h0.51562zm-0.51562 3.4375c0 0.10938 0 0.125-0.078125 0.21875-0.15625 0.21875-0.375 0.32812-0.59375 0.32812-0.40625 0-0.85938-0.29688-0.85938-1.0469 0-0.79688 0.53125-1.0469 0.92188-1.0469 0.29688 0 0.48438 0.15625 0.60938 0.3125z"/>
  </g>
  <g id="bf">
   <path d="m3.4062-0.20312c0.5625-0.39062 0.95312-1.0938 0.95312-1.9375 0-1.3125-0.92188-2.3125-2-2.3125s-2 1-2 2.3125c0 1.2969 0.92188 2.2812 2 2.2812 0.1875 0 0.4375-0.046875 0.59375-0.10938l0.53125 0.76562h0.6875zm-0.71875-0.125c-0.10938 0.03125-0.21875 0.046875-0.32812 0.046875-0.73438 0-1.4219-0.70312-1.4219-1.8594s0.67188-1.8906 1.4219-1.8906 1.4219 0.75 1.4219 1.8906c0 0.79688-0.34375 1.3125-0.64062 1.5625l-0.48438-0.625h-0.59375z"/>
  </g>
  <g id="be">
   <path d="m1.5156-2.6094c-0.3125-0.078125-0.625-0.32812-0.625-0.6875s0.32812-0.71875 0.90625-0.71875c0.4375 0 0.75 0.14062 1.0781 0.40625l0.09375-0.53125c-0.3125-0.15625-0.60938-0.3125-1.1719-0.3125-0.875 0-1.4375 0.60938-1.4375 1.2344 0 0.15625 0.03125 0.40625 0.23438 0.6875 0.29688 0.375 0.6875 0.46875 0.95312 0.53125 0.078125 0.03125 0.46875 0.125 0.51562 0.14062 0.28125 0.078125 0.59375 0.35938 0.59375 0.73438 0 0.42188-0.34375 0.79688-0.90625 0.79688-0.5 0-0.96875-0.1875-1.3594-0.5l-0.10938 0.53125c0.60938 0.39062 1.1875 0.4375 1.4688 0.4375 0.85938 0 1.4375-0.64062 1.4375-1.3281 0-0.70312-0.57812-1.1562-1.0469-1.2812z"/>
  </g>
  <g id="am">
   <path d="m4.3594-2.1406c0-1.3125-0.92188-2.3125-2-2.3125s-2 1-2 2.3125c0 1.2969 0.92188 2.2812 2 2.2812s2-0.98438 2-2.2812zm-2 1.8438c-0.75 0-1.4062-0.76562-1.4062-1.9375 0-1.1406 0.6875-1.7969 1.4062-1.7969 0.70312 0 1.4062 0.67188 1.4062 1.7969 0 1.1719-0.67188 1.9375-1.4062 1.9375z"/>
  </g>
  <g id="al">
   <path d="m1.0156-4.3125h-0.5v4.3125h0.51562v-0.29688c0.078125 0.09375 0.40625 0.35938 0.85938 0.35938 0.64062 0 1.1875-0.625 1.1875-1.4531 0-0.75-0.42188-1.4375-1.0312-1.4375-0.15625 0-0.60938 0.03125-1.0312 0.35938zm0.015625 2.2344c0.09375-0.125 0.3125-0.34375 0.67188-0.34375 0.375 0 0.85938 0.25 0.85938 1.0312 0 0.8125-0.54688 1.0625-0.92188 1.0625-0.39062 0-0.57812-0.34375-0.60938-0.39062z"/>
  </g>
  <g id="bd">
   <path d="m2.7969-1.8438c0-0.46875-0.125-0.98438-0.875-0.98438-0.35938 0-0.70312 0.17188-0.92188 0.45312v-1.9375h-0.5v4.3125h0.51562v-1.5156c0-0.40625 0.17188-0.90625 0.64062-0.90625 0.625 0 0.625 0.4375 0.625 0.625v1.7969h0.51562z"/>
  </g>
  <g id="bc">
   <path d="m1.6719-1.4219 1.1562-1.3438h-0.53125l-0.84375 1.0156-0.875-1.0156h-0.54688l1.2031 1.3438-1.2344 1.4219h0.54688l0.90625-1.1562 0.9375 1.1562h0.54688z"/>
  </g>
  <g id="bb">
   <path d="m5.9531-6.0938h-5.5781v0.4375h0.96875v5.2188h-0.96875v0.4375c0.3125-0.03125 1.2969-0.03125 1.6719-0.03125 0.42188 0 1.4375 0 1.8125 0.03125v-0.4375h-1.2188v-2.3906h0.48438c0.875 0 0.95312 0.375 0.95312 1.0469h0.45312v-2.5469h-0.45312c0 0.67188-0.078125 1.0469-0.95312 1.0469h-0.48438v-2.375h1.3281c1.4375 0 1.6562 0.67188 1.7969 1.7344h0.45312z"/>
  </g>
  <g id="ba">
   <path d="m2.1562-5.5312c0-0.45312-0.375-0.70312-0.70312-0.70312-0.40625 0-0.70312 0.34375-0.70312 0.70312 0 0.375 0.29688 0.70312 0.70312 0.70312 0.34375 0 0.70312-0.26562 0.70312-0.70312zm-1.6562 1.5625v0.4375c0.51562 0 0.57812 0 0.57812 0.35938v2.7344h-0.60938v0.4375c0.59375-0.015625 0.71875-0.03125 1.0938-0.03125 0.4375 0 0.54688 0.015625 1.0625 0.03125v-0.4375h-0.54688v-3.5938z"/>
  </g>
  <g id="az">
   <path d="m1.9375-0.76562c-0.28125 0-0.40625 0-0.5625-0.10938-0.14062-0.125-0.20312-0.26562-0.20312-0.45312 0-0.17188 0.0625-0.26562 0.0625-0.28125 0.32812 0.17188 0.73438 0.23438 1.125 0.23438 1.375 0 1.8438-0.73438 1.8438-1.3281 0-0.35938-0.17188-0.65625-0.35938-0.84375 0.23438-0.125 0.42188-0.14062 0.53125-0.17188 0 0.046875-0.03125 0.09375-0.03125 0.1875 0 0.23438 0.1875 0.40625 0.40625 0.40625 0.20312 0 0.40625-0.15625 0.40625-0.42188 0-0.23438-0.17188-0.54688-0.59375-0.54688-0.4375 0-0.8125 0.21875-0.98438 0.34375-0.375-0.21875-0.78125-0.28125-1.2188-0.28125-1.375 0-1.8438 0.73438-1.8438 1.3281 0 0.48438 0.3125 0.8125 0.46875 0.9375-0.1875 0.21875-0.29688 0.51562-0.29688 0.78125 0 0.39062 0.1875 0.70312 0.375 0.875-0.67188 0.1875-0.76562 0.5625-0.76562 0.76562 0 0.53125 0.625 1.1406 2.3438 1.1406 1.5781 0 2.3594-0.48438 2.3594-1.1719 0-0.3125-0.10938-0.85938-0.73438-1.1562-0.51562-0.23438-0.98438-0.23438-1.875-0.23438zm0.42188-0.96875c-0.8125 0-0.8125-0.57812-0.8125-0.96875 0-0.40625 0-0.96875 0.8125-0.96875s0.8125 0.5625 0.8125 0.96875c0 0.39062 0 0.96875-0.8125 0.96875zm0.53125 1.8594c0.28125 0 1.3125 0 1.3125 0.53125 0 0.29688-0.32812 0.78125-1.5469 0.78125-1.1875 0-1.5625-0.4375-1.5625-0.79688 0-0.51562 0.57812-0.51562 0.70312-0.51562z"/>
  </g>
  <g id="ak">
   <path d="m2.1719-0.70312c0-0.40625-0.32812-0.70312-0.6875-0.70312-0.42188 0-0.71875 0.32812-0.71875 0.70312 0 0.40625 0.34375 0.70312 0.70312 0.70312 0.42188 0 0.70312-0.32812 0.70312-0.70312z"/>
  </g>
  <g id="ay">
   <path d="m4.7656-2.0156h-0.45312c-0.015625 0.125-0.09375 0.76562-0.23438 0.82812-0.10938 0.046875-0.78125 0.046875-0.9375 0.046875h-1.2812c0.48438-0.39062 1.0156-0.8125 1.4688-1.125 0.75-0.53125 1.4375-1.0156 1.4375-1.8906 0-1.0469-0.95312-1.7344-2.25-1.7344-1.1094 0-1.9844 0.53125-1.9844 1.3594 0 0.46875 0.35938 0.6875 0.67188 0.6875 0.28125 0 0.65625-0.20312 0.65625-0.67188 0-0.20312-0.078125-0.53125-0.46875-0.64062 0.3125-0.25 0.71875-0.28125 0.89062-0.28125 0.73438 0 1.2031 0.54688 1.2031 1.2812 0 0.65625-0.375 1.2344-0.85938 1.7188l-2 1.9844c-0.09375 0.09375-0.09375 0.10938-0.09375 0.28125v0.17188h3.9688z"/>
  </g>
  <g id="aa">
   <path d="m0.89062-2.0469c0.046875 0 0.25 0 0.25-0.20312 0-0.1875-0.1875-0.1875-0.25-0.1875v-1.1719c0-0.14062 0-0.3125-0.1875-0.3125s-0.1875 0.1875-0.1875 0.3125v2.7188c0 0.14062 0 0.32812 0.1875 0.32812s0.1875-0.1875 0.1875-0.32812z"/>
  </g>
  <g id="z">
   <path d="m7.625-2.0469c-1.0625 0.75-1.2812 1.9375-1.2812 2.0312 0 0.125 0.125 0.125 0.1875 0.125 0.10938 0 0.17188 0 0.20312-0.125 0.25-1.0469 0.85938-1.75 1.8438-2.1094 0.046875-0.015625 0.125-0.046875 0.125-0.125s-0.0625-0.09375-0.125-0.125c-1.125-0.42188-1.6406-1.2188-1.8438-2.0938-0.03125-0.125-0.0625-0.125-0.20312-0.125-0.078125 0-0.1875 0-0.1875 0.125 0 0.09375 0.21875 1.2812 1.2812 2.0312h-6.7812c-0.15625 0-0.32812 0-0.32812 0.1875 0 0.20312 0.17188 0.20312 0.32812 0.20312z"/>
  </g>
 </defs>
 <path d="m170.34 118.72c0-6.1797-24.352-11.191-54.395-11.191-30.043 0-54.395 5.0117-54.395 11.191 0 6.1836 24.352 11.195 54.395 11.195 30.043 0 54.395-5.0117 54.395-11.195z" fill="none" stroke="#000" stroke-miterlimit="10" stroke-width=".55262"/>
 <g transform="translate(-135.03 -115.83)" fill="#7f7f7f">
  <use x="243.90854" y="231.52957" xlink:href="#y"/>
  <use x="247.38947" y="231.52957" xlink:href="#j"/>
  <use x="250.2294" y="231.52957" xlink:href="#i"/>
  <use x="253.06934" y="231.52957" xlink:href="#b"/>
  <use x="256.25806" y="231.52957" xlink:href="#r"/>
 </g>
 <g transform="translate(-135.03 -115.83)">
  <use x="214.63931" y="239.1282" xlink:href="#v"/>
  <use x="218.4771" y="239.1282" xlink:href="#u"/>
  <use x="223.55205" y="239.1282" xlink:href="#a"/>
  <use x="225.07771" y="239.1282" xlink:href="#d"/>
  <use x="227.52722" y="239.1282" xlink:href="#d"/>
  <use x="229.97673" y="239.1282" xlink:href="#a"/>
  <use x="231.5024" y="239.1282" xlink:href="#b"/>
  <use x="234.69733" y="239.1282" xlink:href="#f"/>
  <use x="237.99796" y="239.1282" xlink:href="#bi"/>
  <use x="242.25786" y="239.1282" xlink:href="#j"/>
  <use x="245.09781" y="239.1282" xlink:href="#f"/>
  <use x="248.39842" y="239.1282" xlink:href="#j"/>
  <use x="251.23836" y="239.1282" xlink:href="#x"/>
  <use x="253.42117" y="239.1282" xlink:href="#m"/>
  <use x="256.49115" y="239.1282" xlink:href="#c"/>
  <use x="258.79828" y="239.1282" xlink:href="#a"/>
  <use x="260.32394" y="239.1282" xlink:href="#b"/>
  <use x="263.51886" y="239.1282" xlink:href="#f"/>
  <use x="266.81949" y="239.1282" xlink:href="#ah"/>
  <use x="271.08871" y="239.1282" xlink:href="#i"/>
  <use x="273.92868" y="239.1282" xlink:href="#c"/>
  <use x="276.23581" y="239.1282" xlink:href="#a"/>
  <use x="277.76147" y="239.1282" xlink:href="#t"/>
  <use x="280.70709" y="239.1282" xlink:href="#a"/>
  <use x="282.23276" y="239.1282" xlink:href="#c"/>
  <use x="284.35962" y="239.1282" xlink:href="#w"/>
 </g>
 <path d="m308.57 118.72c0-6.1797-24.645-11.191-55.047-11.191-30.398 0-55.047 5.0117-55.047 11.191 0 6.1836 24.648 11.195 55.047 11.195 30.402 0 55.047-5.0117 55.047-11.195z" fill="none" stroke="#000" stroke-miterlimit="10" stroke-width=".55262"/>
 <g transform="translate(-135.03 -115.83)" fill="#7f7f7f">
  <use x="381.49048" y="231.52957" xlink:href="#y"/>
  <use x="384.97141" y="231.52957" xlink:href="#j"/>
  <use x="387.81134" y="231.52957" xlink:href="#i"/>
  <use x="390.65128" y="231.52957" xlink:href="#b"/>
  <use x="393.84622" y="231.52957" xlink:href="#r"/>
 </g>
 <g transform="translate(-135.03 -115.83)">
  <use x="351.76086" y="239.1282" xlink:href="#v"/>
  <use x="355.59863" y="239.1282" xlink:href="#u"/>
  <use x="360.67358" y="239.1282" xlink:href="#a"/>
  <use x="362.19925" y="239.1282" xlink:href="#d"/>
  <use x="364.64877" y="239.1282" xlink:href="#d"/>
  <use x="367.09827" y="239.1282" xlink:href="#a"/>
  <use x="368.62393" y="239.1282" xlink:href="#b"/>
  <use x="371.81888" y="239.1282" xlink:href="#f"/>
  <use x="375.11951" y="239.1282" xlink:href="#an"/>
  <use x="379.2016" y="239.1282" xlink:href="#m"/>
  <use x="382.27158" y="239.1282" xlink:href="#ae"/>
  <use x="383.79724" y="239.1282" xlink:href="#i"/>
  <use x="386.63718" y="239.1282" xlink:href="#ad"/>
  <use x="389.93781" y="239.1282" xlink:href="#ae"/>
  <use x="391.46344" y="239.1282" xlink:href="#m"/>
  <use x="394.53342" y="239.1282" xlink:href="#c"/>
  <use x="396.84058" y="239.1282" xlink:href="#a"/>
  <use x="398.36621" y="239.1282" xlink:href="#b"/>
  <use x="401.56116" y="239.1282" xlink:href="#f"/>
  <use x="404.86179" y="239.1282" xlink:href="#ah"/>
  <use x="409.13101" y="239.1282" xlink:href="#i"/>
  <use x="411.97095" y="239.1282" xlink:href="#c"/>
  <use x="414.27811" y="239.1282" xlink:href="#a"/>
  <use x="415.80377" y="239.1282" xlink:href="#t"/>
  <use x="418.74939" y="239.1282" xlink:href="#a"/>
  <use x="420.27505" y="239.1282" xlink:href="#c"/>
  <use x="422.40189" y="239.1282" xlink:href="#w"/>
 </g>
 <path d="m292.67 59.753c0-6.7891-8.7266-12.293-19.488-12.293-10.762 0-19.488 5.5039-19.488 12.293 0 6.7891 8.7266 12.293 19.488 12.293 10.762 0 19.488-5.5039 19.488-12.293z" fill="none" stroke="#000" stroke-dasharray="2.98883, 2.98883" stroke-miterlimit="10" stroke-width=".55262"/>
 <g transform="translate(-135.03 -115.83)" fill="#7f7f7f">
  <use x="401.21756" y="173.34265" xlink:href="#bh"/>
  <use x="404.51819" y="173.34265" xlink:href="#ad"/>
  <use x="407.81879" y="173.34265" xlink:href="#bg"/>
  <use x="411.11942" y="173.34265" xlink:href="#c"/>
  <use x="413.42657" y="173.34265" xlink:href="#r"/>
 </g>
 <g transform="translate(-135.03 -115.83)">
  <use x="396.55951" y="180.9413" xlink:href="#bf"/>
  <use x="401.28009" y="180.9413" xlink:href="#ad"/>
  <use x="404.58072" y="180.9413" xlink:href="#m"/>
  <use x="407.6507" y="180.9413" xlink:href="#f"/>
  <use x="410.95129" y="180.9413" xlink:href="#c"/>
  <use x="413.25845" y="180.9413" xlink:href="#a"/>
  <use x="414.78412" y="180.9413" xlink:href="#c"/>
  <use x="416.91095" y="180.9413" xlink:href="#w"/>
 </g>
 <path d="m246.47 20.444c0-6.1836-23.238-11.195-51.902-11.195-28.668 0-51.906 5.0117-51.906 11.195 0 6.1836 23.238 11.195 51.906 11.195 28.664 0 51.902-5.0117 51.902-11.195z" fill="none" stroke="#000" stroke-miterlimit="10" stroke-width=".55262"/>
 <g transform="translate(-135.03 -115.83)" fill="#7f7f7f">
  <use x="322.52701" y="133.25616" xlink:href="#y"/>
  <use x="326.0079" y="133.25616" xlink:href="#j"/>
  <use x="328.84784" y="133.25616" xlink:href="#i"/>
  <use x="331.68158" y="133.25616" xlink:href="#b"/>
  <use x="334.8765" y="133.25616" xlink:href="#r"/>
 </g>
 <g transform="translate(-135.03 -115.83)">
  <use x="295.01822" y="140.8548" xlink:href="#v"/>
  <use x="298.85602" y="140.8548" xlink:href="#u"/>
  <use x="303.93097" y="140.8548" xlink:href="#a"/>
  <use x="305.45663" y="140.8548" xlink:href="#d"/>
  <use x="307.90613" y="140.8548" xlink:href="#d"/>
  <use x="310.35565" y="140.8548" xlink:href="#a"/>
  <use x="311.88132" y="140.8548" xlink:href="#b"/>
  <use x="315.07623" y="140.8548" xlink:href="#f"/>
  <use x="318.37686" y="140.8548" xlink:href="#an"/>
  <use x="322.45898" y="140.8548" xlink:href="#m"/>
  <use x="325.52893" y="140.8548" xlink:href="#ae"/>
  <use x="327.0546" y="140.8548" xlink:href="#i"/>
  <use x="329.89453" y="140.8548" xlink:href="#ad"/>
  <use x="333.19516" y="140.8548" xlink:href="#ae"/>
  <use x="334.72083" y="140.8548" xlink:href="#m"/>
  <use x="337.7908" y="140.8548" xlink:href="#c"/>
  <use x="340.09793" y="140.8548" xlink:href="#a"/>
  <use x="341.6236" y="140.8548" xlink:href="#b"/>
  <use x="344.81854" y="140.8548" xlink:href="#f"/>
  <use x="348.11914" y="140.8548" xlink:href="#v"/>
  <use x="351.95694" y="140.8548" xlink:href="#f"/>
  <use x="355.25754" y="140.8548" xlink:href="#c"/>
  <use x="357.5647" y="140.8548" xlink:href="#a"/>
  <use x="359.09036" y="140.8548" xlink:href="#c"/>
  <use x="361.21719" y="140.8548" xlink:href="#w"/>
 </g>
 <path d="m228.57 59.753c0-6.1797-6.4297-11.191-14.359-11.191-7.9297 0-14.359 5.0117-14.359 11.191 0 6.1836 6.4297 11.195 14.359 11.195 7.9297 0 14.359-5.0117 14.359-11.195z" fill="none" stroke="#000" stroke-dasharray="2.98883, 2.98883" stroke-miterlimit="10" stroke-width=".55262"/>
 <g transform="translate(-135.03 -115.83)" fill="#7f7f7f">
  <use x="342.63474" y="172.56538" xlink:href="#y"/>
  <use x="345.75507" y="172.56538" xlink:href="#x"/>
  <use x="347.93787" y="172.56538" xlink:href="#b"/>
  <use x="351.13278" y="172.56538" xlink:href="#t"/>
  <use x="354.07843" y="172.56538" xlink:href="#r"/>
 </g>
 <g transform="translate(-135.03 -115.83)">
  <use x="341.22232" y="180.16402" xlink:href="#v"/>
  <use x="345.06009" y="180.16402" xlink:href="#f"/>
  <use x="348.36072" y="180.16402" xlink:href="#c"/>
  <use x="350.66788" y="180.16402" xlink:href="#a"/>
  <use x="352.19351" y="180.16402" xlink:href="#c"/>
  <use x="354.32037" y="180.16402" xlink:href="#w"/>
 </g>
 <path d="m202.24 89.237c0-6.1836-7.8359-11.195-17.5-11.195-9.6641 0-17.5 5.0117-17.5 11.195 0 6.1797 7.8359 11.191 17.5 11.191 9.6641 0 17.5-5.0117 17.5-11.191z" fill="none" stroke="#000" stroke-dasharray="2.98883, 2.98883" stroke-miterlimit="10" stroke-width=".55262"/>
 <g transform="translate(-135.03 -115.83)" fill="#7f7f7f">
  <use x="313.15332" y="202.04747" xlink:href="#y"/>
  <use x="316.27365" y="202.04747" xlink:href="#x"/>
  <use x="318.45645" y="202.04747" xlink:href="#b"/>
  <use x="321.6514" y="202.04747" xlink:href="#t"/>
  <use x="324.59702" y="202.04747" xlink:href="#r"/>
 </g>
 <g transform="translate(-135.03 -115.83)">
  <use x="309.51938" y="209.64612" xlink:href="#ah"/>
  <use x="313.7886" y="209.64612" xlink:href="#i"/>
  <use x="316.62854" y="209.64612" xlink:href="#c"/>
  <use x="318.9357" y="209.64612" xlink:href="#a"/>
  <use x="320.46136" y="209.64612" xlink:href="#t"/>
  <use x="323.40698" y="209.64612" xlink:href="#a"/>
  <use x="324.93265" y="209.64612" xlink:href="#c"/>
  <use x="327.05948" y="209.64612" xlink:href="#w"/>
 </g>
 <path d="m165.33 59.753c0-5.7109-13.312-10.34-29.73-10.34-16.422 0-29.734 4.6289-29.734 10.34 0 5.7109 13.312 10.34 29.734 10.34 16.418 0 29.73-4.6289 29.73-10.34z" fill="none" stroke="#000" stroke-miterlimit="10" stroke-width=".55262"/>
 <g transform="translate(-135.03 -115.83)" fill="#7f7f7f">
  <use x="263.56351" y="173.17" xlink:href="#y"/>
  <use x="267.03821" y="173.17" xlink:href="#j"/>
  <use x="269.87814" y="173.17" xlink:href="#i"/>
  <use x="272.71808" y="173.17" xlink:href="#b"/>
  <use x="275.91302" y="173.17" xlink:href="#r"/>
 </g>
 <g transform="translate(-135.03 -115.83)">
  <use x="251.73323" y="180.76865" xlink:href="#v"/>
  <use x="255.571" y="180.76865" xlink:href="#u"/>
  <use x="260.64597" y="180.76865" xlink:href="#a"/>
  <use x="262.17163" y="180.76865" xlink:href="#d"/>
  <use x="264.62112" y="180.76865" xlink:href="#d"/>
  <use x="267.07065" y="180.76865" xlink:href="#a"/>
  <use x="268.59631" y="180.76865" xlink:href="#b"/>
  <use x="271.79123" y="180.76865" xlink:href="#f"/>
  <use x="275.09186" y="180.76865" xlink:href="#be"/>
  <use x="278.64178" y="180.76865" xlink:href="#i"/>
  <use x="281.48172" y="180.76865" xlink:href="#b"/>
  <use x="284.49637" y="180.76865" xlink:href="#x"/>
  <use x="286.67917" y="180.76865" xlink:href="#j"/>
 </g>
 <path d="m102.16 10.616c0-5.7109-11.43-10.34-25.523-10.34-14.098 0-25.523 4.6289-25.523 10.34 0 5.7109 11.426 10.34 25.523 10.34 14.094 0 25.523-4.6289 25.523-10.34z" fill="none" stroke="#000" stroke-dasharray="2.98883, 2.98883" stroke-miterlimit="10" stroke-width=".55262"/>
 <g transform="translate(-135.03 -115.83)" fill="#7f7f7f">
  <use x="205.19423" y="124.03365" xlink:href="#d"/>
  <use x="207.64374" y="124.03365" xlink:href="#b"/>
  <use x="210.83867" y="124.03365" xlink:href="#d"/>
  <use x="213.28818" y="124.03365" xlink:href="#m"/>
  <use x="216.35815" y="124.03365" xlink:href="#r"/>
 </g>
 <g transform="translate(-135.03 -115.83)">
  <use x="195.74498" y="131.63228" xlink:href="#am"/>
  <use x="200.46558" y="131.63228" xlink:href="#al"/>
  <use x="203.7662" y="131.63228" xlink:href="#d"/>
  <use x="206.21571" y="131.63228" xlink:href="#j"/>
  <use x="209.05565" y="131.63228" xlink:href="#x"/>
  <use x="211.23845" y="131.63228" xlink:href="#t"/>
  <use x="214.18408" y="131.63228" xlink:href="#m"/>
  <use x="217.25404" y="131.63228" xlink:href="#c"/>
  <use x="219.56119" y="131.63228" xlink:href="#a"/>
  <use x="221.08685" y="131.63228" xlink:href="#b"/>
  <use x="224.28178" y="131.63228" xlink:href="#f"/>
 </g>
 <path d="m118.67 40.101c0-5.7109-18.82-10.34-42.039-10.34-23.219 0-42.043 4.6289-42.043 10.34 0 5.707 18.824 10.336 42.043 10.336 23.219 0 42.039-4.6289 42.039-10.336z" fill="none" stroke="#000" stroke-miterlimit="10" stroke-width=".55262"/>
 <g transform="translate(-135.03 -115.83)" fill="#7f7f7f">
  <use x="204.59932" y="153.51573" xlink:href="#y"/>
  <use x="208.08023" y="153.51573" xlink:href="#j"/>
  <use x="210.92018" y="153.51573" xlink:href="#i"/>
  <use x="213.76012" y="153.51573" xlink:href="#b"/>
  <use x="216.95505" y="153.51573" xlink:href="#r"/>
 </g>
 <g transform="translate(-135.03 -115.83)">
  <use x="184.06656" y="161.11438" xlink:href="#v"/>
  <use x="187.90433" y="161.11438" xlink:href="#u"/>
  <use x="192.97929" y="161.11438" xlink:href="#a"/>
  <use x="194.50494" y="161.11438" xlink:href="#d"/>
  <use x="196.95447" y="161.11438" xlink:href="#d"/>
  <use x="199.40398" y="161.11438" xlink:href="#a"/>
  <use x="200.92963" y="161.11438" xlink:href="#b"/>
  <use x="204.12456" y="161.11438" xlink:href="#f"/>
  <use x="207.42519" y="161.11438" xlink:href="#am"/>
  <use x="212.14578" y="161.11438" xlink:href="#al"/>
  <use x="215.4464" y="161.11438" xlink:href="#d"/>
  <use x="217.89592" y="161.11438" xlink:href="#j"/>
  <use x="220.73586" y="161.11438" xlink:href="#x"/>
  <use x="222.91866" y="161.11438" xlink:href="#t"/>
  <use x="225.86429" y="161.11438" xlink:href="#m"/>
  <use x="228.93425" y="161.11438" xlink:href="#c"/>
  <use x="231.24139" y="161.11438" xlink:href="#a"/>
  <use x="232.76706" y="161.11438" xlink:href="#b"/>
  <use x="235.96199" y="161.11438" xlink:href="#f"/>
 </g>
 <path d="m119.75 107.28 11.246-33.738" fill="none" stroke="#000" stroke-miterlimit="10" stroke-width=".55262"/>
 <g>
  <path d="m132 70.558c-0.21484 0.33594-1.2656 1.7734-2.1602 2.5938l2.332 0.77734c-0.22657-1.1914-0.20313-2.9766-0.17188-3.3711z" stroke="#000" stroke-linejoin="round" stroke-miterlimit="10" stroke-width=".5526"/>
  <path d="m104.88 96.874h42.078v-16.176h-42.078z" fill="#fff"/>
  <g transform="translate(-135.03 -115.83)">
   <use x="256.53967" y="202.97867" xlink:href="#bd"/>
   <use x="259.8403" y="202.97867" xlink:href="#m"/>
   <use x="262.91025" y="202.97867" xlink:href="#d"/>
   <use x="242.03992" y="210.57732" xlink:href="#j"/>
   <use x="244.87985" y="210.57732" xlink:href="#u"/>
   <use x="249.95482" y="210.57732" xlink:href="#a"/>
   <use x="251.48047" y="210.57732" xlink:href="#d"/>
   <use x="253.92999" y="210.57732" xlink:href="#d"/>
   <use x="256.37949" y="210.57732" xlink:href="#a"/>
   <use x="257.90515" y="210.57732" xlink:href="#b"/>
   <use x="261.1001" y="210.57732" xlink:href="#f"/>
   <use x="266.52695" y="210.57732" xlink:href="#d"/>
   <use x="268.97644" y="210.57732" xlink:href="#i"/>
   <use x="271.81638" y="210.57732" xlink:href="#b"/>
   <use x="274.83725" y="210.57732" xlink:href="#x"/>
   <use x="277.02005" y="210.57732" xlink:href="#j"/>
  </g>
 </g>
 <g fill="none" stroke="#000" stroke-miterlimit="10">
  <path d="m149.66 50.378 25.715-17.145" stroke-dasharray="2.98883, 2.98883" stroke-width=".55262"/>
  <path d="m177.99 31.491c-0.375 0.13281-2.0898 0.625-3.2969 0.71875l1.3633 2.0469c0.55469-1.082 1.6641-2.4727 1.9336-2.7656z" stroke-linejoin="round" stroke-width=".5526"/>
  <path d="m215.56 30.944 39.027 19.512" stroke-dasharray="2.98883, 2.98883" stroke-width=".55262"/>
  <path d="m257.4 51.862c-0.30469-0.25781-1.5781-1.5039-2.2656-2.5039l-1.0977 2.1953c1.2148-0.05078 2.9727 0.22266 3.3633 0.30859z" stroke-linejoin="round" stroke-width=".5526"/>
  <path d="m200.26 31.847 7.0859 14.172" stroke-dasharray="2.98883, 2.98883" stroke-width=".55262"/>
  <path d="m208.75 48.827c-0.0898-0.38672-0.36328-2.1484-0.30859-3.3594l-2.1992 1.0977c1.0039 0.68359 2.25 1.9609 2.5078 2.2617z" stroke-linejoin="round" stroke-width=".55259"/>
  <path d="m143.24 108.78 24.039-11.324" stroke-dasharray="2.98883, 2.98883" stroke-width=".55262"/>
  <path d="m170.13 96.116c-0.38672 0.07812-2.1562 0.30859-3.3672 0.22656l1.0469 2.2266c0.71094-0.98828 2.0117-2.2031 2.3203-2.4531z" stroke-linejoin="round" stroke-width=".5526"/>
  <path d="m229.43 108.39-26.75-11.465" stroke-dasharray="2.98883, 2.98883" stroke-width=".55262"/>
  <path d="m199.79 95.69c0.31641 0.23828 1.6641 1.4062 2.4062 2.3672l0.96875-2.2578c-1.207 0.125-2.9805-0.04687-3.375-0.10937z" stroke-linejoin="round" stroke-width=".55259"/>
  <g stroke-width=".55262">
   <path d="m76.633 29.483v-4.832" stroke-dasharray="2.98883, 2.98883"/>
   <path d="m76.633 21.507c-0.09766 0.38672-0.64062 2.0859-1.2305 3.1445h2.457c-0.58984-1.0586-1.1328-2.7578-1.2266-3.1445z" stroke-linejoin="round"/>
   <path d="m79.255 50.694 13.438 54.246"/>
  </g>
 </g>
 <g>
  <path d="m93.446 107.99c0-0.39844 0.11719-2.1758 0.4375-3.3477l-2.3867 0.58985c0.82812 0.89062 1.7617 2.4062 1.9492 2.7578z" stroke="#000" stroke-linejoin="round" stroke-miterlimit="10" stroke-width=".55261"/>
  <path d="m63.676 88.132h45.414v-17.312h-45.414z" fill="#fff"/>
  <g transform="translate(-135.03 -115.83)">
   <use x="206.75708" y="193.02812" xlink:href="#a"/>
   <use x="208.28275" y="193.02812" xlink:href="#f"/>
   <use x="213.70959" y="193.02812" xlink:href="#j"/>
   <use x="216.54953" y="193.02812" xlink:href="#u"/>
   <use x="221.63071" y="193.02812" xlink:href="#a"/>
   <use x="223.15016" y="193.02812" xlink:href="#d"/>
   <use x="225.59967" y="193.02812" xlink:href="#d"/>
   <use x="228.04918" y="193.02812" xlink:href="#a"/>
   <use x="229.57484" y="193.02812" xlink:href="#b"/>
   <use x="232.76978" y="193.02812" xlink:href="#f"/>
   <use x="200.83778" y="200.62675" xlink:href="#m"/>
   <use x="203.90776" y="200.62675" xlink:href="#i"/>
   <use x="206.7477" y="200.62675" xlink:href="#c"/>
   <use x="209.05484" y="200.62675" xlink:href="#a"/>
   <use x="210.58049" y="200.62675" xlink:href="#t"/>
   <use x="213.52612" y="200.62675" xlink:href="#a"/>
   <use x="215.05179" y="200.62675" xlink:href="#c"/>
   <use x="217.17863" y="200.62675" xlink:href="#w"/>
   <use x="222.25671" y="200.62675" xlink:href="#i"/>
   <use x="225.09665" y="200.62675" xlink:href="#b"/>
   <use x="228.29158" y="200.62675" xlink:href="#f"/>
   <use x="231.59221" y="200.62675" xlink:href="#c"/>
   <use x="233.89934" y="200.62675" xlink:href="#j"/>
   <use x="236.73929" y="200.62675" xlink:href="#bc"/>
   <use x="239.68492" y="200.62675" xlink:href="#c"/>
   <use x="134.765" y="266.94299" xlink:href="#bb"/>
   <use x="141.43332" y="266.94299" xlink:href="#ba"/>
   <use x="144.38057" y="266.94299" xlink:href="#az"/>
   <use x="149.68599" y="266.94299" xlink:href="#ak"/>
   <use x="154.39963" y="266.94299" xlink:href="#ay"/>
   <use x="159.70505" y="266.94299" xlink:href="#ak"/>
   <use x="164.94501" y="266.94299" xlink:href="#br"/>
   <use x="171.60075" y="266.94299" xlink:href="#ag"/>
   <use x="176.72057" y="266.94299" xlink:href="#e"/>
   <use x="183.11542" y="266.94299" xlink:href="#bq"/>
   <use x="190.79514" y="266.94299" xlink:href="#l"/>
   <use x="195.40297" y="266.94299" xlink:href="#n"/>
   <use x="197.96288" y="266.94299" xlink:href="#p"/>
   <use x="205.36913" y="266.94299" xlink:href="#e"/>
   <use x="209.46855" y="266.94299" xlink:href="#p"/>
   <use x="214.33731" y="266.94299" xlink:href="#q"/>
   <use x="217.92119" y="266.94299" xlink:href="#n"/>
   <use x="220.48109" y="266.94299" xlink:href="#q"/>
   <use x="224.06496" y="266.94299" xlink:href="#n"/>
   <use x="226.62486" y="266.94299" xlink:href="#e"/>
   <use x="230.7243" y="266.94299" xlink:href="#g"/>
   <use x="236.64572" y="266.94299" xlink:href="#h"/>
   <use x="241.25354" y="266.94299" xlink:href="#ax"/>
   <use x="246.3644" y="266.94299" xlink:href="#bp"/>
   <use x="252.6355" y="266.94299" xlink:href="#bo"/>
   <use x="258.90659" y="266.94299" xlink:href="#aw"/>
   <use x="265.56235" y="266.94299" xlink:href="#av"/>
   <use x="275.01654" y="266.94299" xlink:href="#h"/>
   <use x="279.62436" y="266.94299" xlink:href="#p"/>
   <use x="284.4931" y="266.94299" xlink:href="#q"/>
   <use x="288.077" y="266.94299" xlink:href="#h"/>
   <use x="292.68481" y="266.94299" xlink:href="#k"/>
   <use x="295.24472" y="266.94299" xlink:href="#h"/>
   <use x="299.85257" y="266.94299" xlink:href="#ac"/>
   <use x="304.46039" y="266.94299" xlink:href="#ai"/>
   <use x="308.55264" y="266.94299" xlink:href="#au"/>
   <use x="313.40796" y="266.94299" xlink:href="#bn"/>
   <use x="319.16708" y="266.94299" xlink:href="#e"/>
   <use x="323.26651" y="266.94299" xlink:href="#ac"/>
   <use x="327.87436" y="266.94299" xlink:href="#e"/>
   <use x="331.97379" y="266.94299" xlink:href="#p"/>
   <use x="337.0936" y="266.94299" xlink:href="#o"/>
   <use x="342.21341" y="266.94299" xlink:href="#bm"/>
   <use x="347.05975" y="266.94299" xlink:href="#g"/>
   <use x="350.69473" y="266.94299" xlink:href="#h"/>
   <use x="355.30258" y="266.94299" xlink:href="#k"/>
   <use x="357.86249" y="266.94299" xlink:href="#n"/>
   <use x="360.42239" y="266.94299" xlink:href="#o"/>
   <use x="367.83759" y="266.94299" xlink:href="#e"/>
   <use x="371.93704" y="266.94299" xlink:href="#k"/>
   <use x="374.49695" y="266.94299" xlink:href="#k"/>
   <use x="377.05685" y="266.94299" xlink:href="#n"/>
   <use x="379.61676" y="266.94299" xlink:href="#ab"/>
   <use x="384.73657" y="266.94299" xlink:href="#g"/>
   <use x="388.37155" y="266.94299" xlink:href="#e"/>
   <use x="394.76001" y="266.94299" xlink:href="#aa"/>
   <use x="394.76001" y="266.94299" xlink:href="#z"/>
   <use x="406.26801" y="266.94299" xlink:href="#aj"/>
   <use x="410.36386" y="266.94299" xlink:href="#k"/>
   <use x="412.92377" y="266.94299" xlink:href="#l"/>
   <use x="417.53159" y="266.94299" xlink:href="#g"/>
   <use x="421.16656" y="266.94299" xlink:href="#g"/>
   <use x="427.09695" y="266.94299" xlink:href="#n"/>
   <use x="429.65686" y="266.94299" xlink:href="#p"/>
   <use x="437.06311" y="266.94299" xlink:href="#h"/>
   <use x="441.67093" y="266.94299" xlink:href="#at"/>
   <use x="446.79074" y="266.94299" xlink:href="#s"/>
   <use x="452.69064" y="266.94299" xlink:href="#h"/>
   <use x="457.29846" y="266.94299" xlink:href="#p"/>
   <use x="462.15826" y="266.94299" xlink:href="#q"/>
   <use x="465.74213" y="266.94299" xlink:href="#h"/>
   <use x="470.34998" y="266.94299" xlink:href="#k"/>
   <use x="472.90988" y="266.94299" xlink:href="#h"/>
   <use x="477.5177" y="266.94299" xlink:href="#bl"/>
   <use x="134.765" y="277.90201" xlink:href="#ac"/>
   <use x="139.37283" y="277.90201" xlink:href="#n"/>
   <use x="141.93274" y="277.90201" xlink:href="#e"/>
   <use x="146.03218" y="277.90201" xlink:href="#g"/>
   <use x="149.66716" y="277.90201" xlink:href="#af"/>
   <use x="154.6749" y="277.90201" xlink:href="#o"/>
   <use x="159.79471" y="277.90201" xlink:href="#l"/>
   <use x="164.40254" y="277.90201" xlink:href="#g"/>
   <use x="168.03752" y="277.90201" xlink:href="#ag"/>
   <use x="173.15733" y="277.90201" xlink:href="#e"/>
   <use x="177.25677" y="277.90201" xlink:href="#o"/>
   <use x="184.82442" y="277.90201" xlink:href="#e"/>
   <use x="188.92384" y="277.90201" xlink:href="#k"/>
   <use x="191.48375" y="277.90201" xlink:href="#k"/>
   <use x="194.04367" y="277.90201" xlink:href="#n"/>
   <use x="196.60358" y="277.90201" xlink:href="#ab"/>
   <use x="201.72339" y="277.90201" xlink:href="#g"/>
   <use x="205.35837" y="277.90201" xlink:href="#e"/>
   <use x="211.905" y="277.90201" xlink:href="#aa"/>
   <use x="211.905" y="277.90201" xlink:href="#z"/>
   <use x="223.56799" y="277.90201" xlink:href="#aj"/>
   <use x="227.66385" y="277.90201" xlink:href="#k"/>
   <use x="230.22375" y="277.90201" xlink:href="#l"/>
   <use x="234.83159" y="277.90201" xlink:href="#g"/>
   <use x="238.46657" y="277.90201" xlink:href="#g"/>
   <use x="244.54938" y="277.90201" xlink:href="#n"/>
   <use x="247.10928" y="277.90201" xlink:href="#p"/>
   <use x="254.67693" y="277.90201" xlink:href="#e"/>
   <use x="258.77637" y="277.90201" xlink:href="#bk"/>
   <use x="263.63974" y="277.90201" xlink:href="#q"/>
   <use x="267.2236" y="277.90201" xlink:href="#e"/>
   <use x="271.32306" y="277.90201" xlink:href="#s"/>
   <use x="274.92755" y="277.90201" xlink:href="#p"/>
   <use x="280.04736" y="277.90201" xlink:href="#l"/>
   <use x="284.65518" y="277.90201" xlink:href="#k"/>
   <use x="289.66293" y="277.90201" xlink:href="#h"/>
   <use x="294.27075" y="277.90201" xlink:href="#p"/>
   <use x="299.1395" y="277.90201" xlink:href="#q"/>
   <use x="302.71442" y="277.90201" xlink:href="#h"/>
   <use x="307.32224" y="277.90201" xlink:href="#k"/>
   <use x="309.88214" y="277.90201" xlink:href="#h"/>
   <use x="314.48999" y="277.90201" xlink:href="#ac"/>
   <use x="319.09781" y="277.90201" xlink:href="#n"/>
   <use x="321.65771" y="277.90201" xlink:href="#e"/>
   <use x="325.75717" y="277.90201" xlink:href="#g"/>
   <use x="329.39215" y="277.90201" xlink:href="#af"/>
   <use x="334.39987" y="277.90201" xlink:href="#o"/>
   <use x="339.51968" y="277.90201" xlink:href="#l"/>
   <use x="344.12753" y="277.90201" xlink:href="#g"/>
   <use x="347.76251" y="277.90201" xlink:href="#ag"/>
   <use x="352.88232" y="277.90201" xlink:href="#e"/>
   <use x="356.98175" y="277.90201" xlink:href="#o"/>
   <use x="364.54941" y="277.90201" xlink:href="#s"/>
   <use x="368.1539" y="277.90201" xlink:href="#e"/>
   <use x="372.25333" y="277.90201" xlink:href="#aj"/>
   <use x="376.34918" y="277.90201" xlink:href="#q"/>
   <use x="379.93304" y="277.90201" xlink:href="#l"/>
   <use x="384.54089" y="277.90201" xlink:href="#p"/>
   <use x="389.66071" y="277.90201" xlink:href="#ac"/>
   <use x="394.26852" y="277.90201" xlink:href="#k"/>
   <use x="396.82843" y="277.90201" xlink:href="#e"/>
   <use x="403.379" y="277.90201" xlink:href="#aa"/>
   <use x="403.379" y="277.90201" xlink:href="#z"/>
   <use x="415.04199" y="277.90201" xlink:href="#as"/>
   <use x="421.82507" y="277.90201" xlink:href="#ar"/>
   <use x="428.86371" y="277.90201" xlink:href="#aq"/>
   <use x="434.87836" y="277.90201" xlink:href="#ap"/>
   <use x="442.44601" y="277.90201" xlink:href="#o"/>
   <use x="447.56583" y="277.90201" xlink:href="#l"/>
   <use x="452.17365" y="277.90201" xlink:href="#q"/>
   <use x="455.75754" y="277.90201" xlink:href="#l"/>
   <use x="460.36536" y="277.90201" xlink:href="#q"/>
   <use x="463.68921" y="277.90201" xlink:href="#ai"/>
   <use x="468.55258" y="277.90201" xlink:href="#ab"/>
   <use x="473.93243" y="277.90201" xlink:href="#e"/>
   <use x="478.03186" y="277.90201" xlink:href="#af"/>
   <use x="134.765" y="288.86099" xlink:href="#g"/>
   <use x="138.39998" y="288.86099" xlink:href="#h"/>
   <use x="143.00781" y="288.86099" xlink:href="#k"/>
   <use x="145.56772" y="288.86099" xlink:href="#n"/>
   <use x="148.12762" y="288.86099" xlink:href="#o"/>
   <use x="156.32292" y="288.86099" xlink:href="#l"/>
   <use x="160.92178" y="288.86099" xlink:href="#s"/>
   <use x="164.52628" y="288.86099" xlink:href="#s"/>
   <use x="168.13077" y="288.86099" xlink:href="#h"/>
   <use x="172.48753" y="288.86099" xlink:href="#ao"/>
   <use x="182.214" y="288.86099" xlink:href="#aa"/>
   <use x="182.214" y="288.86099" xlink:href="#z"/>
   <use x="194.50101" y="288.86099" xlink:href="#ab"/>
   <use x="199.62082" y="288.86099" xlink:href="#s"/>
   <use x="203.22531" y="288.86099" xlink:href="#h"/>
   <use x="207.83315" y="288.86099" xlink:href="#ab"/>
   <use x="213.21298" y="288.86099" xlink:href="#e"/>
   <use x="217.31242" y="288.86099" xlink:href="#s"/>
   <use x="220.91692" y="288.86099" xlink:href="#q"/>
   <use x="224.24075" y="288.86099" xlink:href="#ai"/>
   <use x="228.33302" y="288.86099" xlink:href="#af"/>
   <use x="233.9684" y="288.86099" xlink:href="#o"/>
   <use x="239.08821" y="288.86099" xlink:href="#l"/>
   <use x="243.69604" y="288.86099" xlink:href="#g"/>
   <use x="247.33102" y="288.86099" xlink:href="#ag"/>
   <use x="252.45084" y="288.86099" xlink:href="#e"/>
   <use x="256.55029" y="288.86099" xlink:href="#o"/>
   <use x="264.7366" y="288.86099" xlink:href="#l"/>
   <use x="269.34445" y="288.86099" xlink:href="#s"/>
   <use x="272.94894" y="288.86099" xlink:href="#s"/>
   <use x="276.55344" y="288.86099" xlink:href="#h"/>
   <use x="280.91019" y="288.86099" xlink:href="#ao"/>
   <use x="290.63599" y="288.86099" xlink:href="#aa"/>
   <use x="290.63599" y="288.86099" xlink:href="#z"/>
   <use x="302.923" y="288.86099" xlink:href="#as"/>
   <use x="309.70609" y="288.86099" xlink:href="#ar"/>
   <use x="316.74472" y="288.86099" xlink:href="#aq"/>
   <use x="322.75937" y="288.86099" xlink:href="#ap"/>
   <use x="330.95465" y="288.86099" xlink:href="#g"/>
   <use x="334.58963" y="288.86099" xlink:href="#at"/>
   <use x="339.70944" y="288.86099" xlink:href="#bj"/>
   <use x="344.82925" y="288.86099" xlink:href="#aw"/>
   <use x="351.48502" y="288.86099" xlink:href="#k"/>
   <use x="354.04492" y="288.86099" xlink:href="#l"/>
   <use x="358.65277" y="288.86099" xlink:href="#g"/>
   <use x="362.28775" y="288.86099" xlink:href="#g"/>
   <use x="365.92273" y="288.86099" xlink:href="#av"/>
   <use x="373.09045" y="288.86099" xlink:href="#ax"/>
   <use x="375.90591" y="288.86099" xlink:href="#au"/>
  </g>
 </g>
</svg>
