<?xml version="1.0" encoding="UTF-8"?>
<svg width="274.53pt" height="130.19pt" version="1.1" viewBox="0 0 274.53 130.19" xmlns="http://www.w3.org/2000/svg" xmlns:xlink="http://www.w3.org/1999/xlink">
 <defs>
  <g id="y">
   <path d="m1.0312-0.28125c0.23438 0.21875 0.54688 0.34375 0.85938 0.34375 0.64062 0 1.1875-0.60938 1.1875-1.4531 0-0.75-0.39062-1.4375-1-1.4375-0.17188 0-0.64062 0.03125-1.0625 0.35938v-0.29688h-0.5v3.9688h0.51562zm0-1.7812c0.078125-0.10938 0.3125-0.34375 0.67188-0.34375 0.46875 0 0.85938 0.4375 0.85938 1.0312s-0.4375 1.0469-0.92188 1.0469c-0.20312 0-0.42188-0.09375-0.60938-0.39062z"/>
  </g>
  <g id="j">
   <path d="m2.6562-1.3594c0-0.1875 0-0.67188-0.25-1.0469-0.26562-0.39062-0.65625-0.45312-0.89062-0.45312-0.71875 0-1.2969 0.65625-1.2969 1.4531 0 0.82812 0.60938 1.4688 1.3906 1.4688 0.29688 0 0.65625-0.0625 1.0156-0.29688l-0.03125-0.4375c-0.40625 0.28125-0.76562 0.34375-0.98438 0.34375-0.51562 0-0.90625-0.46875-0.9375-1.0312zm-1.9375-0.375c0.09375-0.39062 0.40625-0.73438 0.79688-0.73438 0.21875 0 0.65625 0.10938 0.76562 0.73438z"/>
  </g>
  <g id="i">
   <path d="m2.625-0.67188c-0.3125 0.20312-0.64062 0.3125-1.0156 0.3125-0.51562 0-0.875-0.4375-0.875-1.0312 0-0.46875 0.23438-1.0469 0.90625-1.0469 0.39062 0 0.59375 0.0625 0.90625 0.28125l0.078125-0.4375c-0.34375-0.20312-0.54688-0.26562-0.98438-0.26562-0.89062 0-1.4219 0.73438-1.4219 1.4844 0 0.76562 0.57812 1.4375 1.3906 1.4375 0.4375 0 0.76562-0.125 1.0469-0.29688z"/>
  </g>
  <g id="b">
   <path d="m3-1.375c0-0.8125-0.625-1.4844-1.4062-1.4844-0.76562 0-1.4062 0.67188-1.4062 1.4844 0 0.82812 0.65625 1.4375 1.4062 1.4375 0.76562 0 1.4062-0.625 1.4062-1.4375zm-1.4062 1.0156c-0.46875 0-0.89062-0.375-0.89062-1.0781 0-0.71875 0.46875-1.0312 0.89062-1.0312 0.45312 0 0.89062 0.32812 0.89062 1.0312 0 0.73438-0.4375 1.0781-0.89062 1.0781z"/>
  </g>
  <g id="r">
   <path d="m1.1562-2.7656h-0.54688v0.54688h0.54688zm-0.54688 2.2344v0.53125h0.54688v-0.53125z"/>
  </g>
  <g id="v">
   <path d="m3.2969-2.0312v-0.40625h-2.1094v-1.4375h0.23438c0.5 0 1.0156 0.015625 1.5156 0.015625h0.53125v-0.4375h-2.875v4.2969h2.9688v-0.46875h-0.625c-0.57812 0-1.1719 0.015625-1.75 0.015625v-1.5781z"/>
  </g>
  <g id="u">
   <path d="m4.5625-1.8438c0-0.46875-0.125-0.98438-0.875-0.98438-0.51562 0-0.8125 0.3125-0.96875 0.51562-0.03125-0.125-0.17188-0.51562-0.79688-0.51562-0.5 0-0.79688 0.28125-0.9375 0.46875v-0.4375h-0.48438v2.7969h0.51562v-1.5156c0-0.40625 0.17188-0.90625 0.64062-0.90625 0.625 0 0.625 0.4375 0.625 0.625v1.7969h0.51562v-1.5156c0-0.40625 0.15625-0.90625 0.625-0.90625 0.625 0 0.625 0.4375 0.625 0.625v1.7969h0.51562z"/>
  </g>
  <g id="a">
   <path d="M 1.0625,-4.25 H 0.45312 v 0.59375 H 1.0625 Z M 1,-2.7656 H 0.51562 V 0 H 1 Z"/>
  </g>
  <g id="d">
   <path d="m2.1875-2.6719c-0.375-0.17188-0.65625-0.1875-0.92188-0.1875-0.14062 0-1.0469 0-1.0469 0.8125 0 0.29688 0.17188 0.48438 0.23438 0.54688 0.25 0.21875 0.40625 0.25 0.82812 0.32812 0.20312 0.03125 0.54688 0.10938 0.54688 0.42188 0 0.40625-0.5 0.40625-0.57812 0.40625-0.35938 0-0.71875-0.125-0.98438-0.3125l-0.078125 0.45312c0.35938 0.20312 0.75 0.26562 1.0625 0.26562 0.40625 0 1.0469-0.125 1.0469-0.85938 0-0.21875-0.078125-0.4375-0.29688-0.625s-0.40625-0.21875-0.78125-0.29688c-0.23438-0.046875-0.54688-0.09375-0.54688-0.39062 0-0.35938 0.45312-0.35938 0.54688-0.35938 0.45312 0 0.71875 0.14062 0.89062 0.23438z"/>
  </g>
  <g id="f">
   <path d="m2.7969-1.8438c0-0.46875-0.125-0.98438-0.875-0.98438-0.5 0-0.79688 0.28125-0.9375 0.46875v-0.4375h-0.48438v2.7969h0.51562v-1.5156c0-0.40625 0.17188-0.90625 0.64062-0.90625 0.625 0 0.625 0.4375 0.625 0.625v1.7969h0.51562z"/>
  </g>
  <g id="o">
   <path d="m3.8281-1.8594h-1.3438v0.40625h0.82812v0.96875c-0.26562 0.0625-0.53125 0.125-0.8125 0.125-0.95312 0-1.5-0.95312-1.5-1.8125 0-0.875 0.5625-1.7969 1.5156-1.7969 0.45312 0 0.89062 0.17188 1.1719 0.4375l0.09375-0.54688c-0.28125-0.17188-0.75-0.3125-1.3125-0.3125-1.1875 0-2.0625 1.0781-2.0625 2.2188 0 1.1719 0.875 2.2344 2.0625 2.2344 0.5 0 0.92188-0.10938 1.3594-0.29688z"/>
  </g>
  <g id="x">
   <path d="m1.0156-1.3281c0-0.65625 0.51562-1.0469 1.0781-1.0469v-0.45312c-0.45312 0-0.85938 0.23438-1.125 0.59375v-0.5625h-0.45312v2.7969h0.5z"/>
  </g>
  <g id="m">
   <path d="m2.5625-1.7969c0-0.60938-0.45312-1.0625-1.0625-1.0625-0.40625 0-0.70312 0.09375-1.0156 0.26562l0.046875 0.4375c0.3125-0.21875 0.60938-0.3125 0.95312-0.3125s0.5625 0.28125 0.5625 0.67188v0.26562c-1.0781 0.03125-1.7656 0.3125-1.7656 0.8125 0 0.29688 0.1875 0.78125 0.71875 0.78125 0.125 0 0.67188 0 1.0625-0.29688v0.23438h0.5zm-0.51562 0.92188c0 0.14062 0 0.29688-0.21875 0.42188-0.15625 0.09375-0.35938 0.125-0.48438 0.125-0.32812 0-0.59375-0.15625-0.59375-0.40625 0-0.4375 1.2188-0.45312 1.2969-0.45312z"/>
  </g>
  <g id="c">
   <path d="m1.125-2.375h0.89062v-0.39062h-0.89062v-0.78125h-0.45312v0.78125h-0.54688v0.39062h0.51562v1.5938c0 0.35938 0.09375 0.84375 0.54688 0.84375 0.26562 0 0.59375-0.046875 0.9375-0.21875l-0.10938-0.39062c-0.15625 0.125-0.375 0.1875-0.5625 0.1875-0.25 0-0.32812-0.21875-0.32812-0.53125z"/>
  </g>
  <g id="h">
   <path d="m2.4219-4.3125h-0.57812l-1.6562 4.3125h0.48438l0.46875-1.2344h1.8438l0.48438 1.2344h0.60938zm-0.35938 0.45312 0.78125 2.25h-1.5469z"/>
  </g>
  <g id="t">
   <path d="m2.8594-2.7656h-0.5l-0.48438 1.2656c-0.125 0.32812-0.35938 0.92188-0.39062 1.1562h-0.015625c0-0.10938-0.03125-0.21875-0.375-1.125-0.17188-0.5-0.48438-1.25-0.5-1.2969h-0.5l1.0938 2.7656h0.57812z"/>
  </g>
  <g id="w">
   <path d="m2.8594-2.7656h-0.5c-0.46875 1.1406-0.8125 1.9688-0.84375 2.4062-0.015625-0.29688-0.28125-0.9375-0.35938-1.1094-0.25-0.64062-0.35938-0.84375-0.54688-1.2969h-0.51562l1.2344 2.7656-0.23438 0.54688c-0.15625 0.35938-0.26562 0.35938-0.35938 0.35938s-0.3125-0.03125-0.5-0.10938l0.03125 0.42188c0.015625 0.015625 0.25 0.0625 0.46875 0.0625 0.15625 0 0.42188 0 0.73438-0.75z"/>
  </g>
  <g id="k">
   <path d="m3.7188-0.73438c-0.35938 0.28125-0.71875 0.375-1.2344 0.375-0.92188 0-1.4844-0.95312-1.4844-1.7812 0-0.92188 0.57812-1.8281 1.4844-1.8281 0.4375 0 0.8125 0.125 1.1094 0.34375l0.09375-0.54688c-0.3125-0.14062-0.71875-0.21875-1.1562-0.21875-1.2188 0-2.125 1-2.125 2.2344 0 1.1875 0.875 2.2188 2.125 2.2188 0.57812 0 0.8125-0.09375 1.2344-0.34375z"/>
  </g>
  <g id="e">
   <path d="M 1,-4.3125 H 0.51562 V 0 H 1 Z"/>
  </g>
  <g id="g">
   <path d="m2.7969-2.7656h-0.51562v1.7969c0 0.5-0.39062 0.67188-0.76562 0.67188-0.45312 0-0.5-0.14062-0.5-0.40625v-2.0625h-0.51562v2.0938c0 0.51562 0.21875 0.73438 0.65625 0.73438 0.35938 0 0.84375-0.09375 1.1406-0.35938v0.29688h0.5z"/>
  </g>
  <g id="p">
   <path d="m2.7812-2.8281h-0.5v0.42188c-0.10938-0.125-0.39062-0.42188-0.875-0.42188-0.64062 0-1.1875 0.60938-1.1875 1.4531 0 0.78125 0.45312 1.4375 1.0625 1.4375 0.40625 0 0.76562-0.1875 0.98438-0.375v1.5156h0.51562zm-0.5 1.9531c0 0.078125 0 0.1875-0.21875 0.35938-0.125 0.125-0.29688 0.1875-0.46875 0.1875-0.46875 0-0.85938-0.46875-0.85938-1.0469 0-0.60938 0.45312-1.0312 0.92188-1.0312 0.42188 0 0.625 0.42188 0.625 0.67188z"/>
  </g>
  <g id="q">
   <path d="m2.7812-4.3125h-0.5v1.8281c-0.34375-0.29688-0.75-0.34375-0.9375-0.34375-0.64062 0-1.125 0.65625-1.125 1.4531s0.48438 1.4375 1.0938 1.4375c0.1875 0 0.57812-0.03125 0.95312-0.39062v0.32812h0.51562zm-0.51562 3.4375c0 0.10938 0 0.125-0.078125 0.21875-0.15625 0.21875-0.375 0.32812-0.59375 0.32812-0.40625 0-0.85938-0.29688-0.85938-1.0469 0-0.79688 0.53125-1.0469 0.92188-1.0469 0.29688 0 0.48438 0.15625 0.60938 0.3125z"/>
  </g>
  <g id="s">
   <path d="m3.4062-0.20312c0.5625-0.39062 0.95312-1.0938 0.95312-1.9375 0-1.3125-0.92188-2.3125-2-2.3125s-2 1-2 2.3125c0 1.2969 0.92188 2.2812 2 2.2812 0.1875 0 0.4375-0.046875 0.59375-0.10938l0.53125 0.76562h0.6875zm-0.71875-0.125c-0.10938 0.03125-0.21875 0.046875-0.32812 0.046875-0.73438 0-1.4219-0.70312-1.4219-1.8594s0.67188-1.8906 1.4219-1.8906 1.4219 0.75 1.4219 1.8906c0 0.79688-0.34375 1.3125-0.64062 1.5625l-0.48438-0.625h-0.59375z"/>
  </g>
  <g id="z">
   <path d="m1.5156-2.6094c-0.3125-0.078125-0.625-0.32812-0.625-0.6875s0.32812-0.71875 0.90625-0.71875c0.4375 0 0.75 0.14062 1.0781 0.40625l0.09375-0.53125c-0.3125-0.15625-0.60938-0.3125-1.1719-0.3125-0.875 0-1.4375 0.60938-1.4375 1.2344 0 0.15625 0.03125 0.40625 0.23438 0.6875 0.29688 0.375 0.6875 0.46875 0.95312 0.53125 0.078125 0.03125 0.46875 0.125 0.51562 0.14062 0.28125 0.078125 0.59375 0.35938 0.59375 0.73438 0 0.42188-0.34375 0.79688-0.90625 0.79688-0.5 0-0.96875-0.1875-1.3594-0.5l-0.10938 0.53125c0.60938 0.39062 1.1875 0.4375 1.4688 0.4375 0.85938 0 1.4375-0.64062 1.4375-1.3281 0-0.70312-0.57812-1.1562-1.0469-1.2812z"/>
  </g>
  <g id="l">
   <path d="m4.3594-2.1406c0-1.3125-0.92188-2.3125-2-2.3125s-2 1-2 2.3125c0 1.2969 0.92188 2.2812 2 2.2812s2-0.98438 2-2.2812zm-2 1.8438c-0.75 0-1.4062-0.76562-1.4062-1.9375 0-1.1406 0.6875-1.7969 1.4062-1.7969 0.70312 0 1.4062 0.67188 1.4062 1.7969 0 1.1719-0.67188 1.9375-1.4062 1.9375z"/>
  </g>
  <g id="n">
   <path d="m1.0156-4.3125h-0.5v4.3125h0.51562v-0.29688c0.078125 0.09375 0.40625 0.35938 0.85938 0.35938 0.64062 0 1.1875-0.625 1.1875-1.4531 0-0.75-0.42188-1.4375-1.0312-1.4375-0.15625 0-0.60938 0.03125-1.0312 0.35938zm0.015625 2.2344c0.09375-0.125 0.3125-0.34375 0.67188-0.34375 0.375 0 0.85938 0.25 0.85938 1.0312 0 0.8125-0.54688 1.0625-0.92188 1.0625-0.39062 0-0.57812-0.34375-0.60938-0.39062z"/>
  </g>
  <g id="bd">
   <path d="m2.7969-1.8438c0-0.46875-0.125-0.98438-0.875-0.98438-0.35938 0-0.70312 0.17188-0.92188 0.45312v-1.9375h-0.5v4.3125h0.51562v-1.5156c0-0.40625 0.17188-0.90625 0.64062-0.90625 0.625 0 0.625 0.4375 0.625 0.625v1.7969h0.51562z"/>
  </g>
 </defs>
 <path d="m136.03 118.72c0-6.1797-24.352-11.191-54.395-11.191s-54.395 5.0117-54.395 11.191c0 6.1836 24.352 11.195 54.395 11.195s54.395-5.0117 54.395-11.195z" fill="none" stroke="#000" stroke-miterlimit="10" stroke-width=".55262"/>
 <g transform="translate(-169.34 -115.83)" fill="#7f7f7f">
  <use x="243.90854" y="231.52957" xlink:href="#y"/>
  <use x="247.38947" y="231.52957" xlink:href="#j"/>
  <use x="250.2294" y="231.52957" xlink:href="#i"/>
  <use x="253.06934" y="231.52957" xlink:href="#b"/>
  <use x="256.25806" y="231.52957" xlink:href="#r"/>
 </g>
 <g transform="translate(-169.34 -115.83)">
  <use x="214.63931" y="239.1282" xlink:href="#v"/>
  <use x="218.4771" y="239.1282" xlink:href="#u"/>
  <use x="223.55205" y="239.1282" xlink:href="#a"/>
  <use x="225.07771" y="239.1282" xlink:href="#d"/>
  <use x="227.52722" y="239.1282" xlink:href="#d"/>
  <use x="229.97673" y="239.1282" xlink:href="#a"/>
  <use x="231.5024" y="239.1282" xlink:href="#b"/>
  <use x="234.69733" y="239.1282" xlink:href="#f"/>
  <use x="237.99796" y="239.1282" xlink:href="#o"/>
  <use x="242.25786" y="239.1282" xlink:href="#j"/>
  <use x="245.09781" y="239.1282" xlink:href="#f"/>
  <use x="248.39842" y="239.1282" xlink:href="#j"/>
  <use x="251.23836" y="239.1282" xlink:href="#x"/>
  <use x="253.42117" y="239.1282" xlink:href="#m"/>
  <use x="256.49115" y="239.1282" xlink:href="#c"/>
  <use x="258.79828" y="239.1282" xlink:href="#a"/>
  <use x="260.32394" y="239.1282" xlink:href="#b"/>
  <use x="263.51886" y="239.1282" xlink:href="#f"/>
  <use x="266.81949" y="239.1282" xlink:href="#h"/>
  <use x="271.08871" y="239.1282" xlink:href="#i"/>
  <use x="273.92868" y="239.1282" xlink:href="#c"/>
  <use x="276.23581" y="239.1282" xlink:href="#a"/>
  <use x="277.76147" y="239.1282" xlink:href="#t"/>
  <use x="280.70709" y="239.1282" xlink:href="#a"/>
  <use x="282.23276" y="239.1282" xlink:href="#c"/>
  <use x="284.35962" y="239.1282" xlink:href="#w"/>
 </g>
 <path d="m274.26 118.72c0-6.1797-24.645-11.191-55.047-11.191-30.398 0-55.047 5.0117-55.047 11.191 0 6.1836 24.648 11.195 55.047 11.195 30.402 0 55.047-5.0117 55.047-11.195z" fill="none" stroke="#000" stroke-miterlimit="10" stroke-width=".55262"/>
 <g transform="translate(-169.34 -115.83)" fill="#7f7f7f">
  <use x="381.49048" y="231.52957" xlink:href="#y"/>
  <use x="384.97141" y="231.52957" xlink:href="#j"/>
  <use x="387.81134" y="231.52957" xlink:href="#i"/>
  <use x="390.65128" y="231.52957" xlink:href="#b"/>
  <use x="393.84622" y="231.52957" xlink:href="#r"/>
 </g>
 <g transform="translate(-169.34 -115.83)">
  <use x="351.76086" y="239.1282" xlink:href="#v"/>
  <use x="355.59863" y="239.1282" xlink:href="#u"/>
  <use x="360.67358" y="239.1282" xlink:href="#a"/>
  <use x="362.19925" y="239.1282" xlink:href="#d"/>
  <use x="364.64877" y="239.1282" xlink:href="#d"/>
  <use x="367.09827" y="239.1282" xlink:href="#a"/>
  <use x="368.62393" y="239.1282" xlink:href="#b"/>
  <use x="371.81888" y="239.1282" xlink:href="#f"/>
  <use x="375.11951" y="239.1282" xlink:href="#k"/>
  <use x="379.2016" y="239.1282" xlink:href="#m"/>
  <use x="382.27158" y="239.1282" xlink:href="#e"/>
  <use x="383.79724" y="239.1282" xlink:href="#i"/>
  <use x="386.63718" y="239.1282" xlink:href="#g"/>
  <use x="389.93781" y="239.1282" xlink:href="#e"/>
  <use x="391.46344" y="239.1282" xlink:href="#m"/>
  <use x="394.53342" y="239.1282" xlink:href="#c"/>
  <use x="396.84058" y="239.1282" xlink:href="#a"/>
  <use x="398.36621" y="239.1282" xlink:href="#b"/>
  <use x="401.56116" y="239.1282" xlink:href="#f"/>
  <use x="404.86179" y="239.1282" xlink:href="#h"/>
  <use x="409.13101" y="239.1282" xlink:href="#i"/>
  <use x="411.97095" y="239.1282" xlink:href="#c"/>
  <use x="414.27811" y="239.1282" xlink:href="#a"/>
  <use x="415.80377" y="239.1282" xlink:href="#t"/>
  <use x="418.74939" y="239.1282" xlink:href="#a"/>
  <use x="420.27505" y="239.1282" xlink:href="#c"/>
  <use x="422.40189" y="239.1282" xlink:href="#w"/>
 </g>
 <path d="m258.36 59.751c0-6.7891-8.7266-12.293-19.488-12.293-10.762 0-19.488 5.5039-19.488 12.293s8.7266 12.293 19.488 12.293c10.762 0 19.488-5.5039 19.488-12.293z" fill="none" stroke="#000" stroke-dasharray="2.98883, 2.98883" stroke-miterlimit="10" stroke-width=".55262"/>
 <g transform="translate(-169.34 -115.83)" fill="#7f7f7f">
  <use x="401.21756" y="173.34265" xlink:href="#p"/>
  <use x="404.51819" y="173.34265" xlink:href="#g"/>
  <use x="407.81879" y="173.34265" xlink:href="#q"/>
  <use x="411.11942" y="173.34265" xlink:href="#c"/>
  <use x="413.42657" y="173.34265" xlink:href="#r"/>
 </g>
 <g transform="translate(-169.34 -115.83)">
  <use x="396.55951" y="180.9413" xlink:href="#s"/>
  <use x="401.28009" y="180.9413" xlink:href="#g"/>
  <use x="404.58072" y="180.9413" xlink:href="#m"/>
  <use x="407.6507" y="180.9413" xlink:href="#f"/>
  <use x="410.95129" y="180.9413" xlink:href="#c"/>
  <use x="413.25845" y="180.9413" xlink:href="#a"/>
  <use x="414.78412" y="180.9413" xlink:href="#c"/>
  <use x="416.91095" y="180.9413" xlink:href="#w"/>
 </g>
 <path d="m212.16 20.442c0-6.1836-23.238-11.195-51.902-11.195-28.668 0-51.906 5.0117-51.906 11.195 0 6.1836 23.238 11.195 51.906 11.195 28.664 0 51.902-5.0117 51.902-11.195z" fill="none" stroke="#000" stroke-miterlimit="10" stroke-width=".55262"/>
 <g transform="translate(-169.34 -115.83)" fill="#7f7f7f">
  <use x="322.52701" y="133.25616" xlink:href="#y"/>
  <use x="326.0079" y="133.25616" xlink:href="#j"/>
  <use x="328.84784" y="133.25616" xlink:href="#i"/>
  <use x="331.68158" y="133.25616" xlink:href="#b"/>
  <use x="334.8765" y="133.25616" xlink:href="#r"/>
 </g>
 <g transform="translate(-169.34 -115.83)">
  <use x="295.01822" y="140.8548" xlink:href="#v"/>
  <use x="298.85602" y="140.8548" xlink:href="#u"/>
  <use x="303.93097" y="140.8548" xlink:href="#a"/>
  <use x="305.45663" y="140.8548" xlink:href="#d"/>
  <use x="307.90613" y="140.8548" xlink:href="#d"/>
  <use x="310.35565" y="140.8548" xlink:href="#a"/>
  <use x="311.88132" y="140.8548" xlink:href="#b"/>
  <use x="315.07623" y="140.8548" xlink:href="#f"/>
  <use x="318.37686" y="140.8548" xlink:href="#k"/>
  <use x="322.45898" y="140.8548" xlink:href="#m"/>
  <use x="325.52893" y="140.8548" xlink:href="#e"/>
  <use x="327.0546" y="140.8548" xlink:href="#i"/>
  <use x="329.89453" y="140.8548" xlink:href="#g"/>
  <use x="333.19516" y="140.8548" xlink:href="#e"/>
  <use x="334.72083" y="140.8548" xlink:href="#m"/>
  <use x="337.7908" y="140.8548" xlink:href="#c"/>
  <use x="340.09793" y="140.8548" xlink:href="#a"/>
  <use x="341.6236" y="140.8548" xlink:href="#b"/>
  <use x="344.81854" y="140.8548" xlink:href="#f"/>
  <use x="348.11914" y="140.8548" xlink:href="#v"/>
  <use x="351.95694" y="140.8548" xlink:href="#f"/>
  <use x="355.25754" y="140.8548" xlink:href="#c"/>
  <use x="357.5647" y="140.8548" xlink:href="#a"/>
  <use x="359.09036" y="140.8548" xlink:href="#c"/>
  <use x="361.21719" y="140.8548" xlink:href="#w"/>
 </g>
 <path d="m194.26 59.751c0-6.1797-6.4297-11.191-14.359-11.191-7.9297 0-14.359 5.0117-14.359 11.191 0 6.1836 6.4297 11.195 14.359 11.195 7.9297 0 14.359-5.0117 14.359-11.195z" fill="none" stroke="#000" stroke-dasharray="2.98883, 2.98883" stroke-miterlimit="10" stroke-width=".55262"/>
 <g transform="translate(-169.34 -115.83)" fill="#7f7f7f">
  <use x="342.63474" y="172.56538" xlink:href="#y"/>
  <use x="345.75507" y="172.56538" xlink:href="#x"/>
  <use x="347.93787" y="172.56538" xlink:href="#b"/>
  <use x="351.13278" y="172.56538" xlink:href="#t"/>
  <use x="354.07843" y="172.56538" xlink:href="#r"/>
 </g>
 <g transform="translate(-169.34 -115.83)">
  <use x="341.22232" y="180.16402" xlink:href="#v"/>
  <use x="345.06009" y="180.16402" xlink:href="#f"/>
  <use x="348.36072" y="180.16402" xlink:href="#c"/>
  <use x="350.66788" y="180.16402" xlink:href="#a"/>
  <use x="352.19351" y="180.16402" xlink:href="#c"/>
  <use x="354.32037" y="180.16402" xlink:href="#w"/>
 </g>
 <path d="m167.93 89.235c0-6.1836-7.8359-11.195-17.5-11.195s-17.5 5.0117-17.5 11.195c0 6.1797 7.8359 11.191 17.5 11.191s17.5-5.0117 17.5-11.191z" fill="none" stroke="#000" stroke-dasharray="2.98883, 2.98883" stroke-miterlimit="10" stroke-width=".55262"/>
 <g transform="translate(-169.34 -115.83)" fill="#7f7f7f">
  <use x="313.15332" y="202.04747" xlink:href="#y"/>
  <use x="316.27365" y="202.04747" xlink:href="#x"/>
  <use x="318.45645" y="202.04747" xlink:href="#b"/>
  <use x="321.6514" y="202.04747" xlink:href="#t"/>
  <use x="324.59702" y="202.04747" xlink:href="#r"/>
 </g>
 <g transform="translate(-169.34 -115.83)">
  <use x="309.51938" y="209.64612" xlink:href="#h"/>
  <use x="313.7886" y="209.64612" xlink:href="#i"/>
  <use x="316.62854" y="209.64612" xlink:href="#c"/>
  <use x="318.9357" y="209.64612" xlink:href="#a"/>
  <use x="320.46136" y="209.64612" xlink:href="#t"/>
  <use x="323.40698" y="209.64612" xlink:href="#a"/>
  <use x="324.93265" y="209.64612" xlink:href="#c"/>
  <use x="327.05948" y="209.64612" xlink:href="#w"/>
 </g>
 <path d="m131.02 59.751c0-5.7109-13.312-10.34-29.73-10.34-16.422 0-29.734 4.6289-29.734 10.34 0 5.7109 13.312 10.34 29.734 10.34 16.418 0 29.73-4.6289 29.73-10.34z" fill="none" stroke="#000" stroke-miterlimit="10" stroke-width=".55262"/>
 <g transform="translate(-169.34 -115.83)" fill="#7f7f7f">
  <use x="263.56351" y="173.17" xlink:href="#y"/>
  <use x="267.03821" y="173.17" xlink:href="#j"/>
  <use x="269.87814" y="173.17" xlink:href="#i"/>
  <use x="272.71808" y="173.17" xlink:href="#b"/>
  <use x="275.91302" y="173.17" xlink:href="#r"/>
 </g>
 <g transform="translate(-169.34 -115.83)">
  <use x="251.73323" y="180.76865" xlink:href="#v"/>
  <use x="255.571" y="180.76865" xlink:href="#u"/>
  <use x="260.64597" y="180.76865" xlink:href="#a"/>
  <use x="262.17163" y="180.76865" xlink:href="#d"/>
  <use x="264.62112" y="180.76865" xlink:href="#d"/>
  <use x="267.07065" y="180.76865" xlink:href="#a"/>
  <use x="268.59631" y="180.76865" xlink:href="#b"/>
  <use x="271.79123" y="180.76865" xlink:href="#f"/>
  <use x="275.09186" y="180.76865" xlink:href="#z"/>
  <use x="278.64178" y="180.76865" xlink:href="#i"/>
  <use x="281.48172" y="180.76865" xlink:href="#b"/>
  <use x="284.49637" y="180.76865" xlink:href="#x"/>
  <use x="286.67917" y="180.76865" xlink:href="#j"/>
 </g>
 <path d="m67.848 10.614c0-5.7109-11.43-10.34-25.523-10.34-14.098 0-25.523 4.6289-25.523 10.34 0 5.7109 11.426 10.34 25.523 10.34 14.094 0 25.523-4.6289 25.523-10.34z" fill="none" stroke="#000" stroke-dasharray="2.98883, 2.98883" stroke-miterlimit="10" stroke-width=".55262"/>
 <g transform="translate(-169.34 -115.83)" fill="#7f7f7f">
  <use x="205.19423" y="124.03365" xlink:href="#d"/>
  <use x="207.64374" y="124.03365" xlink:href="#b"/>
  <use x="210.83867" y="124.03365" xlink:href="#d"/>
  <use x="213.28818" y="124.03365" xlink:href="#m"/>
  <use x="216.35815" y="124.03365" xlink:href="#r"/>
 </g>
 <g transform="translate(-169.34 -115.83)">
  <use x="195.74498" y="131.63228" xlink:href="#l"/>
  <use x="200.46558" y="131.63228" xlink:href="#n"/>
  <use x="203.7662" y="131.63228" xlink:href="#d"/>
  <use x="206.21571" y="131.63228" xlink:href="#j"/>
  <use x="209.05565" y="131.63228" xlink:href="#x"/>
  <use x="211.23845" y="131.63228" xlink:href="#t"/>
  <use x="214.18408" y="131.63228" xlink:href="#m"/>
  <use x="217.25404" y="131.63228" xlink:href="#c"/>
  <use x="219.56119" y="131.63228" xlink:href="#a"/>
  <use x="221.08685" y="131.63228" xlink:href="#b"/>
  <use x="224.28178" y="131.63228" xlink:href="#f"/>
 </g>
 <path d="m84.358 40.099c0-5.7109-18.82-10.34-42.039-10.34s-42.043 4.6289-42.043 10.34c0 5.707 18.824 10.336 42.043 10.336s42.039-4.6289 42.039-10.336z" fill="none" stroke="#000" stroke-miterlimit="10" stroke-width=".55262"/>
 <g transform="translate(-169.34 -115.83)" fill="#7f7f7f">
  <use x="204.59932" y="153.51573" xlink:href="#y"/>
  <use x="208.08023" y="153.51573" xlink:href="#j"/>
  <use x="210.92018" y="153.51573" xlink:href="#i"/>
  <use x="213.76012" y="153.51573" xlink:href="#b"/>
  <use x="216.95505" y="153.51573" xlink:href="#r"/>
 </g>
 <g transform="translate(-169.34 -115.83)">
  <use x="184.06656" y="161.11438" xlink:href="#v"/>
  <use x="187.90433" y="161.11438" xlink:href="#u"/>
  <use x="192.97929" y="161.11438" xlink:href="#a"/>
  <use x="194.50494" y="161.11438" xlink:href="#d"/>
  <use x="196.95447" y="161.11438" xlink:href="#d"/>
  <use x="199.40398" y="161.11438" xlink:href="#a"/>
  <use x="200.92963" y="161.11438" xlink:href="#b"/>
  <use x="204.12456" y="161.11438" xlink:href="#f"/>
  <use x="207.42519" y="161.11438" xlink:href="#l"/>
  <use x="212.14578" y="161.11438" xlink:href="#n"/>
  <use x="215.4464" y="161.11438" xlink:href="#d"/>
  <use x="217.89592" y="161.11438" xlink:href="#j"/>
  <use x="220.73586" y="161.11438" xlink:href="#x"/>
  <use x="222.91866" y="161.11438" xlink:href="#t"/>
  <use x="225.86429" y="161.11438" xlink:href="#m"/>
  <use x="228.93425" y="161.11438" xlink:href="#c"/>
  <use x="231.24139" y="161.11438" xlink:href="#a"/>
  <use x="232.76706" y="161.11438" xlink:href="#b"/>
  <use x="235.96199" y="161.11438" xlink:href="#f"/>
 </g>
 <path d="m89.197 96.872h-0.58008l-3.4409 10.321 0.52295 0.17432 3.498-10.496z" color="#000000" stroke-miterlimit="10" style="-inkscape-stroke:none"/>
 <path d="m96.422 73.455-2.4141 7.2422h0.58154l2.3555-7.0679-0.52295-0.17432z" color="#000000" stroke-miterlimit="10" style="-inkscape-stroke:none"/>
 <g transform="translate(-34.312 -.0019541)">
  <path d="m132 70.558c-0.21484 0.33594-1.2656 1.7734-2.1602 2.5938l2.332 0.77734c-0.22657-1.1914-0.20313-2.9766-0.17188-3.3711z" stroke="#000" stroke-linejoin="round" stroke-miterlimit="10" stroke-width=".5526"/>
  <g transform="translate(-135.03,-115.83)">
   <use x="256.53967" y="202.97867" xlink:href="#bd"/>
   <use x="259.8403" y="202.97867" xlink:href="#m"/>
   <use x="262.91025" y="202.97867" xlink:href="#d"/>
   <use x="242.03992" y="210.57732" xlink:href="#j"/>
   <use x="244.87985" y="210.57732" xlink:href="#u"/>
   <use x="249.95482" y="210.57732" xlink:href="#a"/>
   <use x="251.48047" y="210.57732" xlink:href="#d"/>
   <use x="253.92999" y="210.57732" xlink:href="#d"/>
   <use x="256.37949" y="210.57732" xlink:href="#a"/>
   <use x="257.90515" y="210.57732" xlink:href="#b"/>
   <use x="261.1001" y="210.57732" xlink:href="#f"/>
   <use x="266.52695" y="210.57732" xlink:href="#d"/>
   <use x="268.97644" y="210.57732" xlink:href="#i"/>
   <use x="271.81638" y="210.57732" xlink:href="#b"/>
   <use x="274.83725" y="210.57732" xlink:href="#x"/>
   <use x="277.02005" y="210.57732" xlink:href="#j"/>
  </g>
 </g>
 <g transform="translate(-34.312 -.0019541)" fill="none" stroke="#000" stroke-miterlimit="10">
  <path d="m149.66 50.378 25.715-17.145" stroke-dasharray="2.98883, 2.98883" stroke-width=".55262"/>
  <path d="m177.99 31.491c-0.375 0.13281-2.0898 0.625-3.2969 0.71875l1.3633 2.0469c0.55469-1.082 1.6641-2.4727 1.9336-2.7656z" stroke-linejoin="round" stroke-width=".5526"/>
  <path d="m215.56 30.944 39.027 19.512" stroke-dasharray="2.98883, 2.98883" stroke-width=".55262"/>
  <path d="m257.4 51.862c-0.30469-0.25781-1.5781-1.5039-2.2656-2.5039l-1.0977 2.1953c1.2148-0.05078 2.9727 0.22266 3.3633 0.30859z" stroke-linejoin="round" stroke-width=".5526"/>
  <path d="m200.26 31.847 7.0859 14.172" stroke-dasharray="2.98883, 2.98883" stroke-width=".55262"/>
  <path d="m208.75 48.827c-0.0898-0.38672-0.36328-2.1484-0.30859-3.3594l-2.1992 1.0977c1.0039 0.68359 2.25 1.9609 2.5078 2.2617z" stroke-linejoin="round" stroke-width=".55259"/>
  <path d="m143.24 108.78 24.039-11.324" stroke-dasharray="2.98883, 2.98883" stroke-width=".55262"/>
  <path d="m170.13 96.116c-0.38672 0.07812-2.1562 0.30859-3.3672 0.22656l1.0469 2.2266c0.71094-0.98828 2.0117-2.2031 2.3203-2.4531z" stroke-linejoin="round" stroke-width=".5526"/>
  <path d="m229.43 108.39-26.75-11.465" stroke-dasharray="2.98883, 2.98883" stroke-width=".55262"/>
  <path d="m199.79 95.69c0.31641 0.23828 1.6641 1.4062 2.4062 2.3672l0.96875-2.2578c-1.207 0.125-2.9805-0.04687-3.375-0.10937z" stroke-linejoin="round" stroke-width=".55259"/>
  <g stroke-width=".55262">
   <path d="m76.633 29.483v-4.832" stroke-dasharray="2.98883, 2.98883"/>
   <path d="m76.633 21.507c-0.09766 0.38672-0.64062 2.0859-1.2305 3.1445h2.457c-0.58984-1.0586-1.1328-2.7578-1.2266-3.1445z" stroke-linejoin="round"/>
  </g>
 </g>
 <path transform="translate(-34.312 -.0019541)" d="m88.814 88.131h-0.57129l4.1807 16.875 0.5376-0.1333-4.147-16.742z" color="#000000" style="-inkscape-stroke:none"/>
 <path transform="translate(-34.312 -.0019541)" d="m79.523 50.627-0.53613 0.1333 4.9688 20.06h0.56982l-5.0024-20.193z" color="#000000" style="-inkscape-stroke:none"/>
 <g transform="translate(-34.312 -.0019541)">
  <path d="m93.446 107.99c0-0.39844 0.11719-2.1758 0.4375-3.3477l-2.3867 0.58985c0.82812 0.89062 1.7617 2.4062 1.9492 2.7578z" stroke="#000" stroke-linejoin="round" stroke-miterlimit="10" stroke-width=".55261"/>
  <g transform="translate(-135.03,-115.83)">
   <g transform="translate(206.76 193.03)">
    <path d="M 1.0625,-4.25 H 0.45312 v 0.59375 H 1.0625 Z M 1,-2.7656 H 0.51562 V 0 H 1 Z"/>
   </g>
   <g transform="translate(208.28 193.03)">
    <path d="m2.7969-1.8438c0-0.46875-0.125-0.98438-0.875-0.98438-0.5 0-0.79688 0.28125-0.9375 0.46875v-0.4375h-0.48438v2.7969h0.51562v-1.5156c0-0.40625 0.17188-0.90625 0.64062-0.90625 0.625 0 0.625 0.4375 0.625 0.625v1.7969h0.51562z"/>
   </g>
   <g transform="translate(213.71 193.03)">
    <path d="m2.6562-1.3594c0-0.1875 0-0.67188-0.25-1.0469-0.26562-0.39062-0.65625-0.45312-0.89062-0.45312-0.71875 0-1.2969 0.65625-1.2969 1.4531 0 0.82812 0.60938 1.4688 1.3906 1.4688 0.29688 0 0.65625-0.0625 1.0156-0.29688l-0.03125-0.4375c-0.40625 0.28125-0.76562 0.34375-0.98438 0.34375-0.51562 0-0.90625-0.46875-0.9375-1.0312zm-1.9375-0.375c0.09375-0.39062 0.40625-0.73438 0.79688-0.73438 0.21875 0 0.65625 0.10938 0.76562 0.73438z"/>
   </g>
   <g transform="translate(216.55 193.03)">
    <path d="m4.5625-1.8438c0-0.46875-0.125-0.98438-0.875-0.98438-0.51562 0-0.8125 0.3125-0.96875 0.51562-0.03125-0.125-0.17188-0.51562-0.79688-0.51562-0.5 0-0.79688 0.28125-0.9375 0.46875v-0.4375h-0.48438v2.7969h0.51562v-1.5156c0-0.40625 0.17188-0.90625 0.64062-0.90625 0.625 0 0.625 0.4375 0.625 0.625v1.7969h0.51562v-1.5156c0-0.40625 0.15625-0.90625 0.625-0.90625 0.625 0 0.625 0.4375 0.625 0.625v1.7969h0.51562z"/>
   </g>
   <g transform="translate(221.63 193.03)">
    <path d="M 1.0625,-4.25 H 0.45312 v 0.59375 H 1.0625 Z M 1,-2.7656 H 0.51562 V 0 H 1 Z"/>
   </g>
   <g transform="translate(223.15 193.03)">
    <path d="m2.1875-2.6719c-0.375-0.17188-0.65625-0.1875-0.92188-0.1875-0.14062 0-1.0469 0-1.0469 0.8125 0 0.29688 0.17188 0.48438 0.23438 0.54688 0.25 0.21875 0.40625 0.25 0.82812 0.32812 0.20312 0.03125 0.54688 0.10938 0.54688 0.42188 0 0.40625-0.5 0.40625-0.57812 0.40625-0.35938 0-0.71875-0.125-0.98438-0.3125l-0.078125 0.45312c0.35938 0.20312 0.75 0.26562 1.0625 0.26562 0.40625 0 1.0469-0.125 1.0469-0.85938 0-0.21875-0.078125-0.4375-0.29688-0.625s-0.40625-0.21875-0.78125-0.29688c-0.23438-0.046875-0.54688-0.09375-0.54688-0.39062 0-0.35938 0.45312-0.35938 0.54688-0.35938 0.45312 0 0.71875 0.14062 0.89062 0.23438z"/>
   </g>
   <g transform="translate(225.6 193.03)">
    <path d="m2.1875-2.6719c-0.375-0.17188-0.65625-0.1875-0.92188-0.1875-0.14062 0-1.0469 0-1.0469 0.8125 0 0.29688 0.17188 0.48438 0.23438 0.54688 0.25 0.21875 0.40625 0.25 0.82812 0.32812 0.20312 0.03125 0.54688 0.10938 0.54688 0.42188 0 0.40625-0.5 0.40625-0.57812 0.40625-0.35938 0-0.71875-0.125-0.98438-0.3125l-0.078125 0.45312c0.35938 0.20312 0.75 0.26562 1.0625 0.26562 0.40625 0 1.0469-0.125 1.0469-0.85938 0-0.21875-0.078125-0.4375-0.29688-0.625s-0.40625-0.21875-0.78125-0.29688c-0.23438-0.046875-0.54688-0.09375-0.54688-0.39062 0-0.35938 0.45312-0.35938 0.54688-0.35938 0.45312 0 0.71875 0.14062 0.89062 0.23438z"/>
   </g>
   <g transform="translate(228.05 193.03)">
    <path d="M 1.0625,-4.25 H 0.45312 v 0.59375 H 1.0625 Z M 1,-2.7656 H 0.51562 V 0 H 1 Z"/>
   </g>
   <g transform="translate(229.57 193.03)">
    <path d="m3-1.375c0-0.8125-0.625-1.4844-1.4062-1.4844-0.76562 0-1.4062 0.67188-1.4062 1.4844 0 0.82812 0.65625 1.4375 1.4062 1.4375 0.76562 0 1.4062-0.625 1.4062-1.4375zm-1.4062 1.0156c-0.46875 0-0.89062-0.375-0.89062-1.0781 0-0.71875 0.46875-1.0312 0.89062-1.0312 0.45312 0 0.89062 0.32812 0.89062 1.0312 0 0.73438-0.4375 1.0781-0.89062 1.0781z"/>
   </g>
   <g transform="translate(232.77 193.03)">
    <path d="m2.7969-1.8438c0-0.46875-0.125-0.98438-0.875-0.98438-0.5 0-0.79688 0.28125-0.9375 0.46875v-0.4375h-0.48438v2.7969h0.51562v-1.5156c0-0.40625 0.17188-0.90625 0.64062-0.90625 0.625 0 0.625 0.4375 0.625 0.625v1.7969h0.51562z"/>
   </g>
   <g transform="translate(200.84 200.63)">
    <path d="m2.5625-1.7969c0-0.60938-0.45312-1.0625-1.0625-1.0625-0.40625 0-0.70312 0.09375-1.0156 0.26562l0.046875 0.4375c0.3125-0.21875 0.60938-0.3125 0.95312-0.3125s0.5625 0.28125 0.5625 0.67188v0.26562c-1.0781 0.03125-1.7656 0.3125-1.7656 0.8125 0 0.29688 0.1875 0.78125 0.71875 0.78125 0.125 0 0.67188 0 1.0625-0.29688v0.23438h0.5zm-0.51562 0.92188c0 0.14062 0 0.29688-0.21875 0.42188-0.15625 0.09375-0.35938 0.125-0.48438 0.125-0.32812 0-0.59375-0.15625-0.59375-0.40625 0-0.4375 1.2188-0.45312 1.2969-0.45312z"/>
   </g>
   <g transform="translate(203.91 200.63)">
    <path d="m2.625-0.67188c-0.3125 0.20312-0.64062 0.3125-1.0156 0.3125-0.51562 0-0.875-0.4375-0.875-1.0312 0-0.46875 0.23438-1.0469 0.90625-1.0469 0.39062 0 0.59375 0.0625 0.90625 0.28125l0.078125-0.4375c-0.34375-0.20312-0.54688-0.26562-0.98438-0.26562-0.89062 0-1.4219 0.73438-1.4219 1.4844 0 0.76562 0.57812 1.4375 1.3906 1.4375 0.4375 0 0.76562-0.125 1.0469-0.29688z"/>
   </g>
   <g transform="translate(206.75 200.63)">
    <path d="m1.125-2.375h0.89062v-0.39062h-0.89062v-0.78125h-0.45312v0.78125h-0.54688v0.39062h0.51562v1.5938c0 0.35938 0.09375 0.84375 0.54688 0.84375 0.26562 0 0.59375-0.046875 0.9375-0.21875l-0.10938-0.39062c-0.15625 0.125-0.375 0.1875-0.5625 0.1875-0.25 0-0.32812-0.21875-0.32812-0.53125z"/>
   </g>
   <g transform="translate(209.05 200.63)">
    <path d="M 1.0625,-4.25 H 0.45312 v 0.59375 H 1.0625 Z M 1,-2.7656 H 0.51562 V 0 H 1 Z"/>
   </g>
   <g transform="translate(210.58 200.63)">
    <path d="m2.8594-2.7656h-0.5l-0.48438 1.2656c-0.125 0.32812-0.35938 0.92188-0.39062 1.1562h-0.015625c0-0.10938-0.03125-0.21875-0.375-1.125-0.17188-0.5-0.48438-1.25-0.5-1.2969h-0.5l1.0938 2.7656h0.57812z"/>
   </g>
   <g transform="translate(213.53 200.63)">
    <path d="M 1.0625,-4.25 H 0.45312 v 0.59375 H 1.0625 Z M 1,-2.7656 H 0.51562 V 0 H 1 Z"/>
   </g>
   <g transform="translate(215.05 200.63)">
    <path d="m1.125-2.375h0.89062v-0.39062h-0.89062v-0.78125h-0.45312v0.78125h-0.54688v0.39062h0.51562v1.5938c0 0.35938 0.09375 0.84375 0.54688 0.84375 0.26562 0 0.59375-0.046875 0.9375-0.21875l-0.10938-0.39062c-0.15625 0.125-0.375 0.1875-0.5625 0.1875-0.25 0-0.32812-0.21875-0.32812-0.53125z"/>
   </g>
   <g transform="translate(217.18 200.63)">
    <path d="m2.8594-2.7656h-0.5c-0.46875 1.1406-0.8125 1.9688-0.84375 2.4062-0.015625-0.29688-0.28125-0.9375-0.35938-1.1094-0.25-0.64062-0.35938-0.84375-0.54688-1.2969h-0.51562l1.2344 2.7656-0.23438 0.54688c-0.15625 0.35938-0.26562 0.35938-0.35938 0.35938s-0.3125-0.03125-0.5-0.10938l0.03125 0.42188c0.015625 0.015625 0.25 0.0625 0.46875 0.0625 0.15625 0 0.42188 0 0.73438-0.75z"/>
   </g>
   <g transform="translate(222.26 200.63)">
    <path d="m2.625-0.67188c-0.3125 0.20312-0.64062 0.3125-1.0156 0.3125-0.51562 0-0.875-0.4375-0.875-1.0312 0-0.46875 0.23438-1.0469 0.90625-1.0469 0.39062 0 0.59375 0.0625 0.90625 0.28125l0.078125-0.4375c-0.34375-0.20312-0.54688-0.26562-0.98438-0.26562-0.89062 0-1.4219 0.73438-1.4219 1.4844 0 0.76562 0.57812 1.4375 1.3906 1.4375 0.4375 0 0.76562-0.125 1.0469-0.29688z"/>
   </g>
   <g transform="translate(225.1 200.63)">
    <path d="m3-1.375c0-0.8125-0.625-1.4844-1.4062-1.4844-0.76562 0-1.4062 0.67188-1.4062 1.4844 0 0.82812 0.65625 1.4375 1.4062 1.4375 0.76562 0 1.4062-0.625 1.4062-1.4375zm-1.4062 1.0156c-0.46875 0-0.89062-0.375-0.89062-1.0781 0-0.71875 0.46875-1.0312 0.89062-1.0312 0.45312 0 0.89062 0.32812 0.89062 1.0312 0 0.73438-0.4375 1.0781-0.89062 1.0781z"/>
   </g>
   <g transform="translate(228.29 200.63)">
    <path d="m2.7969-1.8438c0-0.46875-0.125-0.98438-0.875-0.98438-0.5 0-0.79688 0.28125-0.9375 0.46875v-0.4375h-0.48438v2.7969h0.51562v-1.5156c0-0.40625 0.17188-0.90625 0.64062-0.90625 0.625 0 0.625 0.4375 0.625 0.625v1.7969h0.51562z"/>
   </g>
   <g transform="translate(231.59 200.63)">
    <path d="m1.125-2.375h0.89062v-0.39062h-0.89062v-0.78125h-0.45312v0.78125h-0.54688v0.39062h0.51562v1.5938c0 0.35938 0.09375 0.84375 0.54688 0.84375 0.26562 0 0.59375-0.046875 0.9375-0.21875l-0.10938-0.39062c-0.15625 0.125-0.375 0.1875-0.5625 0.1875-0.25 0-0.32812-0.21875-0.32812-0.53125z"/>
   </g>
   <g transform="translate(233.9 200.63)">
    <path d="m2.6562-1.3594c0-0.1875 0-0.67188-0.25-1.0469-0.26562-0.39062-0.65625-0.45312-0.89062-0.45312-0.71875 0-1.2969 0.65625-1.2969 1.4531 0 0.82812 0.60938 1.4688 1.3906 1.4688 0.29688 0 0.65625-0.0625 1.0156-0.29688l-0.03125-0.4375c-0.40625 0.28125-0.76562 0.34375-0.98438 0.34375-0.51562 0-0.90625-0.46875-0.9375-1.0312zm-1.9375-0.375c0.09375-0.39062 0.40625-0.73438 0.79688-0.73438 0.21875 0 0.65625 0.10938 0.76562 0.73438z"/>
   </g>
   <g transform="translate(236.74 200.63)">
    <path d="m1.6719-1.4219 1.1562-1.3438h-0.53125l-0.84375 1.0156-0.875-1.0156h-0.54688l1.2031 1.3438-1.2344 1.4219h0.54688l0.90625-1.1562 0.9375 1.1562h0.54688z"/>
   </g>
   <g transform="translate(239.68 200.63)">
    <path d="m1.125-2.375h0.89062v-0.39062h-0.89062v-0.78125h-0.45312v0.78125h-0.54688v0.39062h0.51562v1.5938c0 0.35938 0.09375 0.84375 0.54688 0.84375 0.26562 0 0.59375-0.046875 0.9375-0.21875l-0.10938-0.39062c-0.15625 0.125-0.375 0.1875-0.5625 0.1875-0.25 0-0.32812-0.21875-0.32812-0.53125z"/>
   </g>
  </g>
 </g>
</svg>
